{
copyright = "Copyright (c) 2015, Cadson Demak (info@cadsondemak.com)";
customParameters = (
{
name = vendorID;
value = CDK;
},
{
name = description;
value = "Copyright (c) 2015, Cadson Demak (info@cadsondemak.com)";
},
{
name = license;

glyphs = (
{
glyphname = A;
lastChange = "2015-10-12 08:28:13 +0000";
layers = (
{
layerId = "66DA30A5-A5D3-4FBB-AA06-F397B31B18DC";
name = Bold;
paths = (
{
closed = 1;
nodes = (
"245 0 LINE",
"245 37 LINE",
"224 37 LINE SMOOTH",
"197 37 OFFCURVE",
"170 52 OFFCURVE",
"183 87 CURVE SMOOTH",
"357 550 LINE",
"523 96 LINE SMOOTH",
"537 57 OFFCURVE",
"533 37 OFFCURVE",
"489 37 CURVE SMOOTH",
"469 37 LINE",
"469 0 LINE",
"775 0 LINE",
"775 37 LINE",
"754 37 LINE SMOOTH",
"732 37 OFFCURVE",
"708 47 OFFCURVE",
"698 72 CURVE SMOOTH",
"440 721 LINE",
"326 680 LINE",
"88 74 LINE SMOOTH",
"78 49 OFFCURVE",
"46 37 OFFCURVE",
"20 37 CURVE SMOOTH",
"4 37 LINE",
"4 0 LINE"
);
},
{
closed = 1;
nodes = (
"532 192 LINE",
"532 246 LINE",
"197 246 LINE",
"197 192 LINE"
);
}
);
width = 780;
}
);
leftKerningGroup = A;
note = A;
rightKerningGroup = A;
unicode = 0041;
},
{
glyphname = Aacute;
lastChange = "2015-10-12 08:28:13 +0000";
layers = (
{
layerId = "66DA30A5-A5D3-4FBB-AA06-F397B31B18DC";
name = Bold;
paths = (
{
closed = 1;
nodes = (
"245 0 LINE",
"245 37 LINE",
"224 37 LINE SMOOTH",
"197 37 OFFCURVE",
"170 52 OFFCURVE",
"183 87 CURVE SMOOTH",
"357 550 LINE",
"523 96 LINE SMOOTH",
"537 57 OFFCURVE",
"533 37 OFFCURVE",
"489 37 CURVE SMOOTH",
"469 37 LINE",
"469 0 LINE",
"775 0 LINE",
"775 37 LINE",
"754 37 LINE SMOOTH",
"732 37 OFFCURVE",
"708 47 OFFCURVE",
"698 72 CURVE SMOOTH",
"440 721 LINE",
"326 680 LINE",
"88 74 LINE SMOOTH",
"78 49 OFFCURVE",
"46 37 OFFCURVE",
"20 37 CURVE SMOOTH",
"4 37 LINE",
"4 0 LINE"
);
},
{
closed = 1;
nodes = (
"532 192 LINE",
"532 246 LINE",
"197 246 LINE",
"197 192 LINE"
);
},
{
closed = 1;
nodes = (
"460 869 LINE SMOOTH",
"490 887 OFFCURVE",
"508 905 OFFCURVE",
"508 928 CURVE SMOOTH",
"508 948 OFFCURVE",
"493 971 OFFCURVE",
"459 971 CURVE SMOOTH",
"428 971 OFFCURVE",
"405 946 OFFCURVE",
"398 938 CURVE",
"276 815 LINE",
"303 777 LINE"
);
}
);
width = 780;
}
);
leftKerningGroup = A;
note = Aacute;
rightKerningGroup = A;
unicode = 00C1;
},
{
glyphname = Abreve;
lastChange = "2015-10-12 08:28:13 +0000";
layers = (
{
layerId = "66DA30A5-A5D3-4FBB-AA06-F397B31B18DC";
name = Bold;
paths = (
{
closed = 1;
nodes = (
"245 0 LINE",
"245 37 LINE",
"224 37 LINE SMOOTH",
"197 37 OFFCURVE",
"170 52 OFFCURVE",
"183 87 CURVE SMOOTH",
"357 550 LINE",
"523 96 LINE SMOOTH",
"537 57 OFFCURVE",
"533 37 OFFCURVE",
"489 37 CURVE SMOOTH",
"469 37 LINE",
"469 0 LINE",
"775 0 LINE",
"775 37 LINE",
"754 37 LINE SMOOTH",
"732 37 OFFCURVE",
"708 47 OFFCURVE",
"698 72 CURVE SMOOTH",
"440 721 LINE",
"326 680 LINE",
"88 74 LINE SMOOTH",
"78 49 OFFCURVE",
"46 37 OFFCURVE",
"20 37 CURVE SMOOTH",
"4 37 LINE",
"4 0 LINE"
);
},
{
closed = 1;
nodes = (
"532 192 LINE",
"532 246 LINE",
"197 246 LINE",
"197 192 LINE"
);
},
{
closed = 1;
nodes = (
"514 776 OFFCURVE",
"548 849 OFFCURVE",
"550 922 CURVE",
"510 922 LINE",
"506 880 OFFCURVE",
"476 841 OFFCURVE",
"391 841 CURVE SMOOTH",
"306 841 OFFCURVE",
"274 880 OFFCURVE",
"269 922 CURVE",
"230 922 LINE",
"232 845 OFFCURVE",
"266 776 OFFCURVE",
"391 776 CURVE SMOOTH"
);
}
);
width = 780;
}
);
leftKerningGroup = A;
note = Abreve;
rightKerningGroup = A;
unicode = 0102;
},
{
glyphname = Abreveacute;
lastChange = "2015-10-12 08:28:13 +0000";
layers = (
{
layerId = "66DA30A5-A5D3-4FBB-AA06-F397B31B18DC";
name = Bold;
paths = (
{
closed = 1;
nodes = (
"245 0 LINE",
"245 37 LINE",
"224 37 LINE SMOOTH",
"197 37 OFFCURVE",
"170 52 OFFCURVE",
"183 87 CURVE SMOOTH",
"357 550 LINE",
"523 96 LINE SMOOTH",
"537 57 OFFCURVE",
"533 37 OFFCURVE",
"489 37 CURVE SMOOTH",
"469 37 LINE",
"469 0 LINE",
"775 0 LINE",
"775 37 LINE",
"754 37 LINE SMOOTH",
"732 37 OFFCURVE",
"708 47 OFFCURVE",
"698 72 CURVE SMOOTH",
"440 721 LINE",
"326 680 LINE",
"88 74 LINE SMOOTH",
"78 49 OFFCURVE",
"46 37 OFFCURVE",
"20 37 CURVE SMOOTH",
"4 37 LINE",
"4 0 LINE"
);
},
{
closed = 1;
nodes = (
"532 192 LINE",
"532 246 LINE",
"197 246 LINE",
"197 192 LINE"
);
},
{
closed = 1;
nodes = (
"514 777 OFFCURVE",
"547 849 OFFCURVE",
"549 922 CURVE",
"510 922 LINE",
"506 881 OFFCURVE",
"475 841 OFFCURVE",
"390 841 CURVE SMOOTH",
"304 841 OFFCURVE",
"273 881 OFFCURVE",
"269 922 CURVE",
"230 922 LINE",
"232 845 OFFCURVE",
"265 777 OFFCURVE",
"390 777 CURVE SMOOTH"
);
},
{
closed = 1;
nodes = (
"491 971 LINE SMOOTH",
"523 987 OFFCURVE",
"546 1009 OFFCURVE",
"546 1032 CURVE SMOOTH",
"546 1052 OFFCURVE",
"530 1077 OFFCURVE",
"497 1077 CURVE SMOOTH",
"468 1077 OFFCURVE",
"445 1053 OFFCURVE",
"432 1038 CURVE SMOOTH",
"348 944 LINE",
"373 911 LINE"
);
}
);
width = 780;
}
);
leftKerningGroup = A;
note = Abreveacute;
rightKerningGroup = A;
unicode = 1EAE;
},
{
glyphname = Abrevedotbelow;
lastChange = "2015-10-12 08:28:12 +0000";
layers = (
{
layerId = "66DA30A5-A5D3-4FBB-AA06-F397B31B18DC";
name = Bold;
paths = (
{
closed = 1;
nodes = (
"245 0 LINE",
"245 37 LINE",
"224 37 LINE SMOOTH",
"197 37 OFFCURVE",
"170 52 OFFCURVE",
"183 87 CURVE SMOOTH",
"357 550 LINE",
"523 96 LINE SMOOTH",
"537 57 OFFCURVE",
"533 37 OFFCURVE",
"489 37 CURVE SMOOTH",
"469 37 LINE",
"469 0 LINE",
"775 0 LINE",
"775 37 LINE",
"754 37 LINE SMOOTH",
"732 37 OFFCURVE",
"708 47 OFFCURVE",
"698 72 CURVE SMOOTH",
"440 721 LINE",
"326 680 LINE",
"88 74 LINE SMOOTH",
"78 49 OFFCURVE",
"46 37 OFFCURVE",
"20 37 CURVE SMOOTH",
"4 37 LINE",
"4 0 LINE"
);
},
{
closed = 1;
nodes = (
"425 -188 OFFCURVE",
"449 -161 OFFCURVE",
"449 -127 CURVE SMOOTH",
"449 -92 OFFCURVE",
"425 -64 OFFCURVE",
"388 -64 CURVE SMOOTH",
"350 -64 OFFCURVE",
"326 -92 OFFCURVE",
"326 -127 CURVE SMOOTH",
"326 -161 OFFCURVE",
"350 -188 OFFCURVE",
"388 -188 CURVE SMOOTH"
);
},
{
closed = 1;
nodes = (
"532 192 LINE",
"532 246 LINE",
"197 246 LINE",
"197 192 LINE"
);
},
{
closed = 1;
nodes = (
"513 776 OFFCURVE",
"547 849 OFFCURVE",
"549 922 CURVE",
"509 922 LINE",
"505 880 OFFCURVE",
"475 841 OFFCURVE",
"390 841 CURVE SMOOTH",
"305 841 OFFCURVE",
"273 880 OFFCURVE",
"268 922 CURVE",
"229 922 LINE",
"231 845 OFFCURVE",
"265 776 OFFCURVE",
"390 776 CURVE SMOOTH"
);
}
);
width = 780;
}
);
leftKerningGroup = A;
note = Abrevedotbelow;
rightKerningGroup = A;
unicode = 1EB6;
},
{
glyphname = Abrevegrave;
lastChange = "2015-10-12 08:28:13 +0000";
layers = (
{
layerId = "66DA30A5-A5D3-4FBB-AA06-F397B31B18DC";
name = Bold;
paths = (
{
closed = 1;
nodes = (
"245 0 LINE",
"245 37 LINE",
"224 37 LINE SMOOTH",
"197 37 OFFCURVE",
"170 52 OFFCURVE",
"183 87 CURVE SMOOTH",
"357 550 LINE",
"523 96 LINE SMOOTH",
"537 57 OFFCURVE",
"533 37 OFFCURVE",
"489 37 CURVE SMOOTH",
"469 37 LINE",
"469 0 LINE",
"775 0 LINE",
"775 37 LINE",
"754 37 LINE SMOOTH",
"732 37 OFFCURVE",
"708 47 OFFCURVE",
"698 72 CURVE SMOOTH",
"440 721 LINE",
"326 680 LINE",
"88 74 LINE SMOOTH",
"78 49 OFFCURVE",
"46 37 OFFCURVE",
"20 37 CURVE SMOOTH",
"4 37 LINE",
"4 0 LINE"
);
},
{
closed = 1;
nodes = (
"532 192 LINE",
"532 246 LINE",
"197 246 LINE",
"197 192 LINE"
);
},
{
closed = 1;
nodes = (
"514 777 OFFCURVE",
"547 849 OFFCURVE",
"549 922 CURVE",
"510 922 LINE",
"506 881 OFFCURVE",
"474 841 OFFCURVE",
"390 841 CURVE SMOOTH",
"304 841 OFFCURVE",
"273 881 OFFCURVE",
"269 922 CURVE",
"230 922 LINE",
"232 845 OFFCURVE",
"265 777 OFFCURVE",
"390 777 CURVE SMOOTH"
);
},
{
closed = 1;
nodes = (
"429 942 LINE",
"341 1038 LINE SMOOTH",
"328 1053 OFFCURVE",
"307 1077 OFFCURVE",
"279 1077 CURVE SMOOTH",
"244 1077 OFFCURVE",
"230 1050 OFFCURVE",
"230 1031 CURVE SMOOTH",
"230 1009 OFFCURVE",
"250 988 OFFCURVE",
"283 971 CURVE SMOOTH",
"403 909 LINE"
);
}
);
width = 780;
}
);
leftKerningGroup = A;
note = Abrevegrave;
rightKerningGroup = A;
unicode = 1EB0;
},
{
glyphname = Abrevehookabove;
lastChange = "2015-10-12 08:28:12 +0000";
layers = (
{
layerId = "66DA30A5-A5D3-4FBB-AA06-F397B31B18DC";
name = Bold;
paths = (
{
closed = 1;
nodes = (
"245 0 LINE",
"245 37 LINE",
"224 37 LINE SMOOTH",
"197 37 OFFCURVE",
"170 52 OFFCURVE",
"183 87 CURVE SMOOTH",
"357 550 LINE",
"523 96 LINE SMOOTH",
"537 57 OFFCURVE",
"533 37 OFFCURVE",
"489 37 CURVE SMOOTH",
"469 37 LINE",
"469 0 LINE",
"775 0 LINE",
"775 37 LINE",
"754 37 LINE SMOOTH",
"732 37 OFFCURVE",
"708 47 OFFCURVE",
"698 72 CURVE SMOOTH",
"440 721 LINE",
"326 680 LINE",
"88 74 LINE SMOOTH",
"78 49 OFFCURVE",
"46 37 OFFCURVE",
"20 37 CURVE SMOOTH",
"4 37 LINE",
"4 0 LINE"
);
},
{
closed = 1;
nodes = (
"532 192 LINE",
"532 246 LINE",
"197 246 LINE",
"197 192 LINE"
);
},
{
closed = 1;
nodes = (
"514 777 OFFCURVE",
"547 849 OFFCURVE",
"549 922 CURVE",
"510 922 LINE",
"506 881 OFFCURVE",
"475 841 OFFCURVE",
"390 841 CURVE SMOOTH",
"304 841 OFFCURVE",
"273 881 OFFCURVE",
"269 922 CURVE",
"230 922 LINE",
"232 845 OFFCURVE",
"265 777 OFFCURVE",
"390 777 CURVE SMOOTH"
);
},
{
closed = 1;
nodes = (
"431 926 LINE",
"415 931 OFFCURVE",
"403 933 OFFCURVE",
"403 952 CURVE SMOOTH",
"403 987 OFFCURVE",
"495 996 OFFCURVE",
"495 1048 CURVE SMOOTH",
"495 1090 OFFCURVE",
"447 1109 OFFCURVE",
"398 1109 CURVE SMOOTH",
"347 1109 OFFCURVE",
"309 1088 OFFCURVE",
"309 1061 CURVE SMOOTH",
"309 1043 OFFCURVE",
"323 1034 OFFCURVE",
"336 1034 CURVE SMOOTH",
"351 1034 OFFCURVE",
"360 1043 OFFCURVE",
"363 1055 CURVE SMOOTH",
"367 1072 OFFCURVE",
"380 1083 OFFCURVE",
"401 1083 CURVE SMOOTH",
"421 1083 OFFCURVE",
"430 1068 OFFCURVE",
"430 1054 CURVE SMOOTH",
"430 1006 OFFCURVE",
"351 996 OFFCURVE",
"351 952 CURVE SMOOTH",
"351 925 OFFCURVE",
"376 905 OFFCURVE",
"422 905 CURVE"
);
}
);
width = 780;
}
);
leftKerningGroup = A;
note = Abrevehookabove;
rightKerningGroup = A;
unicode = 1EB2;
},
{
glyphname = Abrevetilde;
lastChange = "2015-10-12 08:28:13 +0000";
layers = (
{
layerId = "66DA30A5-A5D3-4FBB-AA06-F397B31B18DC";
name = Bold;
paths = (
{
closed = 1;
nodes = (
"245 0 LINE",
"245 37 LINE",
"224 37 LINE SMOOTH",
"197 37 OFFCURVE",
"170 52 OFFCURVE",
"183 87 CURVE SMOOTH",
"357 550 LINE",
"523 96 LINE SMOOTH",
"537 57 OFFCURVE",
"533 37 OFFCURVE",
"489 37 CURVE SMOOTH",
"469 37 LINE",
"469 0 LINE",
"775 0 LINE",
"775 37 LINE",
"754 37 LINE SMOOTH",
"732 37 OFFCURVE",
"708 47 OFFCURVE",
"698 72 CURVE SMOOTH",
"440 721 LINE",
"326 680 LINE",
"88 74 LINE SMOOTH",
"78 49 OFFCURVE",
"46 37 OFFCURVE",
"20 37 CURVE SMOOTH",
"4 37 LINE",
"4 0 LINE"
);
},
{
closed = 1;
nodes = (
"532 192 LINE",
"532 246 LINE",
"197 246 LINE",
"197 192 LINE"
);
},
{
closed = 1;
nodes = (
"514 777 OFFCURVE",
"547 849 OFFCURVE",
"549 922 CURVE",
"510 922 LINE",
"506 881 OFFCURVE",
"475 841 OFFCURVE",
"390 841 CURVE SMOOTH",
"304 841 OFFCURVE",
"273 881 OFFCURVE",
"269 922 CURVE",
"230 922 LINE",
"232 845 OFFCURVE",
"265 777 OFFCURVE",
"390 777 CURVE SMOOTH"
);
},
{
closed = 1;
nodes = (
"251 1016 OFFCURVE",
"267 1034 OFFCURVE",
"299 1034 CURVE SMOOTH",
"351 1034 OFFCURVE",
"399 985 OFFCURVE",
"450 985 CURVE SMOOTH",
"512 985 OFFCURVE",
"542 1051 OFFCURVE",
"556 1099 CURVE",
"531 1114 LINE",
"515 1074 OFFCURVE",
"501 1054 OFFCURVE",
"468 1054 CURVE SMOOTH",
"417 1054 OFFCURVE",
"368 1103 OFFCURVE",
"316 1103 CURVE SMOOTH",
"255 1103 OFFCURVE",
"224 1039 OFFCURVE",
"211 991 CURVE",
"235 976 LINE"
);
}
);
width = 780;
}
);
leftKerningGroup = A;
note = Abrevetilde;
rightKerningGroup = A;
unicode = 1EB4;
},
{
glyphname = Acaron;
lastChange = "2015-10-12 08:28:12 +0000";
layers = (
{
layerId = "66DA30A5-A5D3-4FBB-AA06-F397B31B18DC";
name = Bold;
paths = (
{
closed = 1;
nodes = (
"245 0 LINE",
"245 37 LINE",
"224 37 LINE SMOOTH",
"197 37 OFFCURVE",
"170 52 OFFCURVE",
"183 87 CURVE SMOOTH",
"357 550 LINE",
"523 96 LINE SMOOTH",
"537 57 OFFCURVE",
"533 37 OFFCURVE",
"489 37 CURVE SMOOTH",
"469 37 LINE",
"469 0 LINE",
"775 0 LINE",
"775 37 LINE",
"754 37 LINE SMOOTH",
"732 37 OFFCURVE",
"708 47 OFFCURVE",
"698 72 CURVE SMOOTH",
"440 721 LINE",
"326 680 LINE",
"88 74 LINE SMOOTH",
"78 49 OFFCURVE",
"46 37 OFFCURVE",
"20 37 CURVE SMOOTH",
"4 37 LINE",
"4 0 LINE"
);
},
{
closed = 1;
nodes = (
"532 192 LINE",
"532 246 LINE",
"197 246 LINE",
"197 192 LINE"
);
},
{
closed = 1;
nodes = (
"429 778 LINE",
"574 935 LINE",
"550 961 LINE",
"425 866 LINE SMOOTH",
"413 857 OFFCURVE",
"401 850 OFFCURVE",
"392 850 CURVE SMOOTH",
"383 850 OFFCURVE",
"371 857 OFFCURVE",
"358 866 CURVE",
"233 961 LINE",
"209 935 LINE",
"354 778 LINE"
);
}
);
width = 780;
}
);
leftKerningGroup = A;
note = Acaron;
rightKerningGroup = A;
unicode = 01CD;
},
{
glyphname = Acircumflex;
lastChange = "2015-10-12 08:28:13 +0000";
layers = (
{
layerId = "66DA30A5-A5D3-4FBB-AA06-F397B31B18DC";
name = Bold;
paths = (
{
closed = 1;
nodes = (
"245 0 LINE",
"245 37 LINE",
"224 37 LINE SMOOTH",
"197 37 OFFCURVE",
"170 52 OFFCURVE",
"183 87 CURVE SMOOTH",
"357 550 LINE",
"523 96 LINE SMOOTH",
"537 57 OFFCURVE",
"533 37 OFFCURVE",
"489 37 CURVE SMOOTH",
"469 37 LINE",
"469 0 LINE",
"775 0 LINE",
"775 37 LINE",
"754 37 LINE SMOOTH",
"732 37 OFFCURVE",
"708 47 OFFCURVE",
"698 72 CURVE SMOOTH",
"440 721 LINE",
"326 680 LINE",
"88 74 LINE SMOOTH",
"78 49 OFFCURVE",
"46 37 OFFCURVE",
"20 37 CURVE SMOOTH",
"4 37 LINE",
"4 0 LINE"
);
},
{
closed = 1;
nodes = (
"532 192 LINE",
"532 246 LINE",
"197 246 LINE",
"197 192 LINE"
);
},
{
closed = 1;
nodes = (
"358 873 LINE SMOOTH",
"370 882 OFFCURVE",
"383 889 OFFCURVE",
"392 889 CURVE SMOOTH",
"401 889 OFFCURVE",
"413 882 OFFCURVE",
"425 873 CURVE SMOOTH",
"550 778 LINE",
"574 804 LINE",
"429 961 LINE",
"354 961 LINE",
"209 804 LINE",
"233 778 LINE"
);
}
);
width = 780;
}
);
leftKerningGroup = A;
note = Acircumflex;
rightKerningGroup = A;
unicode = 00C2;
},
{
glyphname = Acircumflexacute;
lastChange = "2015-10-12 08:28:13 +0000";
layers = (
{
layerId = "66DA30A5-A5D3-4FBB-AA06-F397B31B18DC";
name = Bold;
paths = (
{
closed = 1;
nodes = (
"245 0 LINE",
"245 37 LINE",
"224 37 LINE SMOOTH",
"197 37 OFFCURVE",
"170 52 OFFCURVE",
"183 87 CURVE SMOOTH",
"357 550 LINE",
"523 96 LINE SMOOTH",
"537 57 OFFCURVE",
"533 37 OFFCURVE",
"489 37 CURVE SMOOTH",
"469 37 LINE",
"469 0 LINE",
"775 0 LINE",
"775 37 LINE",
"754 37 LINE SMOOTH",
"732 37 OFFCURVE",
"708 47 OFFCURVE",
"698 72 CURVE SMOOTH",
"440 721 LINE",
"326 680 LINE",
"88 74 LINE SMOOTH",
"78 49 OFFCURVE",
"46 37 OFFCURVE",
"20 37 CURVE SMOOTH",
"4 37 LINE",
"4 0 LINE"
);
},
{
closed = 1;
nodes = (
"532 192 LINE",
"532 246 LINE",
"197 246 LINE",
"197 192 LINE"
);
},
{
closed = 1;
nodes = (
"357 867 LINE SMOOTH",
"371 878 OFFCURVE",
"384 888 OFFCURVE",
"394 888 CURVE SMOOTH",
"403 888 OFFCURVE",
"415 880 OFFCURVE",
"427 871 CURVE SMOOTH",
"548 777 LINE",
"571 803 LINE",
"431 960 LINE",
"357 960 LINE",
"218 803 LINE",
"240 777 LINE"
);
},
{
closed = 1;
nodes = (
"646 966 LINE SMOOTH",
"678 982 OFFCURVE",
"701 1004 OFFCURVE",
"701 1027 CURVE SMOOTH",
"701 1047 OFFCURVE",
"685 1072 OFFCURVE",
"652 1072 CURVE SMOOTH",
"623 1072 OFFCURVE",
"600 1048 OFFCURVE",
"587 1033 CURVE SMOOTH",
"503 939 LINE",
"528 906 LINE"
);
}
);
width = 780;
}
);
leftKerningGroup = A;
note = Acircumflexacute;
rightKerningGroup = A;
unicode = 1EA4;
},
{
glyphname = Acircumflexdotbelow;
lastChange = "2015-10-12 08:28:12 +0000";
layers = (
{
layerId = "66DA30A5-A5D3-4FBB-AA06-F397B31B18DC";
name = Bold;
paths = (
{
closed = 1;
nodes = (
"245 0 LINE",
"245 37 LINE",
"224 37 LINE SMOOTH",
"197 37 OFFCURVE",
"170 52 OFFCURVE",
"183 87 CURVE SMOOTH",
"357 550 LINE",
"523 96 LINE SMOOTH",
"537 57 OFFCURVE",
"533 37 OFFCURVE",
"489 37 CURVE SMOOTH",
"469 37 LINE",
"469 0 LINE",
"775 0 LINE",
"775 37 LINE",
"754 37 LINE SMOOTH",
"732 37 OFFCURVE",
"708 47 OFFCURVE",
"698 72 CURVE SMOOTH",
"440 721 LINE",
"326 680 LINE",
"88 74 LINE SMOOTH",
"78 49 OFFCURVE",
"46 37 OFFCURVE",
"20 37 CURVE SMOOTH",
"4 37 LINE",
"4 0 LINE"
);
},
{
closed = 1;
nodes = (
"432 -188 OFFCURVE",
"456 -161 OFFCURVE",
"456 -127 CURVE SMOOTH",
"456 -92 OFFCURVE",
"432 -64 OFFCURVE",
"395 -64 CURVE SMOOTH",
"357 -64 OFFCURVE",
"333 -92 OFFCURVE",
"333 -127 CURVE SMOOTH",
"333 -161 OFFCURVE",
"357 -188 OFFCURVE",
"395 -188 CURVE SMOOTH"
);
},
{
closed = 1;
nodes = (
"532 192 LINE",
"532 246 LINE",
"197 246 LINE",
"197 192 LINE"
);
},
{
closed = 1;
nodes = (
"359 872 LINE SMOOTH",
"371 881 OFFCURVE",
"384 888 OFFCURVE",
"393 888 CURVE SMOOTH",
"402 888 OFFCURVE",
"414 881 OFFCURVE",
"426 872 CURVE SMOOTH",
"551 777 LINE",
"575 803 LINE",
"430 960 LINE",
"355 960 LINE",
"210 803 LINE",
"234 777 LINE"
);
}
);
width = 780;
}
);
leftKerningGroup = A;
note = Acircumflexdotbelow;
rightKerningGroup = A;
unicode = 1EAC;
},
{
glyphname = Acircumflexgrave;
lastChange = "2015-10-12 08:28:13 +0000";
layers = (
{
layerId = "66DA30A5-A5D3-4FBB-AA06-F397B31B18DC";
name = Bold;
paths = (
{
closed = 1;
nodes = (
"245 0 LINE",
"245 37 LINE",
"224 37 LINE SMOOTH",
"197 37 OFFCURVE",
"170 52 OFFCURVE",
"183 87 CURVE SMOOTH",
"357 550 LINE",
"523 96 LINE SMOOTH",
"537 57 OFFCURVE",
"533 37 OFFCURVE",
"489 37 CURVE SMOOTH",
"469 37 LINE",
"469 0 LINE",
"775 0 LINE",
"775 37 LINE",
"754 37 LINE SMOOTH",
"732 37 OFFCURVE",
"708 47 OFFCURVE",
"698 72 CURVE SMOOTH",
"440 721 LINE",
"326 680 LINE",
"88 74 LINE SMOOTH",
"78 49 OFFCURVE",
"46 37 OFFCURVE",
"20 37 CURVE SMOOTH",
"4 37 LINE",
"4 0 LINE"
);
},
{
closed = 1;
nodes = (
"532 192 LINE",
"532 246 LINE",
"197 246 LINE",
"197 192 LINE"
);
},
{
closed = 1;
nodes = (
"288 939 LINE",
"201 1035 LINE SMOOTH",
"189 1049 OFFCURVE",
"167 1073 OFFCURVE",
"139 1073 CURVE SMOOTH",
"104 1073 OFFCURVE",
"90 1046 OFFCURVE",
"90 1028 CURVE SMOOTH",
"90 1005 OFFCURVE",
"110 984 OFFCURVE",
"143 968 CURVE SMOOTH",
"263 906 LINE"
);
},
{
closed = 1;
nodes = (
"357 867 LINE SMOOTH",
"371 878 OFFCURVE",
"384 888 OFFCURVE",
"394 888 CURVE SMOOTH",
"403 888 OFFCURVE",
"415 880 OFFCURVE",
"427 871 CURVE SMOOTH",
"548 777 LINE",
"571 803 LINE",
"431 960 LINE",
"357 960 LINE",
"218 803 LINE",
"240 777 LINE"
);
}
);
width = 780;
}
);
leftKerningGroup = A;
note = Acircumflexgrave;
rightKerningGroup = A;
unicode = 1EA6;
},
{
glyphname = Acircumflexhookabove;
lastChange = "2015-10-12 08:28:12 +0000";
layers = (
{
layerId = "66DA30A5-A5D3-4FBB-AA06-F397B31B18DC";
name = Bold;
paths = (
{
closed = 1;
nodes = (
"245 0 LINE",
"245 37 LINE",
"224 37 LINE SMOOTH",
"197 37 OFFCURVE",
"170 52 OFFCURVE",
"183 87 CURVE SMOOTH",
"357 550 LINE",
"523 96 LINE SMOOTH",
"537 57 OFFCURVE",
"533 37 OFFCURVE",
"489 37 CURVE SMOOTH",
"469 37 LINE",
"469 0 LINE",
"775 0 LINE",
"775 37 LINE",
"754 37 LINE SMOOTH",
"732 37 OFFCURVE",
"708 47 OFFCURVE",
"698 72 CURVE SMOOTH",
"440 721 LINE",
"326 680 LINE",
"88 74 LINE SMOOTH",
"78 49 OFFCURVE",
"46 37 OFFCURVE",
"20 37 CURVE SMOOTH",
"4 37 LINE",
"4 0 LINE"
);
},
{
closed = 1;
nodes = (
"532 192 LINE",
"532 246 LINE",
"197 246 LINE",
"197 192 LINE"
);
},
{
closed = 1;
nodes = (
"357 867 LINE SMOOTH",
"371 878 OFFCURVE",
"384 888 OFFCURVE",
"394 888 CURVE SMOOTH",
"403 888 OFFCURVE",
"415 880 OFFCURVE",
"427 871 CURVE SMOOTH",
"548 777 LINE",
"571 803 LINE",
"431 960 LINE",
"357 960 LINE",
"218 803 LINE",
"240 777 LINE"
);
},
{
closed = 1;
nodes = (
"590 921 LINE",
"574 926 OFFCURVE",
"562 929 OFFCURVE",
"562 947 CURVE SMOOTH",
"562 982 OFFCURVE",
"654 991 OFFCURVE",
"654 1044 CURVE SMOOTH",
"654 1085 OFFCURVE",
"606 1104 OFFCURVE",
"557 1104 CURVE SMOOTH",
"506 1104 OFFCURVE",
"468 1083 OFFCURVE",
"468 1056 CURVE SMOOTH",
"468 1039 OFFCURVE",
"482 1029 OFFCURVE",
"495 1029 CURVE SMOOTH",
"530 1029 OFFCURVE",
"515 1078 OFFCURVE",
"560 1078 CURVE SMOOTH",
"580 1078 OFFCURVE",
"589 1063 OFFCURVE",
"589 1049 CURVE SMOOTH",
"589 1001 OFFCURVE",
"510 991 OFFCURVE",
"510 947 CURVE SMOOTH",
"510 920 OFFCURVE",
"534 900 OFFCURVE",
"581 900 CURVE"
);
}
);
width = 780;
}
);
leftKerningGroup = A;
note = Acircumflexhookabove;
rightKerningGroup = A;
unicode = 1EA8;
},
{
glyphname = Acircumflextilde;
lastChange = "2015-10-12 08:28:12 +0000";
layers = (
{
layerId = "66DA30A5-A5D3-4FBB-AA06-F397B31B18DC";
name = Bold;
paths = (
{
closed = 1;
nodes = (
"245 0 LINE",
"245 37 LINE",
"224 37 LINE SMOOTH",
"197 37 OFFCURVE",
"170 52 OFFCURVE",
"183 87 CURVE SMOOTH",
"357 550 LINE",
"523 96 LINE SMOOTH",
"537 57 OFFCURVE",
"533 37 OFFCURVE",
"489 37 CURVE SMOOTH",
"469 37 LINE",
"469 0 LINE",
"775 0 LINE",
"775 37 LINE",
"754 37 LINE SMOOTH",
"732 37 OFFCURVE",
"708 47 OFFCURVE",
"698 72 CURVE SMOOTH",
"440 721 LINE",
"326 680 LINE",
"88 74 LINE SMOOTH",
"78 49 OFFCURVE",
"46 37 OFFCURVE",
"20 37 CURVE SMOOTH",
"4 37 LINE",
"4 0 LINE"
);
},
{
closed = 1;
nodes = (
"532 192 LINE",
"532 246 LINE",
"197 246 LINE",
"197 192 LINE"
);
},
{
closed = 1;
nodes = (
"357 867 LINE SMOOTH",
"371 878 OFFCURVE",
"384 888 OFFCURVE",
"394 888 CURVE SMOOTH",
"403 888 OFFCURVE",
"415 880 OFFCURVE",
"427 871 CURVE SMOOTH",
"548 777 LINE",
"571 803 LINE",
"431 960 LINE",
"357 960 LINE",
"218 803 LINE",
"240 777 LINE"
);
},
{
closed = 1;
nodes = (
"257 1019 OFFCURVE",
"273 1038 OFFCURVE",
"306 1038 CURVE SMOOTH",
"361 1038 OFFCURVE",
"411 989 OFFCURVE",
"464 989 CURVE SMOOTH",
"529 989 OFFCURVE",
"560 1055 OFFCURVE",
"575 1102 CURVE",
"549 1118 LINE",
"532 1077 OFFCURVE",
"517 1058 OFFCURVE",
"483 1058 CURVE SMOOTH",
"430 1058 OFFCURVE",
"378 1106 OFFCURVE",
"325 1106 CURVE SMOOTH",
"261 1106 OFFCURVE",
"229 1043 OFFCURVE",
"215 995 CURVE",
"240 980 LINE"
);
}
);
width = 780;
}
);
leftKerningGroup = A;
note = Acircumflextilde;
rightKerningGroup = A;
unicode = 1EAA;
},
{
glyphname = Adieresis;
lastChange = "2015-10-12 08:28:13 +0000";
layers = (
{
layerId = "66DA30A5-A5D3-4FBB-AA06-F397B31B18DC";
name = Bold;
paths = (
{
closed = 1;
nodes = (
"245 0 LINE",
"245 37 LINE",
"224 37 LINE SMOOTH",
"197 37 OFFCURVE",
"170 52 OFFCURVE",
"183 87 CURVE SMOOTH",
"357 550 LINE",
"523 96 LINE SMOOTH",
"537 57 OFFCURVE",
"533 37 OFFCURVE",
"489 37 CURVE SMOOTH",
"469 37 LINE",
"469 0 LINE",
"775 0 LINE",
"775 37 LINE",
"754 37 LINE SMOOTH",
"732 37 OFFCURVE",
"708 47 OFFCURVE",
"698 72 CURVE SMOOTH",
"440 721 LINE",
"326 680 LINE",
"88 74 LINE SMOOTH",
"78 49 OFFCURVE",
"46 37 OFFCURVE",
"20 37 CURVE SMOOTH",
"4 37 LINE",
"4 0 LINE"
);
},
{
closed = 1;
nodes = (
"532 192 LINE",
"532 246 LINE",
"197 246 LINE",
"197 192 LINE"
);
},
{
closed = 1;
nodes = (
"299 778 OFFCURVE",
"323 804 OFFCURVE",
"323 838 CURVE SMOOTH",
"323 874 OFFCURVE",
"299 900 OFFCURVE",
"261 900 CURVE SMOOTH",
"223 900 OFFCURVE",
"200 874 OFFCURVE",
"200 838 CURVE SMOOTH",
"200 804 OFFCURVE",
"223 778 OFFCURVE",
"261 778 CURVE SMOOTH"
);
},
{
closed = 1;
nodes = (
"531 778 OFFCURVE",
"555 804 OFFCURVE",
"555 838 CURVE SMOOTH",
"555 874 OFFCURVE",
"531 900 OFFCURVE",
"494 900 CURVE SMOOTH",
"455 900 OFFCURVE",
"432 874 OFFCURVE",
"432 838 CURVE SMOOTH",
"432 804 OFFCURVE",
"455 778 OFFCURVE",
"494 778 CURVE SMOOTH"
);
}
);
width = 780;
}
);
leftKerningGroup = A;
note = Adieresis;
rightKerningGroup = A;
unicode = 00C4;
},
{
glyphname = Adotbelow;
lastChange = "2015-10-12 08:28:13 +0000";
layers = (
{
layerId = "66DA30A5-A5D3-4FBB-AA06-F397B31B18DC";
name = Bold;
paths = (
{
closed = 1;
nodes = (
"245 0 LINE",
"245 37 LINE",
"224 37 LINE SMOOTH",
"197 37 OFFCURVE",
"170 52 OFFCURVE",
"183 87 CURVE SMOOTH",
"357 550 LINE",
"523 96 LINE SMOOTH",
"537 57 OFFCURVE",
"533 37 OFFCURVE",
"489 37 CURVE SMOOTH",
"469 37 LINE",
"469 0 LINE",
"775 0 LINE",
"775 37 LINE",
"754 37 LINE SMOOTH",
"732 37 OFFCURVE",
"708 47 OFFCURVE",
"698 72 CURVE SMOOTH",
"440 721 LINE",
"326 680 LINE",
"88 74 LINE SMOOTH",
"78 49 OFFCURVE",
"46 37 OFFCURVE",
"20 37 CURVE SMOOTH",
"4 37 LINE",
"4 0 LINE"
);
},
{
closed = 1;
nodes = (
"430 -188 OFFCURVE",
"454 -161 OFFCURVE",
"454 -127 CURVE SMOOTH",
"454 -92 OFFCURVE",
"430 -64 OFFCURVE",
"393 -64 CURVE SMOOTH",
"355 -64 OFFCURVE",
"331 -92 OFFCURVE",
"331 -127 CURVE SMOOTH",
"331 -161 OFFCURVE",
"355 -188 OFFCURVE",
"393 -188 CURVE SMOOTH"
);
},
{
closed = 1;
nodes = (
"532 192 LINE",
"532 246 LINE",
"197 246 LINE",
"197 192 LINE"
);
}
);
width = 780;
}
);
leftKerningGroup = A;
note = Adotbelow;
rightKerningGroup = A;
unicode = 1EA0;
},
{
glyphname = Agrave;
lastChange = "2015-10-12 08:28:13 +0000";
layers = (
{
layerId = "66DA30A5-A5D3-4FBB-AA06-F397B31B18DC";
name = Bold;
paths = (
{
closed = 1;
nodes = (
"245 0 LINE",
"245 37 LINE",
"224 37 LINE SMOOTH",
"197 37 OFFCURVE",
"170 52 OFFCURVE",
"183 87 CURVE SMOOTH",
"357 550 LINE",
"523 96 LINE SMOOTH",
"537 57 OFFCURVE",
"533 37 OFFCURVE",
"489 37 CURVE SMOOTH",
"469 37 LINE",
"469 0 LINE",
"775 0 LINE",
"775 37 LINE",
"754 37 LINE SMOOTH",
"732 37 OFFCURVE",
"708 47 OFFCURVE",
"698 72 CURVE SMOOTH",
"440 721 LINE",
"326 680 LINE",
"88 74 LINE SMOOTH",
"78 49 OFFCURVE",
"46 37 OFFCURVE",
"20 37 CURVE SMOOTH",
"4 37 LINE",
"4 0 LINE"
);
},
{
closed = 1;
nodes = (
"532 192 LINE",
"532 246 LINE",
"197 246 LINE",
"197 192 LINE"
);
},
{
closed = 1;
nodes = (
"509 815 LINE",
"388 937 LINE",
"380 946 OFFCURVE",
"357 971 OFFCURVE",
"326 971 CURVE SMOOTH",
"292 971 OFFCURVE",
"278 949 OFFCURVE",
"278 929 CURVE SMOOTH",
"278 905 OFFCURVE",
"294 887 OFFCURVE",
"324 869 CURVE SMOOTH",
"482 777 LINE"
);
}
);
width = 780;
}
);
leftKerningGroup = A;
note = Agrave;
rightKerningGroup = A;
unicode = 00C0;
},
{
glyphname = Ahookabove;
lastChange = "2015-10-12 08:28:13 +0000";
layers = (
{
layerId = "66DA30A5-A5D3-4FBB-AA06-F397B31B18DC";
name = Bold;
paths = (
{
closed = 1;
nodes = (
"245 0 LINE",
"245 37 LINE",
"224 37 LINE SMOOTH",
"197 37 OFFCURVE",
"170 52 OFFCURVE",
"183 87 CURVE SMOOTH",
"357 550 LINE",
"523 96 LINE SMOOTH",
"537 57 OFFCURVE",
"533 37 OFFCURVE",
"489 37 CURVE SMOOTH",
"469 37 LINE",
"469 0 LINE",
"775 0 LINE",
"775 37 LINE",
"754 37 LINE SMOOTH",
"732 37 OFFCURVE",
"708 47 OFFCURVE",
"698 72 CURVE SMOOTH",
"440 721 LINE",
"326 680 LINE",
"88 74 LINE SMOOTH",
"78 49 OFFCURVE",
"46 37 OFFCURVE",
"20 37 CURVE SMOOTH",
"4 37 LINE",
"4 0 LINE"
);
},
{
closed = 1;
nodes = (
"532 192 LINE",
"532 246 LINE",
"197 246 LINE",
"197 192 LINE"
);
},
{
closed = 1;
nodes = (
"450 801 LINE",
"433 805 OFFCURVE",
"419 811 OFFCURVE",
"419 829 CURVE SMOOTH",
"419 869 OFFCURVE",
"523 880 OFFCURVE",
"523 941 CURVE SMOOTH",
"523 988 OFFCURVE",
"476 1013 OFFCURVE",
"416 1013 CURVE SMOOTH",
"348 1013 OFFCURVE",
"311 986 OFFCURVE",
"311 954 CURVE SMOOTH",
"311 932 OFFCURVE",
"325 922 OFFCURVE",
"342 922 CURVE SMOOTH",
"366 922 OFFCURVE",
"374 942 OFFCURVE",
"376 952 CURVE",
"379 973 OFFCURVE",
"399 979 OFFCURVE",
"416 979 CURVE SMOOTH",
"436 979 OFFCURVE",
"449 963 OFFCURVE",
"449 946 CURVE SMOOTH",
"449 892 OFFCURVE",
"359 881 OFFCURVE",
"359 831 CURVE SMOOTH",
"359 800 OFFCURVE",
"387 777 OFFCURVE",
"440 777 CURVE"
);
}
);
width = 780;
}
);
leftKerningGroup = A;
note = Ahookabove;
rightKerningGroup = A;
unicode = 1EA2;
},
{
glyphname = Amacron;
lastChange = "2015-10-12 08:28:13 +0000";
layers = (
{
layerId = "66DA30A5-A5D3-4FBB-AA06-F397B31B18DC";
name = Bold;
paths = (
{
closed = 1;
nodes = (
"245 0 LINE",
"245 37 LINE",
"224 37 LINE SMOOTH",
"197 37 OFFCURVE",
"170 52 OFFCURVE",
"183 87 CURVE SMOOTH",
"357 550 LINE",
"523 96 LINE SMOOTH",
"537 57 OFFCURVE",
"533 37 OFFCURVE",
"489 37 CURVE SMOOTH",
"469 37 LINE",
"469 0 LINE",
"775 0 LINE",
"775 37 LINE",
"754 37 LINE SMOOTH",
"732 37 OFFCURVE",
"708 47 OFFCURVE",
"698 72 CURVE SMOOTH",
"440 721 LINE",
"326 680 LINE",
"88 74 LINE SMOOTH",
"78 49 OFFCURVE",
"46 37 OFFCURVE",
"20 37 CURVE SMOOTH",
"4 37 LINE",
"4 0 LINE"
);
},
{
closed = 1;
nodes = (
"532 192 LINE",
"532 246 LINE",
"197 246 LINE",
"197 192 LINE"
);
},
{
closed = 1;
nodes = (
"584 778 LINE",
"584 837 LINE",
"203 837 LINE",
"203 778 LINE"
);
}
);
width = 780;
}
);
leftKerningGroup = A;
note = Amacron;
rightKerningGroup = A;
unicode = 0100;
},
{
glyphname = Aogonek;
lastChange = "2015-10-12 08:28:12 +0000";
layers = (
{
layerId = "66DA30A5-A5D3-4FBB-AA06-F397B31B18DC";
name = Bold;
paths = (
{
closed = 1;
nodes = (
"245 0 LINE",
"245 37 LINE",
"224 37 LINE SMOOTH",
"197 37 OFFCURVE",
"170 52 OFFCURVE",
"183 87 CURVE SMOOTH",
"357 550 LINE",
"523 96 LINE SMOOTH",
"537 57 OFFCURVE",
"533 37 OFFCURVE",
"489 37 CURVE SMOOTH",
"469 37 LINE",
"469 0 LINE",
"775 0 LINE",
"775 37 LINE",
"754 37 LINE SMOOTH",
"732 37 OFFCURVE",
"708 47 OFFCURVE",
"698 72 CURVE SMOOTH",
"440 721 LINE",
"326 680 LINE",
"88 74 LINE SMOOTH",
"78 49 OFFCURVE",
"46 37 OFFCURVE",
"20 37 CURVE SMOOTH",
"4 37 LINE",
"4 0 LINE"
);
},
{
closed = 1;
nodes = (
"532 192 LINE",
"532 246 LINE",
"197 246 LINE",
"197 192 LINE"
);
},
{
closed = 1;
nodes = (
"732 -220 OFFCURVE",
"769 -209 OFFCURVE",
"800 -185 CURVE",
"789 -161 LINE",
"775 -168 OFFCURVE",
"755 -173 OFFCURVE",
"741 -173 CURVE SMOOTH",
"707 -173 OFFCURVE",
"681 -154 OFFCURVE",
"681 -113 CURVE SMOOTH",
"681 -72 OFFCURVE",
"705 -30 OFFCURVE",
"756 8 CURVE",
"702 8 LINE",
"642 -23 OFFCURVE",
"592 -72 OFFCURVE",
"592 -127 CURVE SMOOTH",
"592 -163 OFFCURVE",
"613 -220 OFFCURVE",
"703 -220 CURVE SMOOTH"
);
}
);
width = 780;
}
);
leftKerningGroup = A;
note = Aogonek;
rightKerningGroup = A;
unicode = 0104;
},
{
glyphname = Aring;
lastChange = "2015-10-12 08:28:12 +0000";
layers = (
{
layerId = "66DA30A5-A5D3-4FBB-AA06-F397B31B18DC";
name = Bold;
paths = (
{
closed = 1;
nodes = (
"245 0 LINE",
"245 37 LINE",
"224 37 LINE SMOOTH",
"197 37 OFFCURVE",
"170 52 OFFCURVE",
"183 87 CURVE SMOOTH",
"357 550 LINE",
"523 96 LINE SMOOTH",
"537 57 OFFCURVE",
"533 37 OFFCURVE",
"489 37 CURVE SMOOTH",
"469 37 LINE",
"469 0 LINE",
"775 0 LINE",
"775 37 LINE",
"754 37 LINE SMOOTH",
"732 37 OFFCURVE",
"708 47 OFFCURVE",
"698 72 CURVE SMOOTH",
"440 721 LINE",
"326 680 LINE",
"88 74 LINE SMOOTH",
"78 49 OFFCURVE",
"46 37 OFFCURVE",
"20 37 CURVE SMOOTH",
"4 37 LINE",
"4 0 LINE"
);
},
{
closed = 1;
nodes = (
"532 192 LINE",
"532 246 LINE",
"197 246 LINE",
"197 192 LINE"
);
},
{
closed = 1;
nodes = (
"454 746 OFFCURVE",
"497 787 OFFCURVE",
"497 847 CURVE SMOOTH",
"497 908 OFFCURVE",
"454 949 OFFCURVE",
"390 949 CURVE SMOOTH",
"325 949 OFFCURVE",
"281 908 OFFCURVE",
"281 847 CURVE SMOOTH",
"281 787 OFFCURVE",
"325 746 OFFCURVE",
"390 746 CURVE SMOOTH"
);
},
{
closed = 1;
nodes = (
"360 795 OFFCURVE",
"337 816 OFFCURVE",
"337 847 CURVE SMOOTH",
"337 879 OFFCURVE",
"360 899 OFFCURVE",
"390 899 CURVE SMOOTH",
"419 899 OFFCURVE",
"443 879 OFFCURVE",
"443 847 CURVE SMOOTH",
"443 816 OFFCURVE",
"419 795 OFFCURVE",
"390 795 CURVE SMOOTH"
);
}
);
width = 780;
}
);
leftKerningGroup = A;
note = Aring;
rightKerningGroup = A;
unicode = 00C5;
},
{
glyphname = Aringacute;
lastChange = "2015-10-12 08:28:13 +0000";
layers = (
{
layerId = "66DA30A5-A5D3-4FBB-AA06-F397B31B18DC";
name = Bold;
paths = (
{
closed = 1;
nodes = (
"245 0 LINE",
"245 37 LINE",
"224 37 LINE SMOOTH",
"197 37 OFFCURVE",
"170 52 OFFCURVE",
"183 87 CURVE SMOOTH",
"357 550 LINE",
"523 96 LINE SMOOTH",
"537 57 OFFCURVE",
"533 37 OFFCURVE",
"489 37 CURVE SMOOTH",
"469 37 LINE",
"469 0 LINE",
"775 0 LINE",
"775 37 LINE",
"754 37 LINE SMOOTH",
"732 37 OFFCURVE",
"708 47 OFFCURVE",
"698 72 CURVE SMOOTH",
"440 721 LINE",
"326 680 LINE",
"88 74 LINE SMOOTH",
"78 49 OFFCURVE",
"46 37 OFFCURVE",
"20 37 CURVE SMOOTH",
"4 37 LINE",
"4 0 LINE"
);
},
{
closed = 1;
nodes = (
"532 192 LINE",
"532 246 LINE",
"197 246 LINE",
"197 192 LINE"
);
},
{
closed = 1;
nodes = (
"454 746 OFFCURVE",
"497 787 OFFCURVE",
"497 847 CURVE SMOOTH",
"497 908 OFFCURVE",
"454 949 OFFCURVE",
"390 949 CURVE SMOOTH",
"325 949 OFFCURVE",
"281 908 OFFCURVE",
"281 847 CURVE SMOOTH",
"281 787 OFFCURVE",
"325 746 OFFCURVE",
"390 746 CURVE SMOOTH"
);
},
{
closed = 1;
nodes = (
"360 795 OFFCURVE",
"337 816 OFFCURVE",
"337 847 CURVE SMOOTH",
"337 879 OFFCURVE",
"360 899 OFFCURVE",
"390 899 CURVE SMOOTH",
"419 899 OFFCURVE",
"443 879 OFFCURVE",
"443 847 CURVE SMOOTH",
"443 816 OFFCURVE",
"419 795 OFFCURVE",
"390 795 CURVE SMOOTH"
);
},
{
closed = 1;
nodes = (
"460 1066 LINE SMOOTH",
"490 1084 OFFCURVE",
"508 1102 OFFCURVE",
"508 1125 CURVE SMOOTH",
"508 1145 OFFCURVE",
"493 1168 OFFCURVE",
"459 1168 CURVE SMOOTH",
"428 1168 OFFCURVE",
"405 1143 OFFCURVE",
"398 1135 CURVE",
"276 1012 LINE",
"303 974 LINE"
);
}
);
width = 780;
}
);
leftKerningGroup = A;
note = Aringacute;
rightKerningGroup = A;
unicode = 01FA;
},
{
glyphname = Atilde;
lastChange = "2015-10-12 08:28:13 +0000";
layers = (
{
layerId = "66DA30A5-A5D3-4FBB-AA06-F397B31B18DC";
name = Bold;
paths = (
{
closed = 1;
nodes = (
"245 0 LINE",
"245 37 LINE",
"224 37 LINE SMOOTH",
"197 37 OFFCURVE",
"170 52 OFFCURVE",
"183 87 CURVE SMOOTH",
"357 550 LINE",
"523 96 LINE SMOOTH",
"537 57 OFFCURVE",
"533 37 OFFCURVE",
"489 37 CURVE SMOOTH",
"469 37 LINE",
"469 0 LINE",
"775 0 LINE",
"775 37 LINE",
"754 37 LINE SMOOTH",
"732 37 OFFCURVE",
"708 47 OFFCURVE",
"698 72 CURVE SMOOTH",
"440 721 LINE",
"326 680 LINE",
"88 74 LINE SMOOTH",
"78 49 OFFCURVE",
"46 37 OFFCURVE",
"20 37 CURVE SMOOTH",
"4 37 LINE",
"4 0 LINE"
);
},
{
closed = 1;
nodes = (
"532 192 LINE",
"532 246 LINE",
"197 246 LINE",
"197 192 LINE"
);
},
{
closed = 1;
nodes = (
"250 814 OFFCURVE",
"267 833 OFFCURVE",
"303 833 CURVE SMOOTH",
"362 833 OFFCURVE",
"416 784 OFFCURVE",
"474 784 CURVE SMOOTH",
"545 784 OFFCURVE",
"578 849 OFFCURVE",
"594 897 CURVE",
"566 912 LINE",
"547 872 OFFCURVE",
"531 853 OFFCURVE",
"494 853 CURVE SMOOTH",
"436 853 OFFCURVE",
"381 901 OFFCURVE",
"323 901 CURVE SMOOTH",
"254 901 OFFCURVE",
"219 838 OFFCURVE",
"203 790 CURVE",
"231 775 LINE"
);
}
);
width = 780;
}
);
leftKerningGroup = A;
note = Atilde;
rightKerningGroup = A;
unicode = 00C3;
},
{
glyphname = AE;
lastChange = "2015-10-12 08:28:13 +0000";
layers = (
{
layerId = "66DA30A5-A5D3-4FBB-AA06-F397B31B18DC";
name = Bold;
paths = (
{
closed = 1;
nodes = (
"254 0 LINE",
"254 37 LINE",
"233 37 LINE SMOOTH",
"190 37 OFFCURVE",
"183 67 OFFCURVE",
"200 98 CURVE SMOOTH",
"253 192 LINE",
"482 192 LINE",
"482 75 LINE SMOOTH",
"482 49 OFFCURVE",
"462 37 OFFCURVE",
"428 37 CURVE SMOOTH",
"400 37 LINE",
"400 0 LINE",
"969 0 LINE",
"989 191 LINE",
"951 191 LINE",
"942 126 OFFCURVE",
"922 54 OFFCURVE",
"853 54 CURVE SMOOTH",
"635 54 LINE",
"635 337 LINE",
"776 337 LINE SMOOTH",
"821 337 OFFCURVE",
"825 291 OFFCURVE",
"829 245 CURVE",
"861 245 LINE",
"861 484 LINE",
"829 484 LINE",
"825 438 OFFCURVE",
"821 392 OFFCURVE",
"776 392 CURVE SMOOTH",
"635 392 LINE",
"635 645 LINE",
"828 645 LINE SMOOTH",
"918 645 OFFCURVE",
"929 551 OFFCURVE",
"933 511 CURVE",
"970 511 LINE",
"970 700 LINE",
"386 700 LINE",
"386 662 LINE",
"418 662 LINE SMOOTH",
"434 662 OFFCURVE",
"436 644 OFFCURVE",
"430 634 CURVE SMOOTH",
"105 87 LINE SMOOTH",
"89 60 OFFCURVE",
"65 37 OFFCURVE",
"30 37 CURVE SMOOTH",
"14 37 LINE",
"14 0 LINE"
);
},
{
closed = 1;
nodes = (
"482 581 LINE",
"482 246 LINE",
"285 246 LINE"
);
}
);
width = 1022;
}
);
leftKerningGroup = A;
note = AE;
unicode = 00C6;
},
{
glyphname = AEacute;
lastChange = "2015-10-12 08:28:13 +0000";
layers = (
{
layerId = "66DA30A5-A5D3-4FBB-AA06-F397B31B18DC";
name = Bold;
paths = (
{
closed = 1;
nodes = (
"254 0 LINE",
"254 37 LINE",
"233 37 LINE SMOOTH",
"190 37 OFFCURVE",
"183 67 OFFCURVE",
"200 98 CURVE SMOOTH",
"253 192 LINE",
"482 192 LINE",
"482 75 LINE SMOOTH",
"482 49 OFFCURVE",
"462 37 OFFCURVE",
"428 37 CURVE SMOOTH",
"400 37 LINE",
"400 0 LINE",
"969 0 LINE",
"989 191 LINE",
"951 191 LINE",
"942 126 OFFCURVE",
"922 54 OFFCURVE",
"853 54 CURVE SMOOTH",
"635 54 LINE",
"635 337 LINE",
"776 337 LINE SMOOTH",
"821 337 OFFCURVE",
"825 291 OFFCURVE",
"829 245 CURVE",
"861 245 LINE",
"861 484 LINE",
"829 484 LINE",
"825 438 OFFCURVE",
"821 392 OFFCURVE",
"776 392 CURVE SMOOTH",
"635 392 LINE",
"635 645 LINE",
"828 645 LINE SMOOTH",
"918 645 OFFCURVE",
"929 551 OFFCURVE",
"933 511 CURVE",
"970 511 LINE",
"970 700 LINE",
"386 700 LINE",
"386 662 LINE",
"418 662 LINE SMOOTH",
"434 662 OFFCURVE",
"436 644 OFFCURVE",
"430 634 CURVE SMOOTH",
"105 87 LINE SMOOTH",
"89 60 OFFCURVE",
"65 37 OFFCURVE",
"30 37 CURVE SMOOTH",
"14 37 LINE",
"14 0 LINE"
);
},
{
closed = 1;
nodes = (
"482 581 LINE",
"482 246 LINE",
"285 246 LINE"
);
},
{
closed = 1;
nodes = (
"777 869 LINE SMOOTH",
"807 887 OFFCURVE",
"825 905 OFFCURVE",
"825 928 CURVE SMOOTH",
"825 948 OFFCURVE",
"810 971 OFFCURVE",
"776 971 CURVE SMOOTH",
"745 971 OFFCURVE",
"722 946 OFFCURVE",
"715 938 CURVE",
"593 815 LINE",
"620 777 LINE"
);
}
);
width = 1022;
}
);
leftKerningGroup = A;
note = AEacute;
unicode = 01FC;
},
{
glyphname = B;
lastChange = "2015-10-12 08:28:12 +0000";
layers = (
{
layerId = "66DA30A5-A5D3-4FBB-AA06-F397B31B18DC";
name = Bold;
paths = (
{
closed = 1;
nodes = (
"392 0 LINE SMOOTH",
"562 0 OFFCURVE",
"632 74 OFFCURVE",
"632 192 CURVE SMOOTH",
"632 261 OFFCURVE",
"596 345 OFFCURVE",
"459 370 CURVE",
"546 391 OFFCURVE",
"592 460 OFFCURVE",
"592 534 CURVE SMOOTH",
"592 641 OFFCURVE",
"524 700 OFFCURVE",
"357 700 CURVE SMOOTH",
"14 700 LINE",
"14 662 LINE",
"45 662 LINE SMOOTH",
"83 662 OFFCURVE",
"101 650 OFFCURVE",
"101 624 CURVE SMOOTH",
"101 75 LINE SMOOTH",
"101 49 OFFCURVE",
"83 37 OFFCURVE",
"45 37 CURVE SMOOTH",
"14 37 LINE",
"14 0 LINE"
);
},
{
closed = 1;
nodes = (
"254 340 LINE",
"327 340 LINE SMOOTH",
"430 340 OFFCURVE",
"480 295 OFFCURVE",
"480 199 CURVE SMOOTH",
"480 106 OFFCURVE",
"434 54 OFFCURVE",
"344 54 CURVE SMOOTH",
"254 54 LINE"
);
},
{
closed = 1;
nodes = (
"254 645 LINE",
"317 645 LINE SMOOTH",
"398 645 OFFCURVE",
"439 608 OFFCURVE",
"439 527 CURVE SMOOTH",
"439 448 OFFCURVE",
"399 393 OFFCURVE",
"326 393 CURVE SMOOTH",
"254 393 LINE"
);
}
);
width = 656;
}
);
note = B;
unicode = 0042;
},
{
glyphname = C;
lastChange = "2015-10-12 08:28:11 +0000";
layers = (
{
layerId = "66DA30A5-A5D3-4FBB-AA06-F397B31B18DC";
name = Bold;
paths = (
{
closed = 1;
nodes = (
"547 -10 OFFCURVE",
"650 68 OFFCURVE",
"674 173 CURVE",
"620 173 LINE",
"581 76 OFFCURVE",
"489 46 OFFCURVE",
"407 46 CURVE SMOOTH",
"264 46 OFFCURVE",
"191 162 OFFCURVE",
"191 350 CURVE SMOOTH",
"191 537 OFFCURVE",
"277 653 OFFCURVE",
"422 653 CURVE SMOOTH",
"513 653 OFFCURVE",
"603 609 OFFCURVE",
"617 499 CURVE",
"660 499 LINE",
"660 705 LINE",
"609 705 LINE",
"609 660 LINE SMOOTH",
"609 651 OFFCURVE",
"605 648 OFFCURVE",
"601 648 CURVE SMOOTH",
"597 648 OFFCURVE",
"593 651 OFFCURVE",
"592 652 CURVE",
"554 677 OFFCURVE",
"487 710 OFFCURVE",
"388 710 CURVE SMOOTH",
"157 710 OFFCURVE",
"36 568 OFFCURVE",
"36 350 CURVE SMOOTH",
"36 131 OFFCURVE",
"153 -10 OFFCURVE",
"387 -10 CURVE SMOOTH"
);
}
);
width = 705;
}
);
leftKerningGroup = C;
note = C;
unicode = 0043;
},
{
glyphname = Cacute;
lastChange = "2015-10-12 08:28:13 +0000";
layers = (
{
layerId = "66DA30A5-A5D3-4FBB-AA06-F397B31B18DC";
name = Bold;
paths = (
{
closed = 1;
nodes = (
"547 -10 OFFCURVE",
"650 68 OFFCURVE",
"674 173 CURVE",
"620 173 LINE",
"581 76 OFFCURVE",
"489 46 OFFCURVE",
"407 46 CURVE SMOOTH",
"264 46 OFFCURVE",
"191 162 OFFCURVE",
"191 350 CURVE SMOOTH",
"191 537 OFFCURVE",
"277 653 OFFCURVE",
"422 653 CURVE SMOOTH",
"513 653 OFFCURVE",
"603 609 OFFCURVE",
"617 499 CURVE",
"660 499 LINE",
"660 705 LINE",
"609 705 LINE",
"609 660 LINE SMOOTH",
"609 651 OFFCURVE",
"605 648 OFFCURVE",
"601 648 CURVE SMOOTH",
"597 648 OFFCURVE",
"593 651 OFFCURVE",
"592 652 CURVE",
"554 677 OFFCURVE",
"487 710 OFFCURVE",
"388 710 CURVE SMOOTH",
"157 710 OFFCURVE",
"36 568 OFFCURVE",
"36 350 CURVE SMOOTH",
"36 131 OFFCURVE",
"153 -10 OFFCURVE",
"387 -10 CURVE SMOOTH"
);
},
{
closed = 1;
nodes = (
"493 869 LINE SMOOTH",
"523 887 OFFCURVE",
"541 905 OFFCURVE",
"541 928 CURVE SMOOTH",
"541 948 OFFCURVE",
"526 971 OFFCURVE",
"492 971 CURVE SMOOTH",
"461 971 OFFCURVE",
"438 946 OFFCURVE",
"431 938 CURVE",
"309 815 LINE",
"336 777 LINE"
);
}
);
width = 705;
}
);
leftKerningGroup = C;
note = Cacute;
unicode = 0106;
},
{
glyphname = Ccaron;
lastChange = "2015-10-12 08:28:13 +0000";
layers = (
{
layerId = "66DA30A5-A5D3-4FBB-AA06-F397B31B18DC";
name = Bold;
paths = (
{
closed = 1;
nodes = (
"547 -10 OFFCURVE",
"650 68 OFFCURVE",
"674 173 CURVE",
"620 173 LINE",
"581 76 OFFCURVE",
"489 46 OFFCURVE",
"407 46 CURVE SMOOTH",
"264 46 OFFCURVE",
"191 162 OFFCURVE",
"191 350 CURVE SMOOTH",
"191 537 OFFCURVE",
"277 653 OFFCURVE",
"422 653 CURVE SMOOTH",
"513 653 OFFCURVE",
"603 609 OFFCURVE",
"617 499 CURVE",
"660 499 LINE",
"660 705 LINE",
"609 705 LINE",
"609 660 LINE SMOOTH",
"609 651 OFFCURVE",
"605 648 OFFCURVE",
"601 648 CURVE SMOOTH",
"597 648 OFFCURVE",
"593 651 OFFCURVE",
"592 652 CURVE",
"554 677 OFFCURVE",
"487 710 OFFCURVE",
"388 710 CURVE SMOOTH",
"157 710 OFFCURVE",
"36 568 OFFCURVE",
"36 350 CURVE SMOOTH",
"36 131 OFFCURVE",
"153 -10 OFFCURVE",
"387 -10 CURVE SMOOTH"
);
},
{
closed = 1;
nodes = (
"439 778 LINE",
"584 935 LINE",
"560 961 LINE",
"435 866 LINE SMOOTH",
"423 857 OFFCURVE",
"411 850 OFFCURVE",
"402 850 CURVE SMOOTH",
"393 850 OFFCURVE",
"381 857 OFFCURVE",
"368 866 CURVE",
"243 961 LINE",
"219 935 LINE",
"364 778 LINE"
);
}
);
width = 705;
}
);
leftKerningGroup = C;
note = Ccaron;
unicode = 010C;
},
{
glyphname = Ccedilla;
lastChange = "2015-10-12 08:28:12 +0000";
layers = (
{
layerId = "66DA30A5-A5D3-4FBB-AA06-F397B31B18DC";
name = Bold;
paths = (
{
closed = 1;
nodes = (
"547 -10 OFFCURVE",
"650 68 OFFCURVE",
"674 173 CURVE",
"620 173 LINE",
"581 76 OFFCURVE",
"489 46 OFFCURVE",
"407 46 CURVE SMOOTH",
"264 46 OFFCURVE",
"191 162 OFFCURVE",
"191 350 CURVE SMOOTH",
"191 537 OFFCURVE",
"277 653 OFFCURVE",
"422 653 CURVE SMOOTH",
"513 653 OFFCURVE",
"603 609 OFFCURVE",
"617 499 CURVE",
"660 499 LINE",
"660 705 LINE",
"609 705 LINE",
"609 660 LINE SMOOTH",
"609 651 OFFCURVE",
"605 648 OFFCURVE",
"601 648 CURVE SMOOTH",
"597 648 OFFCURVE",
"593 651 OFFCURVE",
"592 652 CURVE",
"554 677 OFFCURVE",
"487 710 OFFCURVE",
"388 710 CURVE SMOOTH",
"157 710 OFFCURVE",
"36 568 OFFCURVE",
"36 350 CURVE SMOOTH",
"36 131 OFFCURVE",
"153 -10 OFFCURVE",
"387 -10 CURVE SMOOTH"
);
},
{
closed = 1;
nodes = (
"393 -242 OFFCURVE",
"498 -231 OFFCURVE",
"498 -136 CURVE SMOOTH",
"498 -70 OFFCURVE",
"425 -50 OFFCURVE",
"387 -48 CURVE",
"428 20 LINE",
"372 20 LINE",
"310 -80 LINE",
"318 -92 LINE",
"340 -92 OFFCURVE",
"405 -102 OFFCURVE",
"405 -142 CURVE SMOOTH",
"405 -189 OFFCURVE",
"358 -204 OFFCURVE",
"301 -204 CURVE SMOOTH",
"294 -204 OFFCURVE",
"288 -203 OFFCURVE",
"281 -202 CURVE",
"279 -237 LINE",
"297 -240 OFFCURVE",
"312 -242 OFFCURVE",
"334 -242 CURVE SMOOTH"
);
}
);
width = 705;
}
);
leftKerningGroup = C;
note = Ccedilla;
unicode = 00C7;
},
{
glyphname = Ccircumflex;
lastChange = "2015-10-12 08:28:12 +0000";
layers = (
{
layerId = "66DA30A5-A5D3-4FBB-AA06-F397B31B18DC";
name = Bold;
paths = (
{
closed = 1;
nodes = (
"547 -10 OFFCURVE",
"650 68 OFFCURVE",
"674 173 CURVE",
"620 173 LINE",
"581 76 OFFCURVE",
"489 46 OFFCURVE",
"407 46 CURVE SMOOTH",
"264 46 OFFCURVE",
"191 162 OFFCURVE",
"191 350 CURVE SMOOTH",
"191 537 OFFCURVE",
"277 653 OFFCURVE",
"422 653 CURVE SMOOTH",
"513 653 OFFCURVE",
"603 609 OFFCURVE",
"617 499 CURVE",
"660 499 LINE",
"660 705 LINE",
"609 705 LINE",
"609 660 LINE SMOOTH",
"609 651 OFFCURVE",
"605 648 OFFCURVE",
"601 648 CURVE SMOOTH",
"597 648 OFFCURVE",
"593 651 OFFCURVE",
"592 652 CURVE",
"554 677 OFFCURVE",
"487 710 OFFCURVE",
"388 710 CURVE SMOOTH",
"157 710 OFFCURVE",
"36 568 OFFCURVE",
"36 350 CURVE SMOOTH",
"36 131 OFFCURVE",
"153 -10 OFFCURVE",
"387 -10 CURVE SMOOTH"
);
},
{
closed = 1;
nodes = (
"366 873 LINE SMOOTH",
"378 882 OFFCURVE",
"391 889 OFFCURVE",
"400 889 CURVE SMOOTH",
"409 889 OFFCURVE",
"421 882 OFFCURVE",
"433 873 CURVE SMOOTH",
"558 778 LINE",
"582 804 LINE",
"437 961 LINE",
"362 961 LINE",
"217 804 LINE",
"241 778 LINE"
);
}
);
width = 705;
}
);
leftKerningGroup = C;
note = Ccircumflex;
unicode = 0108;
},
{
glyphname = Cdotaccent;
lastChange = "2015-10-12 08:28:13 +0000";
layers = (
{
layerId = "66DA30A5-A5D3-4FBB-AA06-F397B31B18DC";
name = Bold;
paths = (
{
closed = 1;
nodes = (
"547 -10 OFFCURVE",
"650 68 OFFCURVE",
"674 173 CURVE",
"620 173 LINE",
"581 76 OFFCURVE",
"489 46 OFFCURVE",
"407 46 CURVE SMOOTH",
"264 46 OFFCURVE",
"191 162 OFFCURVE",
"191 350 CURVE SMOOTH",
"191 537 OFFCURVE",
"277 653 OFFCURVE",
"422 653 CURVE SMOOTH",
"513 653 OFFCURVE",
"603 609 OFFCURVE",
"617 499 CURVE",
"660 499 LINE",
"660 705 LINE",
"609 705 LINE",
"609 660 LINE SMOOTH",
"609 651 OFFCURVE",
"605 648 OFFCURVE",
"601 648 CURVE SMOOTH",
"597 648 OFFCURVE",
"593 651 OFFCURVE",
"592 652 CURVE",
"554 677 OFFCURVE",
"487 710 OFFCURVE",
"388 710 CURVE SMOOTH",
"157 710 OFFCURVE",
"36 568 OFFCURVE",
"36 350 CURVE SMOOTH",
"36 131 OFFCURVE",
"153 -10 OFFCURVE",
"387 -10 CURVE SMOOTH"
);
},
{
closed = 1;
nodes = (
"446 770 OFFCURVE",
"470 796 OFFCURVE",
"470 830 CURVE SMOOTH",
"470 865 OFFCURVE",
"446 892 OFFCURVE",
"409 892 CURVE SMOOTH",
"371 892 OFFCURVE",
"348 865 OFFCURVE",
"348 830 CURVE SMOOTH",
"348 796 OFFCURVE",
"371 770 OFFCURVE",
"409 770 CURVE SMOOTH"
);
}
);
width = 705;
}
);
leftKerningGroup = C;
note = Cdotaccent;
unicode = 010A;
},
{
glyphname = D;
lastChange = "2015-10-12 08:28:13 +0000";
layers = (
{
layerId = "66DA30A5-A5D3-4FBB-AA06-F397B31B18DC";
name = Bold;
paths = (
{
closed = 1;
nodes = (
"356 0 LINE SMOOTH",
"590 0 OFFCURVE",
"698 117 OFFCURVE",
"698 350 CURVE SMOOTH",
"698 580 OFFCURVE",
"591 700 OFFCURVE",
"357 700 CURVE SMOOTH",
"13 700 LINE",
"13 662 LINE",
"44 662 LINE SMOOTH",
"82 662 OFFCURVE",
"100 650 OFFCURVE",
"100 624 CURVE SMOOTH",
"100 75 LINE SMOOTH",
"100 49 OFFCURVE",
"82 37 OFFCURVE",
"44 37 CURVE SMOOTH",
"13 37 LINE",
"13 0 LINE"
);
},
{
closed = 1;
nodes = (
"253 646 LINE",
"356 646 LINE SMOOTH",
"479 646 OFFCURVE",
"543 540 OFFCURVE",
"543 350 CURVE SMOOTH",
"543 157 OFFCURVE",
"476 53 OFFCURVE",
"354 53 CURVE SMOOTH",
"253 53 LINE"
);
}
);
width = 739;
}
);
note = D;
rightKerningGroup = D;
unicode = 0044;
},
{
glyphname = Dcaron;
lastChange = "2015-10-12 08:28:13 +0000";
layers = (
{
layerId = "66DA30A5-A5D3-4FBB-AA06-F397B31B18DC";
name = Bold;
paths = (
{
closed = 1;
nodes = (
"356 0 LINE SMOOTH",
"590 0 OFFCURVE",
"698 117 OFFCURVE",
"698 350 CURVE SMOOTH",
"698 580 OFFCURVE",
"591 700 OFFCURVE",
"357 700 CURVE SMOOTH",
"13 700 LINE",
"13 662 LINE",
"44 662 LINE SMOOTH",
"82 662 OFFCURVE",
"100 650 OFFCURVE",
"100 624 CURVE SMOOTH",
"100 75 LINE SMOOTH",
"100 49 OFFCURVE",
"82 37 OFFCURVE",
"44 37 CURVE SMOOTH",
"13 37 LINE",
"13 0 LINE"
);
},
{
closed = 1;
nodes = (
"253 646 LINE",
"356 646 LINE SMOOTH",
"479 646 OFFCURVE",
"543 540 OFFCURVE",
"543 350 CURVE SMOOTH",
"543 157 OFFCURVE",
"476 53 OFFCURVE",
"354 53 CURVE SMOOTH",
"253 53 LINE"
);
},
{
closed = 1;
nodes = (
"379 786 LINE",
"524 943 LINE",
"500 969 LINE",
"375 874 LINE SMOOTH",
"363 865 OFFCURVE",
"351 858 OFFCURVE",
"342 858 CURVE SMOOTH",
"333 858 OFFCURVE",
"321 865 OFFCURVE",
"308 874 CURVE",
"183 969 LINE",
"159 943 LINE",
"304 786 LINE"
);
}
);
width = 739;
}
);
note = Dcaron;
rightKerningGroup = D;
unicode = 010E;
},
{
glyphname = Dcroat;
lastChange = "2015-10-12 08:28:13 +0000";
layers = (
{
layerId = "66DA30A5-A5D3-4FBB-AA06-F397B31B18DC";
name = Bold;
paths = (
{
closed = 1;
nodes = (
"356 0 LINE SMOOTH",
"590 0 OFFCURVE",
"698 117 OFFCURVE",
"698 350 CURVE SMOOTH",
"698 580 OFFCURVE",
"591 700 OFFCURVE",
"357 700 CURVE SMOOTH",
"13 700 LINE",
"13 662 LINE",
"44 662 LINE SMOOTH",
"82 662 OFFCURVE",
"100 650 OFFCURVE",
"100 624 CURVE SMOOTH",
"100 75 LINE SMOOTH",
"100 49 OFFCURVE",
"82 37 OFFCURVE",
"44 37 CURVE SMOOTH",
"13 37 LINE",
"13 0 LINE"
);
},
{
closed = 1;
nodes = (
"450 309 LINE",
"450 375 LINE",
"19 375 LINE",
"19 309 LINE"
);
},
{
closed = 1;
nodes = (
"253 646 LINE",
"356 646 LINE SMOOTH",
"479 646 OFFCURVE",
"543 540 OFFCURVE",
"543 350 CURVE SMOOTH",
"543 157 OFFCURVE",
"476 53 OFFCURVE",
"354 53 CURVE SMOOTH",
"253 53 LINE"
);
}
);
width = 739;
}
);
note = Dcroat;
rightKerningGroup = D;
unicode = 0110;
},
{
glyphname = Ddotbelow;
lastChange = "2015-10-12 08:28:13 +0000";
layers = (
{
layerId = "66DA30A5-A5D3-4FBB-AA06-F397B31B18DC";
name = Bold;
paths = (
{
closed = 1;
nodes = (
"356 0 LINE SMOOTH",
"590 0 OFFCURVE",
"698 117 OFFCURVE",
"698 350 CURVE SMOOTH",
"698 580 OFFCURVE",
"591 700 OFFCURVE",
"357 700 CURVE SMOOTH",
"13 700 LINE",
"13 662 LINE",
"44 662 LINE SMOOTH",
"82 662 OFFCURVE",
"100 650 OFFCURVE",
"100 624 CURVE SMOOTH",
"100 75 LINE SMOOTH",
"100 49 OFFCURVE",
"82 37 OFFCURVE",
"44 37 CURVE SMOOTH",
"13 37 LINE",
"13 0 LINE"
);
},
{
closed = 1;
nodes = (
"393 -188 OFFCURVE",
"417 -161 OFFCURVE",
"417 -127 CURVE SMOOTH",
"417 -92 OFFCURVE",
"393 -64 OFFCURVE",
"356 -64 CURVE SMOOTH",
"318 -64 OFFCURVE",
"294 -92 OFFCURVE",
"294 -127 CURVE SMOOTH",
"294 -161 OFFCURVE",
"318 -188 OFFCURVE",
"356 -188 CURVE SMOOTH"
);
},
{
closed = 1;
nodes = (
"253 646 LINE",
"356 646 LINE SMOOTH",
"479 646 OFFCURVE",
"543 540 OFFCURVE",
"543 350 CURVE SMOOTH",
"543 157 OFFCURVE",
"476 53 OFFCURVE",
"354 53 CURVE SMOOTH",
"253 53 LINE"
);
}
);
width = 739;
}
);
note = Ddotbelow;
rightKerningGroup = D;
unicode = 1E0C;
},
{
glyphname = Dlinebelow;
lastChange = "2015-10-12 08:28:12 +0000";
layers = (
{
layerId = "66DA30A5-A5D3-4FBB-AA06-F397B31B18DC";
name = Bold;
paths = (
{
closed = 1;
nodes = (
"356 0 LINE SMOOTH",
"590 0 OFFCURVE",
"698 117 OFFCURVE",
"698 350 CURVE SMOOTH",
"698 580 OFFCURVE",
"591 700 OFFCURVE",
"357 700 CURVE SMOOTH",
"13 700 LINE",
"13 662 LINE",
"44 662 LINE SMOOTH",
"82 662 OFFCURVE",
"100 650 OFFCURVE",
"100 624 CURVE SMOOTH",
"100 75 LINE SMOOTH",
"100 49 OFFCURVE",
"82 37 OFFCURVE",
"44 37 CURVE SMOOTH",
"13 37 LINE",
"13 0 LINE"
);
},
{
closed = 1;
nodes = (
"539 -120 LINE",
"539 -68 LINE",
"158 -68 LINE",
"158 -120 LINE"
);
},
{
closed = 1;
nodes = (
"253 646 LINE",
"356 646 LINE SMOOTH",
"479 646 OFFCURVE",
"543 540 OFFCURVE",
"543 350 CURVE SMOOTH",
"543 157 OFFCURVE",
"476 53 OFFCURVE",
"354 53 CURVE SMOOTH",
"253 53 LINE"
);
}
);
width = 739;
}
);
note = Dlinebelow;
rightKerningGroup = D;
unicode = 1E0E;
},
{
glyphname = E;
lastChange = "2015-10-12 08:28:13 +0000";
layers = (
{
layerId = "66DA30A5-A5D3-4FBB-AA06-F397B31B18DC";
name = Bold;
paths = (
{
closed = 1;
nodes = (
"596 0 LINE",
"616 191 LINE",
"578 191 LINE",
"569 126 OFFCURVE",
"549 54 OFFCURVE",
"480 54 CURVE SMOOTH",
"252 54 LINE",
"252 645 LINE",
"458 645 LINE SMOOTH",
"545 645 OFFCURVE",
"556 549 OFFCURVE",
"559 511 CURVE",
"597 511 LINE",
"597 700 LINE",
"13 700 LINE",
"13 662 LINE",
"43 662 LINE SMOOTH",
"82 662 OFFCURVE",
"99 650 OFFCURVE",
"99 624 CURVE SMOOTH",
"99 75 LINE SMOOTH",
"99 49 OFFCURVE",
"82 37 OFFCURVE",
"43 37 CURVE SMOOTH",
"13 37 LINE",
"13 0 LINE"
);
},
{
closed = 1;
nodes = (
"486 245 LINE",
"486 484 LINE",
"455 484 LINE",
"451 438 OFFCURVE",
"446 392 OFFCURVE",
"401 392 CURVE SMOOTH",
"191 392 LINE",
"191 337 LINE",
"401 337 LINE SMOOTH",
"446 337 OFFCURVE",
"451 291 OFFCURVE",
"455 245 CURVE"
);
}
);
width = 649;
}
);
note = E;
unicode = 0045;
},
{
glyphname = Eacute;
lastChange = "2015-10-12 08:28:13 +0000";
layers = (
{
layerId = "66DA30A5-A5D3-4FBB-AA06-F397B31B18DC";
name = Bold;
paths = (
{
closed = 1;
nodes = (
"596 0 LINE",
"616 191 LINE",
"578 191 LINE",
"569 126 OFFCURVE",
"549 54 OFFCURVE",
"480 54 CURVE SMOOTH",
"252 54 LINE",
"252 645 LINE",
"458 645 LINE SMOOTH",
"545 645 OFFCURVE",
"556 549 OFFCURVE",
"559 511 CURVE",
"597 511 LINE",
"597 700 LINE",
"13 700 LINE",
"13 662 LINE",
"43 662 LINE SMOOTH",
"82 662 OFFCURVE",
"99 650 OFFCURVE",
"99 624 CURVE SMOOTH",
"99 75 LINE SMOOTH",
"99 49 OFFCURVE",
"82 37 OFFCURVE",
"43 37 CURVE SMOOTH",
"13 37 LINE",
"13 0 LINE"
);
},
{
closed = 1;
nodes = (
"486 245 LINE",
"486 484 LINE",
"455 484 LINE",
"451 438 OFFCURVE",
"446 392 OFFCURVE",
"401 392 CURVE SMOOTH",
"191 392 LINE",
"191 337 LINE",
"401 337 LINE SMOOTH",
"446 337 OFFCURVE",
"451 291 OFFCURVE",
"455 245 CURVE"
);
},
{
closed = 1;
nodes = (
"438 869 LINE SMOOTH",
"468 887 OFFCURVE",
"486 905 OFFCURVE",
"486 928 CURVE SMOOTH",
"486 948 OFFCURVE",
"471 971 OFFCURVE",
"437 971 CURVE SMOOTH",
"406 971 OFFCURVE",
"383 946 OFFCURVE",
"376 938 CURVE",
"254 815 LINE",
"281 777 LINE"
);
}
);
width = 649;
}
);
note = Eacute;
unicode = 00C9;
},
{
glyphname = Ebreve;
lastChange = "2015-10-12 08:28:13 +0000";
layers = (
{
layerId = "66DA30A5-A5D3-4FBB-AA06-F397B31B18DC";
name = Bold;
paths = (
{
closed = 1;
nodes = (
"596 0 LINE",
"616 191 LINE",
"578 191 LINE",
"569 126 OFFCURVE",
"549 54 OFFCURVE",
"480 54 CURVE SMOOTH",
"252 54 LINE",
"252 645 LINE",
"458 645 LINE SMOOTH",
"545 645 OFFCURVE",
"556 549 OFFCURVE",
"559 511 CURVE",
"597 511 LINE",
"597 700 LINE",
"13 700 LINE",
"13 662 LINE",
"43 662 LINE SMOOTH",
"82 662 OFFCURVE",
"99 650 OFFCURVE",
"99 624 CURVE SMOOTH",
"99 75 LINE SMOOTH",
"99 49 OFFCURVE",
"82 37 OFFCURVE",
"43 37 CURVE SMOOTH",
"13 37 LINE",
"13 0 LINE"
);
},
{
closed = 1;
nodes = (
"486 245 LINE",
"486 484 LINE",
"455 484 LINE",
"451 438 OFFCURVE",
"446 392 OFFCURVE",
"401 392 CURVE SMOOTH",
"191 392 LINE",
"191 337 LINE",
"401 337 LINE SMOOTH",
"446 337 OFFCURVE",
"451 291 OFFCURVE",
"455 245 CURVE"
);
},
{
closed = 1;
nodes = (
"488 776 OFFCURVE",
"522 849 OFFCURVE",
"524 922 CURVE",
"484 922 LINE",
"480 880 OFFCURVE",
"450 841 OFFCURVE",
"365 841 CURVE SMOOTH",
"280 841 OFFCURVE",
"248 880 OFFCURVE",
"243 922 CURVE",
"204 922 LINE",
"206 845 OFFCURVE",
"240 776 OFFCURVE",
"365 776 CURVE SMOOTH"
);
}
);
width = 649;
}
);
note = Ebreve;
unicode = 0114;
},
{
glyphname = Ecaron;
lastChange = "2015-10-12 08:28:13 +0000";
layers = (
{
layerId = "66DA30A5-A5D3-4FBB-AA06-F397B31B18DC";
name = Bold;
paths = (
{
closed = 1;
nodes = (
"596 0 LINE",
"616 191 LINE",
"578 191 LINE",
"569 126 OFFCURVE",
"549 54 OFFCURVE",
"480 54 CURVE SMOOTH",
"252 54 LINE",
"252 645 LINE",
"458 645 LINE SMOOTH",
"545 645 OFFCURVE",
"556 549 OFFCURVE",
"559 511 CURVE",
"597 511 LINE",
"597 700 LINE",
"13 700 LINE",
"13 662 LINE",
"43 662 LINE SMOOTH",
"82 662 OFFCURVE",
"99 650 OFFCURVE",
"99 624 CURVE SMOOTH",
"99 75 LINE SMOOTH",
"99 49 OFFCURVE",
"82 37 OFFCURVE",
"43 37 CURVE SMOOTH",
"13 37 LINE",
"13 0 LINE"
);
},
{
closed = 1;
nodes = (
"486 245 LINE",
"486 484 LINE",
"455 484 LINE",
"451 438 OFFCURVE",
"446 392 OFFCURVE",
"401 392 CURVE SMOOTH",
"191 392 LINE",
"191 337 LINE",
"401 337 LINE SMOOTH",
"446 337 OFFCURVE",
"451 291 OFFCURVE",
"455 245 CURVE"
);
},
{
closed = 1;
nodes = (
"399 778 LINE",
"544 935 LINE",
"520 961 LINE",
"395 866 LINE SMOOTH",
"383 857 OFFCURVE",
"371 850 OFFCURVE",
"362 850 CURVE SMOOTH",
"353 850 OFFCURVE",
"341 857 OFFCURVE",
"328 866 CURVE",
"203 961 LINE",
"179 935 LINE",
"324 778 LINE"
);
}
);
width = 649;
}
);
note = Ecaron;
unicode = 011A;
},
{
glyphname = Ecircumflex;
lastChange = "2015-10-12 08:28:12 +0000";
layers = (
{
layerId = "66DA30A5-A5D3-4FBB-AA06-F397B31B18DC";
name = Bold;
paths = (
{
closed = 1;
nodes = (
"596 0 LINE",
"616 191 LINE",
"578 191 LINE",
"569 126 OFFCURVE",
"549 54 OFFCURVE",
"480 54 CURVE SMOOTH",
"252 54 LINE",
"252 645 LINE",
"458 645 LINE SMOOTH",
"545 645 OFFCURVE",
"556 549 OFFCURVE",
"559 511 CURVE",
"597 511 LINE",
"597 700 LINE",
"13 700 LINE",
"13 662 LINE",
"43 662 LINE SMOOTH",
"82 662 OFFCURVE",
"99 650 OFFCURVE",
"99 624 CURVE SMOOTH",
"99 75 LINE SMOOTH",
"99 49 OFFCURVE",
"82 37 OFFCURVE",
"43 37 CURVE SMOOTH",
"13 37 LINE",
"13 0 LINE"
);
},
{
closed = 1;
nodes = (
"486 245 LINE",
"486 484 LINE",
"455 484 LINE",
"451 438 OFFCURVE",
"446 392 OFFCURVE",
"401 392 CURVE SMOOTH",
"191 392 LINE",
"191 337 LINE",
"401 337 LINE SMOOTH",
"446 337 OFFCURVE",
"451 291 OFFCURVE",
"455 245 CURVE"
);
},
{
closed = 1;
nodes = (
"323 873 LINE SMOOTH",
"335 882 OFFCURVE",
"348 889 OFFCURVE",
"357 889 CURVE SMOOTH",
"366 889 OFFCURVE",
"378 882 OFFCURVE",
"390 873 CURVE SMOOTH",
"515 778 LINE",
"539 804 LINE",
"394 961 LINE",
"319 961 LINE",
"174 804 LINE",
"198 778 LINE"
);
}
);
width = 649;
}
);
note = Ecircumflex;
unicode = 00CA;
},
{
glyphname = Ecircumflexacute;
lastChange = "2015-10-12 08:28:13 +0000";
layers = (
{
layerId = "66DA30A5-A5D3-4FBB-AA06-F397B31B18DC";
name = Bold;
paths = (
{
closed = 1;
nodes = (
"596 0 LINE",
"616 191 LINE",
"578 191 LINE",
"569 126 OFFCURVE",
"549 54 OFFCURVE",
"480 54 CURVE SMOOTH",
"252 54 LINE",
"252 645 LINE",
"458 645 LINE SMOOTH",
"545 645 OFFCURVE",
"556 549 OFFCURVE",
"559 511 CURVE",
"597 511 LINE",
"597 700 LINE",
"13 700 LINE",
"13 662 LINE",
"43 662 LINE SMOOTH",
"82 662 OFFCURVE",
"99 650 OFFCURVE",
"99 624 CURVE SMOOTH",
"99 75 LINE SMOOTH",
"99 49 OFFCURVE",
"82 37 OFFCURVE",
"43 37 CURVE SMOOTH",
"13 37 LINE",
"13 0 LINE"
);
},
{
closed = 1;
nodes = (
"486 245 LINE",
"486 484 LINE",
"455 484 LINE",
"451 438 OFFCURVE",
"446 392 OFFCURVE",
"401 392 CURVE SMOOTH",
"191 392 LINE",
"191 337 LINE",
"401 337 LINE SMOOTH",
"446 337 OFFCURVE",
"451 291 OFFCURVE",
"455 245 CURVE"
);
},
{
closed = 1;
nodes = (
"302 867 LINE SMOOTH",
"316 878 OFFCURVE",
"329 888 OFFCURVE",
"339 888 CURVE SMOOTH",
"348 888 OFFCURVE",
"360 880 OFFCURVE",
"372 871 CURVE SMOOTH",
"493 777 LINE",
"516 803 LINE",
"376 960 LINE",
"302 960 LINE",
"163 803 LINE",
"185 777 LINE"
);
},
{
closed = 1;
nodes = (
"591 966 LINE SMOOTH",
"623 982 OFFCURVE",
"646 1004 OFFCURVE",
"646 1027 CURVE SMOOTH",
"646 1047 OFFCURVE",
"630 1072 OFFCURVE",
"597 1072 CURVE SMOOTH",
"568 1072 OFFCURVE",
"545 1048 OFFCURVE",
"532 1033 CURVE SMOOTH",
"448 939 LINE",
"473 906 LINE"
);
}
);
width = 649;
}
);
note = Ecircumflexacute;
unicode = 1EBE;
},
{
glyphname = Ecircumflexdotbelow;
lastChange = "2015-10-12 08:28:13 +0000";
layers = (
{
layerId = "66DA30A5-A5D3-4FBB-AA06-F397B31B18DC";
name = Bold;
paths = (
{
closed = 1;
nodes = (
"596 0 LINE",
"616 191 LINE",
"578 191 LINE",
"569 126 OFFCURVE",
"549 54 OFFCURVE",
"480 54 CURVE SMOOTH",
"252 54 LINE",
"252 645 LINE",
"458 645 LINE SMOOTH",
"545 645 OFFCURVE",
"556 549 OFFCURVE",
"559 511 CURVE",
"597 511 LINE",
"597 700 LINE",
"13 700 LINE",
"13 662 LINE",
"43 662 LINE SMOOTH",
"82 662 OFFCURVE",
"99 650 OFFCURVE",
"99 624 CURVE SMOOTH",
"99 75 LINE SMOOTH",
"99 49 OFFCURVE",
"82 37 OFFCURVE",
"43 37 CURVE SMOOTH",
"13 37 LINE",
"13 0 LINE"
);
},
{
closed = 1;
nodes = (
"380 -188 OFFCURVE",
"404 -161 OFFCURVE",
"404 -127 CURVE SMOOTH",
"404 -92 OFFCURVE",
"380 -64 OFFCURVE",
"343 -64 CURVE SMOOTH",
"305 -64 OFFCURVE",
"281 -92 OFFCURVE",
"281 -127 CURVE SMOOTH",
"281 -161 OFFCURVE",
"305 -188 OFFCURVE",
"343 -188 CURVE SMOOTH"
);
},
{
closed = 1;
nodes = (
"486 245 LINE",
"486 484 LINE",
"455 484 LINE",
"451 438 OFFCURVE",
"446 392 OFFCURVE",
"401 392 CURVE SMOOTH",
"191 392 LINE",
"191 337 LINE",
"401 337 LINE SMOOTH",
"446 337 OFFCURVE",
"451 291 OFFCURVE",
"455 245 CURVE"
);
},
{
closed = 1;
nodes = (
"304 873 LINE SMOOTH",
"316 882 OFFCURVE",
"329 889 OFFCURVE",
"338 889 CURVE SMOOTH",
"347 889 OFFCURVE",
"359 882 OFFCURVE",
"371 873 CURVE SMOOTH",
"496 778 LINE",
"520 804 LINE",
"375 961 LINE",
"300 961 LINE",
"155 804 LINE",
"179 778 LINE"
);
}
);
width = 649;
}
);
note = Ecircumflexdotbelow;
unicode = 1EC6;
},
{
glyphname = Ecircumflexgrave;
lastChange = "2015-10-12 08:28:13 +0000";
layers = (
{
layerId = "66DA30A5-A5D3-4FBB-AA06-F397B31B18DC";
name = Bold;
paths = (
{
closed = 1;
nodes = (
"596 0 LINE",
"616 191 LINE",
"578 191 LINE",
"569 126 OFFCURVE",
"549 54 OFFCURVE",
"480 54 CURVE SMOOTH",
"252 54 LINE",
"252 645 LINE",
"458 645 LINE SMOOTH",
"545 645 OFFCURVE",
"556 549 OFFCURVE",
"559 511 CURVE",
"597 511 LINE",
"597 700 LINE",
"13 700 LINE",
"13 662 LINE",
"43 662 LINE SMOOTH",
"82 662 OFFCURVE",
"99 650 OFFCURVE",
"99 624 CURVE SMOOTH",
"99 75 LINE SMOOTH",
"99 49 OFFCURVE",
"82 37 OFFCURVE",
"43 37 CURVE SMOOTH",
"13 37 LINE",
"13 0 LINE"
);
},
{
closed = 1;
nodes = (
"486 245 LINE",
"486 484 LINE",
"455 484 LINE",
"451 438 OFFCURVE",
"446 392 OFFCURVE",
"401 392 CURVE SMOOTH",
"191 392 LINE",
"191 337 LINE",
"401 337 LINE SMOOTH",
"446 337 OFFCURVE",
"451 291 OFFCURVE",
"455 245 CURVE"
);
},
{
closed = 1;
nodes = (
"233 939 LINE",
"146 1035 LINE SMOOTH",
"134 1049 OFFCURVE",
"112 1073 OFFCURVE",
"84 1073 CURVE SMOOTH",
"49 1073 OFFCURVE",
"35 1046 OFFCURVE",
"35 1028 CURVE SMOOTH",
"35 1005 OFFCURVE",
"55 984 OFFCURVE",
"88 968 CURVE SMOOTH",
"208 906 LINE"
);
},
{
closed = 1;
nodes = (
"302 867 LINE SMOOTH",
"316 878 OFFCURVE",
"329 888 OFFCURVE",
"339 888 CURVE SMOOTH",
"348 888 OFFCURVE",
"360 880 OFFCURVE",
"372 871 CURVE SMOOTH",
"493 777 LINE",
"516 803 LINE",
"376 960 LINE",
"302 960 LINE",
"163 803 LINE",
"185 777 LINE"
);
}
);
width = 649;
}
);
note = Ecircumflexgrave;
unicode = 1EC0;
},
{
glyphname = Ecircumflexhookabove;
lastChange = "2015-10-12 08:28:13 +0000";
layers = (
{
layerId = "66DA30A5-A5D3-4FBB-AA06-F397B31B18DC";
name = Bold;
paths = (
{
closed = 1;
nodes = (
"596 0 LINE",
"616 191 LINE",
"578 191 LINE",
"569 126 OFFCURVE",
"549 54 OFFCURVE",
"480 54 CURVE SMOOTH",
"252 54 LINE",
"252 645 LINE",
"458 645 LINE SMOOTH",
"545 645 OFFCURVE",
"556 549 OFFCURVE",
"559 511 CURVE",
"597 511 LINE",
"597 700 LINE",
"13 700 LINE",
"13 662 LINE",
"43 662 LINE SMOOTH",
"82 662 OFFCURVE",
"99 650 OFFCURVE",
"99 624 CURVE SMOOTH",
"99 75 LINE SMOOTH",
"99 49 OFFCURVE",
"82 37 OFFCURVE",
"43 37 CURVE SMOOTH",
"13 37 LINE",
"13 0 LINE"
);
},
{
closed = 1;
nodes = (
"486 245 LINE",
"486 484 LINE",
"455 484 LINE",
"451 438 OFFCURVE",
"446 392 OFFCURVE",
"401 392 CURVE SMOOTH",
"191 392 LINE",
"191 337 LINE",
"401 337 LINE SMOOTH",
"446 337 OFFCURVE",
"451 291 OFFCURVE",
"455 245 CURVE"
);
},
{
closed = 1;
nodes = (
"302 867 LINE SMOOTH",
"316 878 OFFCURVE",
"329 888 OFFCURVE",
"339 888 CURVE SMOOTH",
"348 888 OFFCURVE",
"360 880 OFFCURVE",
"372 871 CURVE SMOOTH",
"493 777 LINE",
"516 803 LINE",
"376 960 LINE",
"302 960 LINE",
"163 803 LINE",
"185 777 LINE"
);
},
{
closed = 1;
nodes = (
"535 921 LINE",
"519 926 OFFCURVE",
"507 929 OFFCURVE",
"507 947 CURVE SMOOTH",
"507 982 OFFCURVE",
"599 991 OFFCURVE",
"599 1044 CURVE SMOOTH",
"599 1085 OFFCURVE",
"551 1104 OFFCURVE",
"502 1104 CURVE SMOOTH",
"451 1104 OFFCURVE",
"413 1083 OFFCURVE",
"413 1056 CURVE SMOOTH",
"413 1039 OFFCURVE",
"427 1029 OFFCURVE",
"440 1029 CURVE SMOOTH",
"475 1029 OFFCURVE",
"460 1078 OFFCURVE",
"505 1078 CURVE SMOOTH",
"525 1078 OFFCURVE",
"534 1063 OFFCURVE",
"534 1049 CURVE SMOOTH",
"534 1001 OFFCURVE",
"455 991 OFFCURVE",
"455 947 CURVE SMOOTH",
"455 920 OFFCURVE",
"479 900 OFFCURVE",
"526 900 CURVE"
);
}
);
width = 649;
}
);
note = Ecircumflexhookabove;
unicode = 1EC2;
},
{
glyphname = Ecircumflextilde;
lastChange = "2015-10-12 08:28:13 +0000";
layers = (
{
layerId = "66DA30A5-A5D3-4FBB-AA06-F397B31B18DC";
name = Bold;
paths = (
{
closed = 1;
nodes = (
"596 0 LINE",
"616 191 LINE",
"578 191 LINE",
"569 126 OFFCURVE",
"549 54 OFFCURVE",
"480 54 CURVE SMOOTH",
"252 54 LINE",
"252 645 LINE",
"458 645 LINE SMOOTH",
"545 645 OFFCURVE",
"556 549 OFFCURVE",
"559 511 CURVE",
"597 511 LINE",
"597 700 LINE",
"13 700 LINE",
"13 662 LINE",
"43 662 LINE SMOOTH",
"82 662 OFFCURVE",
"99 650 OFFCURVE",
"99 624 CURVE SMOOTH",
"99 75 LINE SMOOTH",
"99 49 OFFCURVE",
"82 37 OFFCURVE",
"43 37 CURVE SMOOTH",
"13 37 LINE",
"13 0 LINE"
);
},
{
closed = 1;
nodes = (
"486 245 LINE",
"486 484 LINE",
"455 484 LINE",
"451 438 OFFCURVE",
"446 392 OFFCURVE",
"401 392 CURVE SMOOTH",
"191 392 LINE",
"191 337 LINE",
"401 337 LINE SMOOTH",
"446 337 OFFCURVE",
"451 291 OFFCURVE",
"455 245 CURVE"
);
},
{
closed = 1;
nodes = (
"302 867 LINE SMOOTH",
"316 878 OFFCURVE",
"329 888 OFFCURVE",
"339 888 CURVE SMOOTH",
"348 888 OFFCURVE",
"360 880 OFFCURVE",
"372 871 CURVE SMOOTH",
"493 777 LINE",
"516 803 LINE",
"376 960 LINE",
"302 960 LINE",
"163 803 LINE",
"185 777 LINE"
);
},
{
closed = 1;
nodes = (
"202 1019 OFFCURVE",
"218 1038 OFFCURVE",
"251 1038 CURVE SMOOTH",
"306 1038 OFFCURVE",
"356 989 OFFCURVE",
"409 989 CURVE SMOOTH",
"474 989 OFFCURVE",
"505 1055 OFFCURVE",
"520 1102 CURVE",
"494 1118 LINE",
"477 1077 OFFCURVE",
"462 1058 OFFCURVE",
"428 1058 CURVE SMOOTH",
"375 1058 OFFCURVE",
"323 1106 OFFCURVE",
"270 1106 CURVE SMOOTH",
"206 1106 OFFCURVE",
"174 1043 OFFCURVE",
"160 995 CURVE",
"185 980 LINE"
);
}
);
width = 649;
}
);
note = Ecircumflextilde;
unicode = 1EC4;
},
{
glyphname = Edieresis;
lastChange = "2015-10-12 08:28:13 +0000";
layers = (
{
layerId = "66DA30A5-A5D3-4FBB-AA06-F397B31B18DC";
name = Bold;
paths = (
{
closed = 1;
nodes = (
"596 0 LINE",
"616 191 LINE",
"578 191 LINE",
"569 126 OFFCURVE",
"549 54 OFFCURVE",
"480 54 CURVE SMOOTH",
"252 54 LINE",
"252 645 LINE",
"458 645 LINE SMOOTH",
"545 645 OFFCURVE",
"556 549 OFFCURVE",
"559 511 CURVE",
"597 511 LINE",
"597 700 LINE",
"13 700 LINE",
"13 662 LINE",
"43 662 LINE SMOOTH",
"82 662 OFFCURVE",
"99 650 OFFCURVE",
"99 624 CURVE SMOOTH",
"99 75 LINE SMOOTH",
"99 49 OFFCURVE",
"82 37 OFFCURVE",
"43 37 CURVE SMOOTH",
"13 37 LINE",
"13 0 LINE"
);
},
{
closed = 1;
nodes = (
"486 245 LINE",
"486 484 LINE",
"455 484 LINE",
"451 438 OFFCURVE",
"446 392 OFFCURVE",
"401 392 CURVE SMOOTH",
"191 392 LINE",
"191 337 LINE",
"401 337 LINE SMOOTH",
"446 337 OFFCURVE",
"451 291 OFFCURVE",
"455 245 CURVE"
);
},
{
closed = 1;
nodes = (
"289 778 OFFCURVE",
"313 804 OFFCURVE",
"313 838 CURVE SMOOTH",
"313 874 OFFCURVE",
"289 900 OFFCURVE",
"251 900 CURVE SMOOTH",
"213 900 OFFCURVE",
"190 874 OFFCURVE",
"190 838 CURVE SMOOTH",
"190 804 OFFCURVE",
"213 778 OFFCURVE",
"251 778 CURVE SMOOTH"
);
},
{
closed = 1;
nodes = (
"521 778 OFFCURVE",
"545 804 OFFCURVE",
"545 838 CURVE SMOOTH",
"545 874 OFFCURVE",
"521 900 OFFCURVE",
"484 900 CURVE SMOOTH",
"445 900 OFFCURVE",
"422 874 OFFCURVE",
"422 838 CURVE SMOOTH",
"422 804 OFFCURVE",
"445 778 OFFCURVE",
"484 778 CURVE SMOOTH"
);
}
);
width = 649;
}
);
note = Edieresis;
unicode = 00CB;
},
{
glyphname = Edotaccent;
lastChange = "2015-10-12 08:28:13 +0000";
layers = (
{
layerId = "66DA30A5-A5D3-4FBB-AA06-F397B31B18DC";
name = Bold;
paths = (
{
closed = 1;
nodes = (
"596 0 LINE",
"616 191 LINE",
"578 191 LINE",
"569 126 OFFCURVE",
"549 54 OFFCURVE",
"480 54 CURVE SMOOTH",
"252 54 LINE",
"252 645 LINE",
"458 645 LINE SMOOTH",
"545 645 OFFCURVE",
"556 549 OFFCURVE",
"559 511 CURVE",
"597 511 LINE",
"597 700 LINE",
"13 700 LINE",
"13 662 LINE",
"43 662 LINE SMOOTH",
"82 662 OFFCURVE",
"99 650 OFFCURVE",
"99 624 CURVE SMOOTH",
"99 75 LINE SMOOTH",
"99 49 OFFCURVE",
"82 37 OFFCURVE",
"43 37 CURVE SMOOTH",
"13 37 LINE",
"13 0 LINE"
);
},
{
closed = 1;
nodes = (
"486 245 LINE",
"486 484 LINE",
"455 484 LINE",
"451 438 OFFCURVE",
"446 392 OFFCURVE",
"401 392 CURVE SMOOTH",
"191 392 LINE",
"191 337 LINE",
"401 337 LINE SMOOTH",
"446 337 OFFCURVE",
"451 291 OFFCURVE",
"455 245 CURVE"
);
},
{
closed = 1;
nodes = (
"405 770 OFFCURVE",
"429 796 OFFCURVE",
"429 830 CURVE SMOOTH",
"429 865 OFFCURVE",
"405 892 OFFCURVE",
"368 892 CURVE SMOOTH",
"330 892 OFFCURVE",
"307 865 OFFCURVE",
"307 830 CURVE SMOOTH",
"307 796 OFFCURVE",
"330 770 OFFCURVE",
"368 770 CURVE SMOOTH"
);
}
);
width = 649;
}
);
note = Edotaccent;
unicode = 0116;
},
{
glyphname = Edotbelow;
lastChange = "2015-10-12 08:28:13 +0000";
layers = (
{
layerId = "66DA30A5-A5D3-4FBB-AA06-F397B31B18DC";
name = Bold;
paths = (
{
closed = 1;
nodes = (
"596 0 LINE",
"616 191 LINE",
"578 191 LINE",
"569 126 OFFCURVE",
"549 54 OFFCURVE",
"480 54 CURVE SMOOTH",
"252 54 LINE",
"252 645 LINE",
"458 645 LINE SMOOTH",
"545 645 OFFCURVE",
"556 549 OFFCURVE",
"559 511 CURVE",
"597 511 LINE",
"597 700 LINE",
"13 700 LINE",
"13 662 LINE",
"43 662 LINE SMOOTH",
"82 662 OFFCURVE",
"99 650 OFFCURVE",
"99 624 CURVE SMOOTH",
"99 75 LINE SMOOTH",
"99 49 OFFCURVE",
"82 37 OFFCURVE",
"43 37 CURVE SMOOTH",
"13 37 LINE",
"13 0 LINE"
);
},
{
closed = 1;
nodes = (
"368 -188 OFFCURVE",
"392 -161 OFFCURVE",
"392 -127 CURVE SMOOTH",
"392 -92 OFFCURVE",
"368 -64 OFFCURVE",
"331 -64 CURVE SMOOTH",
"293 -64 OFFCURVE",
"269 -92 OFFCURVE",
"269 -127 CURVE SMOOTH",
"269 -161 OFFCURVE",
"293 -188 OFFCURVE",
"331 -188 CURVE SMOOTH"
);
},
{
closed = 1;
nodes = (
"486 245 LINE",
"486 484 LINE",
"455 484 LINE",
"451 438 OFFCURVE",
"446 392 OFFCURVE",
"401 392 CURVE SMOOTH",
"191 392 LINE",
"191 337 LINE",
"401 337 LINE SMOOTH",
"446 337 OFFCURVE",
"451 291 OFFCURVE",
"455 245 CURVE"
);
}
);
width = 649;
}
);
note = Edotbelow;
unicode = 1EB8;
},
{
glyphname = Egrave;
lastChange = "2015-10-12 08:28:13 +0000";
layers = (
{
layerId = "66DA30A5-A5D3-4FBB-AA06-F397B31B18DC";
name = Bold;
paths = (
{
closed = 1;
nodes = (
"596 0 LINE",
"616 191 LINE",
"578 191 LINE",
"569 126 OFFCURVE",
"549 54 OFFCURVE",
"480 54 CURVE SMOOTH",
"252 54 LINE",
"252 645 LINE",
"458 645 LINE SMOOTH",
"545 645 OFFCURVE",
"556 549 OFFCURVE",
"559 511 CURVE",
"597 511 LINE",
"597 700 LINE",
"13 700 LINE",
"13 662 LINE",
"43 662 LINE SMOOTH",
"82 662 OFFCURVE",
"99 650 OFFCURVE",
"99 624 CURVE SMOOTH",
"99 75 LINE SMOOTH",
"99 49 OFFCURVE",
"82 37 OFFCURVE",
"43 37 CURVE SMOOTH",
"13 37 LINE",
"13 0 LINE"
);
},
{
closed = 1;
nodes = (
"486 245 LINE",
"486 484 LINE",
"455 484 LINE",
"451 438 OFFCURVE",
"446 392 OFFCURVE",
"401 392 CURVE SMOOTH",
"191 392 LINE",
"191 337 LINE",
"401 337 LINE SMOOTH",
"446 337 OFFCURVE",
"451 291 OFFCURVE",
"455 245 CURVE"
);
},
{
closed = 1;
nodes = (
"474 815 LINE",
"353 937 LINE",
"345 946 OFFCURVE",
"322 971 OFFCURVE",
"291 971 CURVE SMOOTH",
"257 971 OFFCURVE",
"243 949 OFFCURVE",
"243 929 CURVE SMOOTH",
"243 905 OFFCURVE",
"259 887 OFFCURVE",
"289 869 CURVE SMOOTH",
"447 777 LINE"
);
}
);
width = 649;
}
);
note = Egrave;
unicode = 00C8;
},
{
glyphname = Ehookabove;
lastChange = "2015-10-12 08:28:13 +0000";
layers = (
{
layerId = "66DA30A5-A5D3-4FBB-AA06-F397B31B18DC";
name = Bold;
paths = (
{
closed = 1;
nodes = (
"596 0 LINE",
"616 191 LINE",
"578 191 LINE",
"569 126 OFFCURVE",
"549 54 OFFCURVE",
"480 54 CURVE SMOOTH",
"252 54 LINE",
"252 645 LINE",
"458 645 LINE SMOOTH",
"545 645 OFFCURVE",
"556 549 OFFCURVE",
"559 511 CURVE",
"597 511 LINE",
"597 700 LINE",
"13 700 LINE",
"13 662 LINE",
"43 662 LINE SMOOTH",
"82 662 OFFCURVE",
"99 650 OFFCURVE",
"99 624 CURVE SMOOTH",
"99 75 LINE SMOOTH",
"99 49 OFFCURVE",
"82 37 OFFCURVE",
"43 37 CURVE SMOOTH",
"13 37 LINE",
"13 0 LINE"
);
},
{
closed = 1;
nodes = (
"486 245 LINE",
"486 484 LINE",
"455 484 LINE",
"451 438 OFFCURVE",
"446 392 OFFCURVE",
"401 392 CURVE SMOOTH",
"191 392 LINE",
"191 337 LINE",
"401 337 LINE SMOOTH",
"446 337 OFFCURVE",
"451 291 OFFCURVE",
"455 245 CURVE"
);
},
{
closed = 1;
nodes = (
"399 801 LINE",
"382 805 OFFCURVE",
"368 811 OFFCURVE",
"368 829 CURVE SMOOTH",
"368 869 OFFCURVE",
"472 880 OFFCURVE",
"472 941 CURVE SMOOTH",
"472 988 OFFCURVE",
"425 1013 OFFCURVE",
"365 1013 CURVE SMOOTH",
"297 1013 OFFCURVE",
"260 986 OFFCURVE",
"260 954 CURVE SMOOTH",
"260 932 OFFCURVE",
"274 922 OFFCURVE",
"291 922 CURVE SMOOTH",
"315 922 OFFCURVE",
"323 942 OFFCURVE",
"325 952 CURVE",
"328 973 OFFCURVE",
"348 979 OFFCURVE",
"365 979 CURVE SMOOTH",
"385 979 OFFCURVE",
"398 963 OFFCURVE",
"398 946 CURVE SMOOTH",
"398 892 OFFCURVE",
"308 881 OFFCURVE",
"308 831 CURVE SMOOTH",
"308 800 OFFCURVE",
"336 777 OFFCURVE",
"389 777 CURVE"
);
}
);
width = 649;
}
);
note = Ehookabove;
unicode = 1EBA;
},
{
glyphname = Emacron;
lastChange = "2015-10-12 08:28:13 +0000";
layers = (
{
layerId = "66DA30A5-A5D3-4FBB-AA06-F397B31B18DC";
name = Bold;
paths = (
{
closed = 1;
nodes = (
"596 0 LINE",
"616 191 LINE",
"578 191 LINE",
"569 126 OFFCURVE",
"549 54 OFFCURVE",
"480 54 CURVE SMOOTH",
"252 54 LINE",
"252 645 LINE",
"458 645 LINE SMOOTH",
"545 645 OFFCURVE",
"556 549 OFFCURVE",
"559 511 CURVE",
"597 511 LINE",
"597 700 LINE",
"13 700 LINE",
"13 662 LINE",
"43 662 LINE SMOOTH",
"82 662 OFFCURVE",
"99 650 OFFCURVE",
"99 624 CURVE SMOOTH",
"99 75 LINE SMOOTH",
"99 49 OFFCURVE",
"82 37 OFFCURVE",
"43 37 CURVE SMOOTH",
"13 37 LINE",
"13 0 LINE"
);
},
{
closed = 1;
nodes = (
"486 245 LINE",
"486 484 LINE",
"455 484 LINE",
"451 438 OFFCURVE",
"446 392 OFFCURVE",
"401 392 CURVE SMOOTH",
"191 392 LINE",
"191 337 LINE",
"401 337 LINE SMOOTH",
"446 337 OFFCURVE",
"451 291 OFFCURVE",
"455 245 CURVE"
);
},
{
closed = 1;
nodes = (
"549 778 LINE",
"549 837 LINE",
"168 837 LINE",
"168 778 LINE"
);
}
);
width = 649;
}
);
note = Emacron;
unicode = 0112;
},
{
glyphname = Eogonek;
lastChange = "2015-10-12 08:28:13 +0000";
layers = (
{
layerId = "66DA30A5-A5D3-4FBB-AA06-F397B31B18DC";
name = Bold;
paths = (
{
closed = 1;
nodes = (
"596 0 LINE",
"616 191 LINE",
"578 191 LINE",
"569 126 OFFCURVE",
"549 54 OFFCURVE",
"480 54 CURVE SMOOTH",
"252 54 LINE",
"252 645 LINE",
"458 645 LINE SMOOTH",
"545 645 OFFCURVE",
"556 549 OFFCURVE",
"559 511 CURVE",
"597 511 LINE",
"597 700 LINE",
"13 700 LINE",
"13 662 LINE",
"43 662 LINE SMOOTH",
"82 662 OFFCURVE",
"99 650 OFFCURVE",
"99 624 CURVE SMOOTH",
"99 75 LINE SMOOTH",
"99 49 OFFCURVE",
"82 37 OFFCURVE",
"43 37 CURVE SMOOTH",
"13 37 LINE",
"13 0 LINE"
);
},
{
closed = 1;
nodes = (
"537 -220 OFFCURVE",
"574 -209 OFFCURVE",
"605 -185 CURVE",
"594 -161 LINE",
"580 -168 OFFCURVE",
"560 -173 OFFCURVE",
"546 -173 CURVE SMOOTH",
"512 -173 OFFCURVE",
"486 -154 OFFCURVE",
"486 -113 CURVE SMOOTH",
"486 -72 OFFCURVE",
"510 -30 OFFCURVE",
"561 8 CURVE",
"507 8 LINE",
"447 -23 OFFCURVE",
"397 -72 OFFCURVE",
"397 -127 CURVE SMOOTH",
"397 -163 OFFCURVE",
"418 -220 OFFCURVE",
"508 -220 CURVE SMOOTH"
);
},
{
closed = 1;
nodes = (
"486 245 LINE",
"486 484 LINE",
"455 484 LINE",
"451 438 OFFCURVE",
"446 392 OFFCURVE",
"401 392 CURVE SMOOTH",
"191 392 LINE",
"191 337 LINE",
"401 337 LINE SMOOTH",
"446 337 OFFCURVE",
"451 291 OFFCURVE",
"455 245 CURVE"
);
}
);
width = 649;
}
);
note = Eogonek;
unicode = 0118;
},
{
glyphname = Etilde;
lastChange = "2015-10-12 08:28:13 +0000";
layers = (
{
layerId = "66DA30A5-A5D3-4FBB-AA06-F397B31B18DC";
name = Bold;
paths = (
{
closed = 1;
nodes = (
"596 0 LINE",
"616 191 LINE",
"578 191 LINE",
"569 126 OFFCURVE",
"549 54 OFFCURVE",
"480 54 CURVE SMOOTH",
"252 54 LINE",
"252 645 LINE",
"458 645 LINE SMOOTH",
"545 645 OFFCURVE",
"556 549 OFFCURVE",
"559 511 CURVE",
"597 511 LINE",
"597 700 LINE",
"13 700 LINE",
"13 662 LINE",
"43 662 LINE SMOOTH",
"82 662 OFFCURVE",
"99 650 OFFCURVE",
"99 624 CURVE SMOOTH",
"99 75 LINE SMOOTH",
"99 49 OFFCURVE",
"82 37 OFFCURVE",
"43 37 CURVE SMOOTH",
"13 37 LINE",
"13 0 LINE"
);
},
{
closed = 1;
nodes = (
"486 245 LINE",
"486 484 LINE",
"455 484 LINE",
"451 438 OFFCURVE",
"446 392 OFFCURVE",
"401 392 CURVE SMOOTH",
"191 392 LINE",
"191 337 LINE",
"401 337 LINE SMOOTH",
"446 337 OFFCURVE",
"451 291 OFFCURVE",
"455 245 CURVE"
);
},
{
closed = 1;
nodes = (
"206 813 OFFCURVE",
"223 832 OFFCURVE",
"259 832 CURVE SMOOTH",
"318 832 OFFCURVE",
"372 783 OFFCURVE",
"430 783 CURVE SMOOTH",
"501 783 OFFCURVE",
"534 848 OFFCURVE",
"550 896 CURVE",
"522 911 LINE",
"503 871 OFFCURVE",
"487 852 OFFCURVE",
"450 852 CURVE SMOOTH",
"392 852 OFFCURVE",
"337 900 OFFCURVE",
"279 900 CURVE SMOOTH",
"210 900 OFFCURVE",
"175 837 OFFCURVE",
"159 789 CURVE",
"187 774 LINE"
);
}
);
width = 649;
}
);
note = Etilde;
unicode = 1EBC;
},
{
glyphname = F;
lastChange = "2015-10-12 08:28:13 +0000";
layers = (
{
layerId = "66DA30A5-A5D3-4FBB-AA06-F397B31B18DC";
name = Bold;
paths = (
{
closed = 1;
nodes = (
"339 0 LINE",
"339 37 LINE",
"309 37 LINE SMOOTH",
"271 37 OFFCURVE",
"253 49 OFFCURVE",
"253 75 CURVE SMOOTH",
"253 645 LINE",
"459 645 LINE SMOOTH",
"545 645 OFFCURVE",
"556 549 OFFCURVE",
"560 511 CURVE",
"598 511 LINE",
"598 700 LINE",
"13 700 LINE",
"13 662 LINE",
"44 662 LINE SMOOTH",
"82 662 OFFCURVE",
"100 650 OFFCURVE",
"100 624 CURVE SMOOTH",
"100 75 LINE SMOOTH",
"100 49 OFFCURVE",
"82 37 OFFCURVE",
"44 37 CURVE SMOOTH",
"13 37 LINE",
"13 0 LINE"
);
},
{
closed = 1;
nodes = (
"481 213 LINE",
"481 451 LINE",
"449 451 LINE",
"445 405 OFFCURVE",
"440 359 OFFCURVE",
"395 359 CURVE SMOOTH",
"194 359 LINE",
"194 305 LINE",
"395 305 LINE SMOOTH",
"440 305 OFFCURVE",
"445 258 OFFCURVE",
"449 213 CURVE"
);
}
);
width = 633;
}
);
note = F;
unicode = 0046;
},
{
glyphname = G;
lastChange = "2015-10-12 08:28:11 +0000";
layers = (
{
layerId = "66DA30A5-A5D3-4FBB-AA06-F397B31B18DC";
name = Bold;
paths = (
{
closed = 1;
nodes = (
"503 -10 OFFCURVE",
"588 8 OFFCURVE",
"680 66 CURVE",
"680 255 LINE SMOOTH",
"680 307 OFFCURVE",
"694 324 OFFCURVE",
"737 324 CURVE",
"745 331 LINE",
"745 349 LINE",
"447 349 LINE",
"447 318 LINE",
"460 318 LINE SMOOTH",
"513 318 OFFCURVE",
"533 297 OFFCURVE",
"533 268 CURVE SMOOTH",
"533 75 LINE",
"496 52 OFFCURVE",
"445 46 OFFCURVE",
"407 46 CURVE SMOOTH",
"264 46 OFFCURVE",
"191 162 OFFCURVE",
"191 350 CURVE SMOOTH",
"191 537 OFFCURVE",
"281 653 OFFCURVE",
"425 653 CURVE SMOOTH",
"516 653 OFFCURVE",
"610 609 OFFCURVE",
"624 499 CURVE",
"667 499 LINE",
"667 705 LINE",
"616 705 LINE",
"616 660 LINE SMOOTH",
"616 652 OFFCURVE",
"612 649 OFFCURVE",
"606 649 CURVE SMOOTH",
"603 649 OFFCURVE",
"600 650 OFFCURVE",
"597 652 CURVE",
"552 687 OFFCURVE",
"472 710 OFFCURVE",
"391 710 CURVE SMOOTH",
"160 710 OFFCURVE",
"36 568 OFFCURVE",
"36 350 CURVE SMOOTH",
"36 131 OFFCURVE",
"153 -10 OFFCURVE",
"387 -10 CURVE SMOOTH"
);
}
);
width = 752;
}
);
leftKerningGroup = G;
note = G;
unicode = 0047;
},
{
glyphname = Gbreve;
lastChange = "2015-10-12 08:28:13 +0000";
layers = (
{
layerId = "66DA30A5-A5D3-4FBB-AA06-F397B31B18DC";
name = Bold;
paths = (
{
closed = 1;
nodes = (
"503 -10 OFFCURVE",
"588 8 OFFCURVE",
"680 66 CURVE",
"680 255 LINE SMOOTH",
"680 307 OFFCURVE",
"694 324 OFFCURVE",
"737 324 CURVE",
"745 331 LINE",
"745 349 LINE",
"447 349 LINE",
"447 318 LINE",
"460 318 LINE SMOOTH",
"513 318 OFFCURVE",
"533 297 OFFCURVE",
"533 268 CURVE SMOOTH",
"533 75 LINE",
"496 52 OFFCURVE",
"445 46 OFFCURVE",
"407 46 CURVE SMOOTH",
"264 46 OFFCURVE",
"191 162 OFFCURVE",
"191 350 CURVE SMOOTH",
"191 537 OFFCURVE",
"281 653 OFFCURVE",
"425 653 CURVE SMOOTH",
"516 653 OFFCURVE",
"610 609 OFFCURVE",
"624 499 CURVE",
"667 499 LINE",
"667 705 LINE",
"616 705 LINE",
"616 660 LINE SMOOTH",
"616 652 OFFCURVE",
"612 649 OFFCURVE",
"606 649 CURVE SMOOTH",
"603 649 OFFCURVE",
"600 650 OFFCURVE",
"597 652 CURVE",
"552 687 OFFCURVE",
"472 710 OFFCURVE",
"391 710 CURVE SMOOTH",
"160 710 OFFCURVE",
"36 568 OFFCURVE",
"36 350 CURVE SMOOTH",
"36 131 OFFCURVE",
"153 -10 OFFCURVE",
"387 -10 CURVE SMOOTH"
);
},
{
closed = 1;
nodes = (
"512 784 OFFCURVE",
"546 857 OFFCURVE",
"548 930 CURVE",
"508 930 LINE",
"504 888 OFFCURVE",
"474 849 OFFCURVE",
"389 849 CURVE SMOOTH",
"304 849 OFFCURVE",
"272 888 OFFCURVE",
"267 930 CURVE",
"228 930 LINE",
"230 853 OFFCURVE",
"264 784 OFFCURVE",
"389 784 CURVE SMOOTH"
);
}
);
width = 752;
}
);
leftKerningGroup = G;
note = Gbreve;
unicode = 011E;
},
{
glyphname = Gcaron;
lastChange = "2015-10-12 08:28:12 +0000";
layers = (
{
layerId = "66DA30A5-A5D3-4FBB-AA06-F397B31B18DC";
name = Bold;
paths = (
{
closed = 1;
nodes = (
"503 -10 OFFCURVE",
"588 8 OFFCURVE",
"680 66 CURVE",
"680 255 LINE SMOOTH",
"680 307 OFFCURVE",
"694 324 OFFCURVE",
"737 324 CURVE",
"745 331 LINE",
"745 349 LINE",
"447 349 LINE",
"447 318 LINE",
"460 318 LINE SMOOTH",
"513 318 OFFCURVE",
"533 297 OFFCURVE",
"533 268 CURVE SMOOTH",
"533 75 LINE",
"496 52 OFFCURVE",
"445 46 OFFCURVE",
"407 46 CURVE SMOOTH",
"264 46 OFFCURVE",
"191 162 OFFCURVE",
"191 350 CURVE SMOOTH",
"191 537 OFFCURVE",
"281 653 OFFCURVE",
"425 653 CURVE SMOOTH",
"516 653 OFFCURVE",
"610 609 OFFCURVE",
"624 499 CURVE",
"667 499 LINE",
"667 705 LINE",
"616 705 LINE",
"616 660 LINE SMOOTH",
"616 652 OFFCURVE",
"612 649 OFFCURVE",
"606 649 CURVE SMOOTH",
"603 649 OFFCURVE",
"600 650 OFFCURVE",
"597 652 CURVE",
"552 687 OFFCURVE",
"472 710 OFFCURVE",
"391 710 CURVE SMOOTH",
"160 710 OFFCURVE",
"36 568 OFFCURVE",
"36 350 CURVE SMOOTH",
"36 131 OFFCURVE",
"153 -10 OFFCURVE",
"387 -10 CURVE SMOOTH"
);
},
{
closed = 1;
nodes = (
"452 778 LINE",
"597 935 LINE",
"573 961 LINE",
"448 866 LINE SMOOTH",
"436 857 OFFCURVE",
"424 850 OFFCURVE",
"415 850 CURVE SMOOTH",
"406 850 OFFCURVE",
"394 857 OFFCURVE",
"381 866 CURVE",
"256 961 LINE",
"232 935 LINE",
"377 778 LINE"
);
}
);
width = 752;
}
);
leftKerningGroup = G;
note = Gcaron;
unicode = 01E6;
},
{
glyphname = Gcircumflex;
lastChange = "2015-10-12 08:28:12 +0000";
layers = (
{
layerId = "66DA30A5-A5D3-4FBB-AA06-F397B31B18DC";
name = Bold;
paths = (
{
closed = 1;
nodes = (
"503 -10 OFFCURVE",
"588 8 OFFCURVE",
"680 66 CURVE",
"680 255 LINE SMOOTH",
"680 307 OFFCURVE",
"694 324 OFFCURVE",
"737 324 CURVE",
"745 331 LINE",
"745 349 LINE",
"447 349 LINE",
"447 318 LINE",
"460 318 LINE SMOOTH",
"513 318 OFFCURVE",
"533 297 OFFCURVE",
"533 268 CURVE SMOOTH",
"533 75 LINE",
"496 52 OFFCURVE",
"445 46 OFFCURVE",
"407 46 CURVE SMOOTH",
"264 46 OFFCURVE",
"191 162 OFFCURVE",
"191 350 CURVE SMOOTH",
"191 537 OFFCURVE",
"281 653 OFFCURVE",
"425 653 CURVE SMOOTH",
"516 653 OFFCURVE",
"610 609 OFFCURVE",
"624 499 CURVE",
"667 499 LINE",
"667 705 LINE",
"616 705 LINE",
"616 660 LINE SMOOTH",
"616 652 OFFCURVE",
"612 649 OFFCURVE",
"606 649 CURVE SMOOTH",
"603 649 OFFCURVE",
"600 650 OFFCURVE",
"597 652 CURVE",
"552 687 OFFCURVE",
"472 710 OFFCURVE",
"391 710 CURVE SMOOTH",
"160 710 OFFCURVE",
"36 568 OFFCURVE",
"36 350 CURVE SMOOTH",
"36 131 OFFCURVE",
"153 -10 OFFCURVE",
"387 -10 CURVE SMOOTH"
);
},
{
closed = 1;
nodes = (
"363 881 LINE SMOOTH",
"375 890 OFFCURVE",
"388 897 OFFCURVE",
"397 897 CURVE SMOOTH",
"406 897 OFFCURVE",
"418 890 OFFCURVE",
"430 881 CURVE SMOOTH",
"555 786 LINE",
"579 812 LINE",
"434 969 LINE",
"359 969 LINE",
"214 812 LINE",
"238 786 LINE"
);
}
);
width = 752;
}
);
leftKerningGroup = G;
note = Gcircumflex;
unicode = 011C;
},
{
glyphname = Gcommaaccent;
lastChange = "2015-10-12 08:28:13 +0000";
layers = (
{
layerId = "66DA30A5-A5D3-4FBB-AA06-F397B31B18DC";
name = Bold;
paths = (
{
closed = 1;
nodes = (
"503 -10 OFFCURVE",
"588 8 OFFCURVE",
"680 66 CURVE",
"680 255 LINE SMOOTH",
"680 307 OFFCURVE",
"694 324 OFFCURVE",
"737 324 CURVE",
"745 331 LINE",
"745 349 LINE",
"447 349 LINE",
"447 318 LINE",
"460 318 LINE SMOOTH",
"513 318 OFFCURVE",
"533 297 OFFCURVE",
"533 268 CURVE SMOOTH",
"533 75 LINE",
"496 52 OFFCURVE",
"445 46 OFFCURVE",
"407 46 CURVE SMOOTH",
"264 46 OFFCURVE",
"191 162 OFFCURVE",
"191 350 CURVE SMOOTH",
"191 537 OFFCURVE",
"281 653 OFFCURVE",
"425 653 CURVE SMOOTH",
"516 653 OFFCURVE",
"610 609 OFFCURVE",
"624 499 CURVE",
"667 499 LINE",
"667 705 LINE",
"616 705 LINE",
"616 660 LINE SMOOTH",
"616 652 OFFCURVE",
"612 649 OFFCURVE",
"606 649 CURVE SMOOTH",
"603 649 OFFCURVE",
"600 650 OFFCURVE",
"597 652 CURVE",
"552 687 OFFCURVE",
"472 710 OFFCURVE",
"391 710 CURVE SMOOTH",
"160 710 OFFCURVE",
"36 568 OFFCURVE",
"36 350 CURVE SMOOTH",
"36 131 OFFCURVE",
"153 -10 OFFCURVE",
"387 -10 CURVE SMOOTH"
);
},
{
closed = 1;
nodes = (
"414 -311 OFFCURVE",
"478 -237 OFFCURVE",
"478 -161 CURVE SMOOTH",
"478 -103 OFFCURVE",
"446 -72 OFFCURVE",
"406 -72 CURVE SMOOTH",
"367 -72 OFFCURVE",
"343 -98 OFFCURVE",
"343 -129 CURVE SMOOTH",
"343 -168 OFFCURVE",
"384 -182 OFFCURVE",
"384 -222 CURVE SMOOTH",
"384 -263 OFFCURVE",
"358 -300 OFFCURVE",
"327 -332 CURVE",
"351 -354 LINE"
);
}
);
width = 752;
}
);
leftKerningGroup = G;
note = Gcommaaccent;
unicode = 0122;
},
{
glyphname = Gdotaccent;
lastChange = "2015-10-12 08:28:13 +0000";
layers = (
{
layerId = "66DA30A5-A5D3-4FBB-AA06-F397B31B18DC";
name = Bold;
paths = (
{
closed = 1;
nodes = (
"503 -10 OFFCURVE",
"588 8 OFFCURVE",
"680 66 CURVE",
"680 255 LINE SMOOTH",
"680 307 OFFCURVE",
"694 324 OFFCURVE",
"737 324 CURVE",
"745 331 LINE",
"745 349 LINE",
"447 349 LINE",
"447 318 LINE",
"460 318 LINE SMOOTH",
"513 318 OFFCURVE",
"533 297 OFFCURVE",
"533 268 CURVE SMOOTH",
"533 75 LINE",
"496 52 OFFCURVE",
"445 46 OFFCURVE",
"407 46 CURVE SMOOTH",
"264 46 OFFCURVE",
"191 162 OFFCURVE",
"191 350 CURVE SMOOTH",
"191 537 OFFCURVE",
"281 653 OFFCURVE",
"425 653 CURVE SMOOTH",
"516 653 OFFCURVE",
"610 609 OFFCURVE",
"624 499 CURVE",
"667 499 LINE",
"667 705 LINE",
"616 705 LINE",
"616 660 LINE SMOOTH",
"616 652 OFFCURVE",
"612 649 OFFCURVE",
"606 649 CURVE SMOOTH",
"603 649 OFFCURVE",
"600 650 OFFCURVE",
"597 652 CURVE",
"552 687 OFFCURVE",
"472 710 OFFCURVE",
"391 710 CURVE SMOOTH",
"160 710 OFFCURVE",
"36 568 OFFCURVE",
"36 350 CURVE SMOOTH",
"36 131 OFFCURVE",
"153 -10 OFFCURVE",
"387 -10 CURVE SMOOTH"
);
},
{
closed = 1;
nodes = (
"439 778 OFFCURVE",
"463 804 OFFCURVE",
"463 838 CURVE SMOOTH",
"463 873 OFFCURVE",
"439 900 OFFCURVE",
"402 900 CURVE SMOOTH",
"364 900 OFFCURVE",
"341 873 OFFCURVE",
"341 838 CURVE SMOOTH",
"341 804 OFFCURVE",
"364 778 OFFCURVE",
"402 778 CURVE SMOOTH"
);
}
);
width = 752;
}
);
leftKerningGroup = G;
note = Gdotaccent;
unicode = 0120;
},
{
glyphname = Gmacron;
lastChange = "2015-10-12 08:28:13 +0000";
layers = (
{
layerId = "66DA30A5-A5D3-4FBB-AA06-F397B31B18DC";
name = Bold;
paths = (
{
closed = 1;
nodes = (
"503 -10 OFFCURVE",
"588 8 OFFCURVE",
"680 66 CURVE",
"680 255 LINE SMOOTH",
"680 307 OFFCURVE",
"694 324 OFFCURVE",
"737 324 CURVE",
"745 331 LINE",
"745 349 LINE",
"447 349 LINE",
"447 318 LINE",
"460 318 LINE SMOOTH",
"513 318 OFFCURVE",
"533 297 OFFCURVE",
"533 268 CURVE SMOOTH",
"533 75 LINE",
"496 52 OFFCURVE",
"445 46 OFFCURVE",
"407 46 CURVE SMOOTH",
"264 46 OFFCURVE",
"191 162 OFFCURVE",
"191 350 CURVE SMOOTH",
"191 537 OFFCURVE",
"281 653 OFFCURVE",
"425 653 CURVE SMOOTH",
"516 653 OFFCURVE",
"610 609 OFFCURVE",
"624 499 CURVE",
"667 499 LINE",
"667 705 LINE",
"616 705 LINE",
"616 660 LINE SMOOTH",
"616 652 OFFCURVE",
"612 649 OFFCURVE",
"606 649 CURVE SMOOTH",
"603 649 OFFCURVE",
"600 650 OFFCURVE",
"597 652 CURVE",
"552 687 OFFCURVE",
"472 710 OFFCURVE",
"391 710 CURVE SMOOTH",
"160 710 OFFCURVE",
"36 568 OFFCURVE",
"36 350 CURVE SMOOTH",
"36 131 OFFCURVE",
"153 -10 OFFCURVE",
"387 -10 CURVE SMOOTH"
);
},
{
closed = 1;
nodes = (
"575 796 LINE",
"575 855 LINE",
"194 855 LINE",
"194 796 LINE"
);
}
);
width = 752;
}
);
leftKerningGroup = G;
note = Gmacron;
unicode = 1E20;
},
{
glyphname = H;
lastChange = "2015-10-12 08:28:12 +0000";
layers = (
{
layerId = "66DA30A5-A5D3-4FBB-AA06-F397B31B18DC";
name = Bold;
paths = (
{
closed = 1;
nodes = (
"800 0 LINE",
"800 37 LINE",
"769 37 LINE SMOOTH",
"731 37 OFFCURVE",
"713 49 OFFCURVE",
"713 75 CURVE SMOOTH",
"713 624 LINE SMOOTH",
"713 650 OFFCURVE",
"731 662 OFFCURVE",
"769 662 CURVE SMOOTH",
"800 662 LINE",
"800 700 LINE",
"473 700 LINE",
"473 662 LINE",
"503 662 LINE SMOOTH",
"542 662 OFFCURVE",
"560 650 OFFCURVE",
"560 624 CURVE SMOOTH",
"560 75 LINE SMOOTH",
"560 49 OFFCURVE",
"542 37 OFFCURVE",
"503 37 CURVE SMOOTH",
"473 37 LINE",
"473 0 LINE"
);
},
{
closed = 1;
nodes = (
"342 0 LINE",
"342 37 LINE",
"311 37 LINE SMOOTH",
"273 37 OFFCURVE",
"256 49 OFFCURVE",
"256 75 CURVE SMOOTH",
"256 624 LINE SMOOTH",
"256 650 OFFCURVE",
"273 662 OFFCURVE",
"311 662 CURVE SMOOTH",
"342 662 LINE",
"342 700 LINE",
"16 700 LINE",
"16 662 LINE",
"46 662 LINE SMOOTH",
"85 662 OFFCURVE",
"103 650 OFFCURVE",
"103 624 CURVE SMOOTH",
"103 75 LINE SMOOTH",
"103 49 OFFCURVE",
"85 37 OFFCURVE",
"46 37 CURVE SMOOTH",
"16 37 LINE",
"16 0 LINE"
);
},
{
closed = 1;
nodes = (
"627 334 LINE",
"627 389 LINE",
"179 389 LINE",
"179 334 LINE"
);
}
);
width = 816;
}
);
note = H;
unicode = 0048;
},
{
glyphname = Hbar;
lastChange = "2015-10-12 08:28:13 +0000";
layers = (
{
layerId = "66DA30A5-A5D3-4FBB-AA06-F397B31B18DC";
name = Bold;
paths = (
{
closed = 1;
nodes = (
"800 0 LINE",
"800 37 LINE",
"769 37 LINE SMOOTH",
"731 37 OFFCURVE",
"713 49 OFFCURVE",
"713 75 CURVE SMOOTH",
"713 624 LINE SMOOTH",
"713 650 OFFCURVE",
"731 662 OFFCURVE",
"769 662 CURVE SMOOTH",
"800 662 LINE",
"800 700 LINE",
"473 700 LINE",
"473 662 LINE",
"503 662 LINE SMOOTH",
"542 662 OFFCURVE",
"560 650 OFFCURVE",
"560 624 CURVE SMOOTH",
"560 75 LINE SMOOTH",
"560 49 OFFCURVE",
"542 37 OFFCURVE",
"503 37 CURVE SMOOTH",
"473 37 LINE",
"473 0 LINE"
);
},
{
closed = 1;
nodes = (
"342 0 LINE",
"342 37 LINE",
"311 37 LINE SMOOTH",
"273 37 OFFCURVE",
"256 49 OFFCURVE",
"256 75 CURVE SMOOTH",
"256 624 LINE SMOOTH",
"256 650 OFFCURVE",
"273 662 OFFCURVE",
"311 662 CURVE SMOOTH",
"342 662 LINE",
"342 700 LINE",
"16 700 LINE",
"16 662 LINE",
"46 662 LINE SMOOTH",
"85 662 OFFCURVE",
"103 650 OFFCURVE",
"103 624 CURVE SMOOTH",
"103 75 LINE SMOOTH",
"103 49 OFFCURVE",
"85 37 OFFCURVE",
"46 37 CURVE SMOOTH",
"16 37 LINE",
"16 0 LINE"
);
},
{
closed = 1;
nodes = (
"627 334 LINE",
"627 389 LINE",
"179 389 LINE",
"179 334 LINE"
);
},
{
closed = 1;
nodes = (
"771 492 LINE",
"771 546 LINE",
"38 546 LINE",
"38 492 LINE"
);
}
);
width = 816;
}
);
note = Hbar;
unicode = 0126;
},
{
glyphname = Hbrevebelow;
lastChange = "2015-10-12 08:28:12 +0000";
layers = (
{
layerId = "66DA30A5-A5D3-4FBB-AA06-F397B31B18DC";
name = Bold;
paths = (
{
closed = 1;
nodes = (
"800 0 LINE",
"800 37 LINE",
"769 37 LINE SMOOTH",
"731 37 OFFCURVE",
"713 49 OFFCURVE",
"713 75 CURVE SMOOTH",
"713 624 LINE SMOOTH",
"713 650 OFFCURVE",
"731 662 OFFCURVE",
"769 662 CURVE SMOOTH",
"800 662 LINE",
"800 700 LINE",
"473 700 LINE",
"473 662 LINE",
"503 662 LINE SMOOTH",
"542 662 OFFCURVE",
"560 650 OFFCURVE",
"560 624 CURVE SMOOTH",
"560 75 LINE SMOOTH",
"560 49 OFFCURVE",
"542 37 OFFCURVE",
"503 37 CURVE SMOOTH",
"473 37 LINE",
"473 0 LINE"
);
},
{
closed = 1;
nodes = (
"527 -198 OFFCURVE",
"561 -126 OFFCURVE",
"563 -53 CURVE",
"523 -53 LINE",
"519 -94 OFFCURVE",
"489 -133 OFFCURVE",
"404 -133 CURVE SMOOTH",
"319 -133 OFFCURVE",
"287 -94 OFFCURVE",
"282 -53 CURVE",
"243 -53 LINE",
"245 -130 OFFCURVE",
"279 -198 OFFCURVE",
"404 -198 CURVE SMOOTH"
);
},
{
closed = 1;
nodes = (
"342 0 LINE",
"342 37 LINE",
"311 37 LINE SMOOTH",
"273 37 OFFCURVE",
"256 49 OFFCURVE",
"256 75 CURVE SMOOTH",
"256 624 LINE SMOOTH",
"256 650 OFFCURVE",
"273 662 OFFCURVE",
"311 662 CURVE SMOOTH",
"342 662 LINE",
"342 700 LINE",
"16 700 LINE",
"16 662 LINE",
"46 662 LINE SMOOTH",
"85 662 OFFCURVE",
"103 650 OFFCURVE",
"103 624 CURVE SMOOTH",
"103 75 LINE SMOOTH",
"103 49 OFFCURVE",
"85 37 OFFCURVE",
"46 37 CURVE SMOOTH",
"16 37 LINE",
"16 0 LINE"
);
},
{
closed = 1;
nodes = (
"627 334 LINE",
"627 389 LINE",
"179 389 LINE",
"179 334 LINE"
);
}
);
width = 816;
}
);
note = Hbrevebelow;
unicode = 1E2A;
},
{
glyphname = Hcircumflex;
lastChange = "2015-10-12 08:28:13 +0000";
layers = (
{
layerId = "66DA30A5-A5D3-4FBB-AA06-F397B31B18DC";
name = Bold;
paths = (
{
closed = 1;
nodes = (
"800 0 LINE",
"800 37 LINE",
"769 37 LINE SMOOTH",
"731 37 OFFCURVE",
"713 49 OFFCURVE",
"713 75 CURVE SMOOTH",
"713 624 LINE SMOOTH",
"713 650 OFFCURVE",
"731 662 OFFCURVE",
"769 662 CURVE SMOOTH",
"800 662 LINE",
"800 700 LINE",
"473 700 LINE",
"473 662 LINE",
"503 662 LINE SMOOTH",
"542 662 OFFCURVE",
"560 650 OFFCURVE",
"560 624 CURVE SMOOTH",
"560 75 LINE SMOOTH",
"560 49 OFFCURVE",
"542 37 OFFCURVE",
"503 37 CURVE SMOOTH",
"473 37 LINE",
"473 0 LINE"
);
},
{
closed = 1;
nodes = (
"342 0 LINE",
"342 37 LINE",
"311 37 LINE SMOOTH",
"273 37 OFFCURVE",
"256 49 OFFCURVE",
"256 75 CURVE SMOOTH",
"256 624 LINE SMOOTH",
"256 650 OFFCURVE",
"273 662 OFFCURVE",
"311 662 CURVE SMOOTH",
"342 662 LINE",
"342 700 LINE",
"16 700 LINE",
"16 662 LINE",
"46 662 LINE SMOOTH",
"85 662 OFFCURVE",
"103 650 OFFCURVE",
"103 624 CURVE SMOOTH",
"103 75 LINE SMOOTH",
"103 49 OFFCURVE",
"85 37 OFFCURVE",
"46 37 CURVE SMOOTH",
"16 37 LINE",
"16 0 LINE"
);
},
{
closed = 1;
nodes = (
"627 334 LINE",
"627 389 LINE",
"179 389 LINE",
"179 334 LINE"
);
},
{
closed = 1;
nodes = (
"373 873 LINE SMOOTH",
"385 882 OFFCURVE",
"398 889 OFFCURVE",
"407 889 CURVE SMOOTH",
"416 889 OFFCURVE",
"428 882 OFFCURVE",
"440 873 CURVE SMOOTH",
"565 778 LINE",
"589 804 LINE",
"444 961 LINE",
"369 961 LINE",
"224 804 LINE",
"248 778 LINE"
);
}
);
width = 816;
}
);
note = Hcircumflex;
unicode = 0124;
},
{
glyphname = Hdotbelow;
lastChange = "2015-10-12 08:28:13 +0000";
layers = (
{
layerId = "66DA30A5-A5D3-4FBB-AA06-F397B31B18DC";
name = Bold;
paths = (
{
closed = 1;
nodes = (
"800 0 LINE",
"800 37 LINE",
"769 37 LINE SMOOTH",
"731 37 OFFCURVE",
"713 49 OFFCURVE",
"713 75 CURVE SMOOTH",
"713 624 LINE SMOOTH",
"713 650 OFFCURVE",
"731 662 OFFCURVE",
"769 662 CURVE SMOOTH",
"800 662 LINE",
"800 700 LINE",
"473 700 LINE",
"473 662 LINE",
"503 662 LINE SMOOTH",
"542 662 OFFCURVE",
"560 650 OFFCURVE",
"560 624 CURVE SMOOTH",
"560 75 LINE SMOOTH",
"560 49 OFFCURVE",
"542 37 OFFCURVE",
"503 37 CURVE SMOOTH",
"473 37 LINE",
"473 0 LINE"
);
},
{
closed = 1;
nodes = (
"443 -188 OFFCURVE",
"467 -161 OFFCURVE",
"467 -127 CURVE SMOOTH",
"467 -92 OFFCURVE",
"443 -64 OFFCURVE",
"406 -64 CURVE SMOOTH",
"368 -64 OFFCURVE",
"344 -92 OFFCURVE",
"344 -127 CURVE SMOOTH",
"344 -161 OFFCURVE",
"368 -188 OFFCURVE",
"406 -188 CURVE SMOOTH"
);
},
{
closed = 1;
nodes = (
"342 0 LINE",
"342 37 LINE",
"311 37 LINE SMOOTH",
"273 37 OFFCURVE",
"256 49 OFFCURVE",
"256 75 CURVE SMOOTH",
"256 624 LINE SMOOTH",
"256 650 OFFCURVE",
"273 662 OFFCURVE",
"311 662 CURVE SMOOTH",
"342 662 LINE",
"342 700 LINE",
"16 700 LINE",
"16 662 LINE",
"46 662 LINE SMOOTH",
"85 662 OFFCURVE",
"103 650 OFFCURVE",
"103 624 CURVE SMOOTH",
"103 75 LINE SMOOTH",
"103 49 OFFCURVE",
"85 37 OFFCURVE",
"46 37 CURVE SMOOTH",
"16 37 LINE",
"16 0 LINE"
);
},
{
closed = 1;
nodes = (
"627 334 LINE",
"627 389 LINE",
"179 389 LINE",
"179 334 LINE"
);
}
);
width = 816;
}
);
note = Hdotbelow;
unicode = 1E24;
},
{
glyphname = I;
lastChange = "2015-10-12 08:28:11 +0000";
layers = (
{
layerId = "66DA30A5-A5D3-4FBB-AA06-F397B31B18DC";
name = Bold;
paths = (
{
closed = 1;
nodes = (
"347 0 LINE",
"347 37 LINE",
"317 37 LINE SMOOTH",
"278 37 OFFCURVE",
"260 49 OFFCURVE",
"260 75 CURVE SMOOTH",
"260 624 LINE SMOOTH",
"260 650 OFFCURVE",
"278 662 OFFCURVE",
"317 662 CURVE SMOOTH",
"347 662 LINE",
"347 700 LINE",
"21 700 LINE",
"21 662 LINE",
"51 662 LINE SMOOTH",
"89 662 OFFCURVE",
"107 650 OFFCURVE",
"107 624 CURVE SMOOTH",
"107 75 LINE SMOOTH",
"107 49 OFFCURVE",
"89 37 OFFCURVE",
"51 37 CURVE SMOOTH",
"21 37 LINE",
"21 0 LINE"
);
}
);
width = 368;
}
);
note = I;
unicode = 0049;
},
{
glyphname = IJ;
lastChange = "2015-10-12 08:28:13 +0000";
layers = (
{
layerId = "66DA30A5-A5D3-4FBB-AA06-F397B31B18DC";
name = Bold;
paths = (
{
closed = 1;
nodes = (
"557 -114 OFFCURVE",
"669 -42 OFFCURVE",
"669 116 CURVE SMOOTH",
"669 624 LINE SMOOTH",
"669 650 OFFCURVE",
"686 662 OFFCURVE",
"724 662 CURVE SMOOTH",
"755 662 LINE",
"755 700 LINE",
"429 700 LINE",
"429 662 LINE",
"459 662 LINE SMOOTH",
"498 662 OFFCURVE",
"516 650 OFFCURVE",
"516 624 CURVE SMOOTH",
"516 118 LINE SMOOTH",
"516 16 OFFCURVE",
"492 -63 OFFCURVE",
"395 -88 CURVE",
"401 -114 LINE"
);
},
{
closed = 1;
nodes = (
"347 0 LINE",
"347 37 LINE",
"317 37 LINE SMOOTH",
"278 37 OFFCURVE",
"260 49 OFFCURVE",
"260 75 CURVE SMOOTH",
"260 624 LINE SMOOTH",
"260 650 OFFCURVE",
"278 662 OFFCURVE",
"317 662 CURVE SMOOTH",
"347 662 LINE",
"347 700 LINE",
"21 700 LINE",
"21 662 LINE",
"51 662 LINE SMOOTH",
"89 662 OFFCURVE",
"107 650 OFFCURVE",
"107 624 CURVE SMOOTH",
"107 75 LINE SMOOTH",
"107 49 OFFCURVE",
"89 37 OFFCURVE",
"51 37 CURVE SMOOTH",
"21 37 LINE",
"21 0 LINE"
);
}
);
width = 776;
}
);
note = IJ;
rightKerningGroup = J;
unicode = 0132;
},
{
glyphname = Iacute;
lastChange = "2015-10-12 08:28:13 +0000";
layers = (
{
layerId = "66DA30A5-A5D3-4FBB-AA06-F397B31B18DC";
name = Bold;
paths = (
{
closed = 1;
nodes = (
"347 0 LINE",
"347 37 LINE",
"317 37 LINE SMOOTH",
"278 37 OFFCURVE",
"260 49 OFFCURVE",
"260 75 CURVE SMOOTH",
"260 624 LINE SMOOTH",
"260 650 OFFCURVE",
"278 662 OFFCURVE",
"317 662 CURVE SMOOTH",
"347 662 LINE",
"347 700 LINE",
"21 700 LINE",
"21 662 LINE",
"51 662 LINE SMOOTH",
"89 662 OFFCURVE",
"107 650 OFFCURVE",
"107 624 CURVE SMOOTH",
"107 75 LINE SMOOTH",
"107 49 OFFCURVE",
"89 37 OFFCURVE",
"51 37 CURVE SMOOTH",
"21 37 LINE",
"21 0 LINE"
);
},
{
closed = 1;
nodes = (
"252 869 LINE SMOOTH",
"282 887 OFFCURVE",
"300 905 OFFCURVE",
"300 928 CURVE SMOOTH",
"300 948 OFFCURVE",
"285 971 OFFCURVE",
"251 971 CURVE SMOOTH",
"220 971 OFFCURVE",
"197 946 OFFCURVE",
"190 938 CURVE",
"68 815 LINE",
"95 777 LINE"
);
}
);
width = 368;
}
);
note = Iacute;
unicode = 00CD;
},
{
glyphname = Ibreve;
lastChange = "2015-10-12 08:28:13 +0000";
layers = (
{
layerId = "66DA30A5-A5D3-4FBB-AA06-F397B31B18DC";
name = Bold;
paths = (
{
closed = 1;
nodes = (
"347 0 LINE",
"347 37 LINE",
"317 37 LINE SMOOTH",
"278 37 OFFCURVE",
"260 49 OFFCURVE",
"260 75 CURVE SMOOTH",
"260 624 LINE SMOOTH",
"260 650 OFFCURVE",
"278 662 OFFCURVE",
"317 662 CURVE SMOOTH",
"347 662 LINE",
"347 700 LINE",
"21 700 LINE",
"21 662 LINE",
"51 662 LINE SMOOTH",
"89 662 OFFCURVE",
"107 650 OFFCURVE",
"107 624 CURVE SMOOTH",
"107 75 LINE SMOOTH",
"107 49 OFFCURVE",
"89 37 OFFCURVE",
"51 37 CURVE SMOOTH",
"21 37 LINE",
"21 0 LINE"
);
},
{
closed = 1;
nodes = (
"307 776 OFFCURVE",
"341 849 OFFCURVE",
"343 922 CURVE",
"303 922 LINE",
"299 880 OFFCURVE",
"269 841 OFFCURVE",
"184 841 CURVE SMOOTH",
"99 841 OFFCURVE",
"67 880 OFFCURVE",
"62 922 CURVE",
"23 922 LINE",
"25 845 OFFCURVE",
"59 776 OFFCURVE",
"184 776 CURVE SMOOTH"
);
}
);
width = 368;
}
);
note = Ibreve;
unicode = 012C;
},
{
glyphname = Icaron;
lastChange = "2015-10-12 08:28:13 +0000";
layers = (
{
layerId = "66DA30A5-A5D3-4FBB-AA06-F397B31B18DC";
name = Bold;
paths = (
{
closed = 1;
nodes = (
"347 0 LINE",
"347 37 LINE",
"317 37 LINE SMOOTH",
"278 37 OFFCURVE",
"260 49 OFFCURVE",
"260 75 CURVE SMOOTH",
"260 624 LINE SMOOTH",
"260 650 OFFCURVE",
"278 662 OFFCURVE",
"317 662 CURVE SMOOTH",
"347 662 LINE",
"347 700 LINE",
"21 700 LINE",
"21 662 LINE",
"51 662 LINE SMOOTH",
"89 662 OFFCURVE",
"107 650 OFFCURVE",
"107 624 CURVE SMOOTH",
"107 75 LINE SMOOTH",
"107 49 OFFCURVE",
"89 37 OFFCURVE",
"51 37 CURVE SMOOTH",
"21 37 LINE",
"21 0 LINE"
);
},
{
closed = 1;
nodes = (
"221 778 LINE",
"366 935 LINE",
"342 961 LINE",
"217 866 LINE SMOOTH",
"205 857 OFFCURVE",
"193 850 OFFCURVE",
"184 850 CURVE SMOOTH",
"175 850 OFFCURVE",
"163 857 OFFCURVE",
"150 866 CURVE",
"25 961 LINE",
"1 935 LINE",
"146 778 LINE"
);
}
);
width = 369;
}
);
note = Icaron;
unicode = 01CF;
},
{
glyphname = Icircumflex;
lastChange = "2015-10-12 08:28:13 +0000";
layers = (
{
layerId = "66DA30A5-A5D3-4FBB-AA06-F397B31B18DC";
name = Bold;
paths = (
{
closed = 1;
nodes = (
"347 0 LINE",
"347 37 LINE",
"317 37 LINE SMOOTH",
"278 37 OFFCURVE",
"260 49 OFFCURVE",
"260 75 CURVE SMOOTH",
"260 624 LINE SMOOTH",
"260 650 OFFCURVE",
"278 662 OFFCURVE",
"317 662 CURVE SMOOTH",
"347 662 LINE",
"347 700 LINE",
"21 700 LINE",
"21 662 LINE",
"51 662 LINE SMOOTH",
"89 662 OFFCURVE",
"107 650 OFFCURVE",
"107 624 CURVE SMOOTH",
"107 75 LINE SMOOTH",
"107 49 OFFCURVE",
"89 37 OFFCURVE",
"51 37 CURVE SMOOTH",
"21 37 LINE",
"21 0 LINE"
);
},
{
closed = 1;
nodes = (
"150 873 LINE SMOOTH",
"162 882 OFFCURVE",
"175 889 OFFCURVE",
"184 889 CURVE SMOOTH",
"193 889 OFFCURVE",
"205 882 OFFCURVE",
"217 873 CURVE SMOOTH",
"342 778 LINE",
"366 804 LINE",
"221 961 LINE",
"146 961 LINE",
"1 804 LINE",
"25 778 LINE"
);
}
);
width = 368;
}
);
note = Icircumflex;
unicode = 00CE;
},
{
glyphname = Idieresis;
lastChange = "2015-10-12 08:28:13 +0000";
layers = (
{
layerId = "66DA30A5-A5D3-4FBB-AA06-F397B31B18DC";
name = Bold;
paths = (
{
closed = 1;
nodes = (
"347 0 LINE",
"347 37 LINE",
"317 37 LINE SMOOTH",
"278 37 OFFCURVE",
"260 49 OFFCURVE",
"260 75 CURVE SMOOTH",
"260 624 LINE SMOOTH",
"260 650 OFFCURVE",
"278 662 OFFCURVE",
"317 662 CURVE SMOOTH",
"347 662 LINE",
"347 700 LINE",
"21 700 LINE",
"21 662 LINE",
"51 662 LINE SMOOTH",
"89 662 OFFCURVE",
"107 650 OFFCURVE",
"107 624 CURVE SMOOTH",
"107 75 LINE SMOOTH",
"107 49 OFFCURVE",
"89 37 OFFCURVE",
"51 37 CURVE SMOOTH",
"21 37 LINE",
"21 0 LINE"
);
},
{
closed = 1;
nodes = (
"105 778 OFFCURVE",
"129 804 OFFCURVE",
"129 838 CURVE SMOOTH",
"129 874 OFFCURVE",
"105 900 OFFCURVE",
"67 900 CURVE SMOOTH",
"29 900 OFFCURVE",
"6 874 OFFCURVE",
"6 838 CURVE SMOOTH",
"6 804 OFFCURVE",
"29 778 OFFCURVE",
"67 778 CURVE SMOOTH"
);
},
{
closed = 1;
nodes = (
"337 778 OFFCURVE",
"361 804 OFFCURVE",
"361 838 CURVE SMOOTH",
"361 874 OFFCURVE",
"337 900 OFFCURVE",
"300 900 CURVE SMOOTH",
"261 900 OFFCURVE",
"238 874 OFFCURVE",
"238 838 CURVE SMOOTH",
"238 804 OFFCURVE",
"261 778 OFFCURVE",
"300 778 CURVE SMOOTH"
);
}
);
width = 368;
}
);
note = Idieresis;
unicode = 00CF;
},
{
glyphname = Idotaccent;
lastChange = "2015-10-12 08:28:13 +0000";
layers = (
{
layerId = "66DA30A5-A5D3-4FBB-AA06-F397B31B18DC";
name = Bold;
paths = (
{
closed = 1;
nodes = (
"347 0 LINE",
"347 37 LINE",
"317 37 LINE SMOOTH",
"278 37 OFFCURVE",
"260 49 OFFCURVE",
"260 75 CURVE SMOOTH",
"260 624 LINE SMOOTH",
"260 650 OFFCURVE",
"278 662 OFFCURVE",
"317 662 CURVE SMOOTH",
"347 662 LINE",
"347 700 LINE",
"21 700 LINE",
"21 662 LINE",
"51 662 LINE SMOOTH",
"89 662 OFFCURVE",
"107 650 OFFCURVE",
"107 624 CURVE SMOOTH",
"107 75 LINE SMOOTH",
"107 49 OFFCURVE",
"89 37 OFFCURVE",
"51 37 CURVE SMOOTH",
"21 37 LINE",
"21 0 LINE"
);
},
{
closed = 1;
nodes = (
"220 770 OFFCURVE",
"244 796 OFFCURVE",
"244 830 CURVE SMOOTH",
"244 865 OFFCURVE",
"220 892 OFFCURVE",
"183 892 CURVE SMOOTH",
"145 892 OFFCURVE",
"122 865 OFFCURVE",
"122 830 CURVE SMOOTH",
"122 796 OFFCURVE",
"145 770 OFFCURVE",
"183 770 CURVE SMOOTH"
);
}
);
width = 368;
}
);
note = Idotaccent;
unicode = 0130;
},
{
glyphname = Idotbelow;
lastChange = "2015-10-12 08:28:13 +0000";
layers = (
{
layerId = "66DA30A5-A5D3-4FBB-AA06-F397B31B18DC";
name = Bold;
paths = (
{
closed = 1;
nodes = (
"347 0 LINE",
"347 37 LINE",
"317 37 LINE SMOOTH",
"278 37 OFFCURVE",
"260 49 OFFCURVE",
"260 75 CURVE SMOOTH",
"260 624 LINE SMOOTH",
"260 650 OFFCURVE",
"278 662 OFFCURVE",
"317 662 CURVE SMOOTH",
"347 662 LINE",
"347 700 LINE",
"21 700 LINE",
"21 662 LINE",
"51 662 LINE SMOOTH",
"89 662 OFFCURVE",
"107 650 OFFCURVE",
"107 624 CURVE SMOOTH",
"107 75 LINE SMOOTH",
"107 49 OFFCURVE",
"89 37 OFFCURVE",
"51 37 CURVE SMOOTH",
"21 37 LINE",
"21 0 LINE"
);
},
{
closed = 1;
nodes = (
"221 -188 OFFCURVE",
"245 -161 OFFCURVE",
"245 -127 CURVE SMOOTH",
"245 -92 OFFCURVE",
"221 -64 OFFCURVE",
"184 -64 CURVE SMOOTH",
"146 -64 OFFCURVE",
"122 -92 OFFCURVE",
"122 -127 CURVE SMOOTH",
"122 -161 OFFCURVE",
"146 -188 OFFCURVE",
"184 -188 CURVE SMOOTH"
);
}
);
width = 369;
}
);
note = Idotbelow;
unicode = 1ECA;
},
{
glyphname = Igrave;
lastChange = "2015-10-12 08:28:12 +0000";
layers = (
{
layerId = "66DA30A5-A5D3-4FBB-AA06-F397B31B18DC";
name = Bold;
paths = (
{
closed = 1;
nodes = (
"347 0 LINE",
"347 37 LINE",
"317 37 LINE SMOOTH",
"278 37 OFFCURVE",
"260 49 OFFCURVE",
"260 75 CURVE SMOOTH",
"260 624 LINE SMOOTH",
"260 650 OFFCURVE",
"278 662 OFFCURVE",
"317 662 CURVE SMOOTH",
"347 662 LINE",
"347 700 LINE",
"21 700 LINE",
"21 662 LINE",
"51 662 LINE SMOOTH",
"89 662 OFFCURVE",
"107 650 OFFCURVE",
"107 624 CURVE SMOOTH",
"107 75 LINE SMOOTH",
"107 49 OFFCURVE",
"89 37 OFFCURVE",
"51 37 CURVE SMOOTH",
"21 37 LINE",
"21 0 LINE"
);
},
{
closed = 1;
nodes = (
"299 815 LINE",
"178 937 LINE",
"170 946 OFFCURVE",
"147 971 OFFCURVE",
"116 971 CURVE SMOOTH",
"82 971 OFFCURVE",
"68 949 OFFCURVE",
"68 929 CURVE SMOOTH",
"68 905 OFFCURVE",
"84 887 OFFCURVE",
"114 869 CURVE SMOOTH",
"272 777 LINE"
);
}
);
width = 368;
}
);
note = Igrave;
unicode = 00CC;
},
{
glyphname = Ihookabove;
lastChange = "2015-10-12 08:28:13 +0000";
layers = (
{
layerId = "66DA30A5-A5D3-4FBB-AA06-F397B31B18DC";
name = Bold;
paths = (
{
closed = 1;
nodes = (
"347 0 LINE",
"347 37 LINE",
"317 37 LINE SMOOTH",
"278 37 OFFCURVE",
"260 49 OFFCURVE",
"260 75 CURVE SMOOTH",
"260 624 LINE SMOOTH",
"260 650 OFFCURVE",
"278 662 OFFCURVE",
"317 662 CURVE SMOOTH",
"347 662 LINE",
"347 700 LINE",
"21 700 LINE",
"21 662 LINE",
"51 662 LINE SMOOTH",
"89 662 OFFCURVE",
"107 650 OFFCURVE",
"107 624 CURVE SMOOTH",
"107 75 LINE SMOOTH",
"107 49 OFFCURVE",
"89 37 OFFCURVE",
"51 37 CURVE SMOOTH",
"21 37 LINE",
"21 0 LINE"
);
},
{
closed = 1;
nodes = (
"223 801 LINE",
"206 805 OFFCURVE",
"192 811 OFFCURVE",
"192 829 CURVE SMOOTH",
"192 869 OFFCURVE",
"296 880 OFFCURVE",
"296 941 CURVE SMOOTH",
"296 988 OFFCURVE",
"249 1013 OFFCURVE",
"189 1013 CURVE SMOOTH",
"121 1013 OFFCURVE",
"84 986 OFFCURVE",
"84 954 CURVE SMOOTH",
"84 932 OFFCURVE",
"98 922 OFFCURVE",
"115 922 CURVE SMOOTH",
"139 922 OFFCURVE",
"147 942 OFFCURVE",
"149 952 CURVE",
"152 973 OFFCURVE",
"172 979 OFFCURVE",
"189 979 CURVE SMOOTH",
"209 979 OFFCURVE",
"222 963 OFFCURVE",
"222 946 CURVE SMOOTH",
"222 892 OFFCURVE",
"132 881 OFFCURVE",
"132 831 CURVE SMOOTH",
"132 800 OFFCURVE",
"160 777 OFFCURVE",
"213 777 CURVE"
);
}
);
width = 369;
}
);
note = Ihookabove;
unicode = 1EC8;
},
{
glyphname = Iogonek;
lastChange = "2015-10-12 08:28:13 +0000";
layers = (
{
layerId = "66DA30A5-A5D3-4FBB-AA06-F397B31B18DC";
name = Bold;
paths = (
{
closed = 1;
nodes = (
"347 0 LINE",
"347 37 LINE",
"317 37 LINE SMOOTH",
"278 37 OFFCURVE",
"260 49 OFFCURVE",
"260 75 CURVE SMOOTH",
"260 624 LINE SMOOTH",
"260 650 OFFCURVE",
"278 662 OFFCURVE",
"317 662 CURVE SMOOTH",
"347 662 LINE",
"347 700 LINE",
"21 700 LINE",
"21 662 LINE",
"51 662 LINE SMOOTH",
"89 662 OFFCURVE",
"107 650 OFFCURVE",
"107 624 CURVE SMOOTH",
"107 75 LINE SMOOTH",
"107 49 OFFCURVE",
"89 37 OFFCURVE",
"51 37 CURVE SMOOTH",
"21 37 LINE",
"21 0 LINE"
);
},
{
closed = 1;
nodes = (
"256 -220 OFFCURVE",
"293 -209 OFFCURVE",
"324 -185 CURVE",
"313 -161 LINE",
"299 -168 OFFCURVE",
"279 -173 OFFCURVE",
"265 -173 CURVE SMOOTH",
"231 -173 OFFCURVE",
"205 -154 OFFCURVE",
"205 -113 CURVE SMOOTH",
"205 -72 OFFCURVE",
"229 -30 OFFCURVE",
"280 8 CURVE",
"226 8 LINE",
"166 -23 OFFCURVE",
"116 -72 OFFCURVE",
"116 -127 CURVE SMOOTH",
"116 -163 OFFCURVE",
"137 -220 OFFCURVE",
"227 -220 CURVE SMOOTH"
);
}
);
width = 368;
}
);
note = Iogonek;
unicode = 012E;
},
{
glyphname = Itilde;
lastChange = "2015-10-12 08:28:13 +0000";
layers = (
{
layerId = "66DA30A5-A5D3-4FBB-AA06-F397B31B18DC";
name = Bold;
paths = (
{
closed = 1;
nodes = (
"347 0 LINE",
"347 37 LINE",
"317 37 LINE SMOOTH",
"278 37 OFFCURVE",
"260 49 OFFCURVE",
"260 75 CURVE SMOOTH",
"260 624 LINE SMOOTH",
"260 650 OFFCURVE",
"278 662 OFFCURVE",
"317 662 CURVE SMOOTH",
"347 662 LINE",
"347 700 LINE",
"21 700 LINE",
"21 662 LINE",
"51 662 LINE SMOOTH",
"89 662 OFFCURVE",
"107 650 OFFCURVE",
"107 624 CURVE SMOOTH",
"107 75 LINE SMOOTH",
"107 49 OFFCURVE",
"89 37 OFFCURVE",
"51 37 CURVE SMOOTH",
"21 37 LINE",
"21 0 LINE"
);
},
{
closed = 1;
nodes = (
"44 814 OFFCURVE",
"61 833 OFFCURVE",
"97 833 CURVE SMOOTH",
"156 833 OFFCURVE",
"210 784 OFFCURVE",
"268 784 CURVE SMOOTH",
"339 784 OFFCURVE",
"372 849 OFFCURVE",
"388 897 CURVE",
"360 912 LINE",
"341 872 OFFCURVE",
"325 853 OFFCURVE",
"288 853 CURVE SMOOTH",
"230 853 OFFCURVE",
"175 901 OFFCURVE",
"117 901 CURVE SMOOTH",
"48 901 OFFCURVE",
"13 838 OFFCURVE",
"-3 790 CURVE",
"25 775 LINE"
);
}
);
width = 368;
}
);
note = Itilde;
unicode = 0128;
},
{
glyphname = J;
lastChange = "2015-10-12 08:28:11 +0000";
layers = (
{
layerId = "66DA30A5-A5D3-4FBB-AA06-F397B31B18DC";
name = Bold;
paths = (
{
closed = 1;
nodes = (
"203 -114 OFFCURVE",
"315 -42 OFFCURVE",
"315 116 CURVE SMOOTH",
"315 624 LINE SMOOTH",
"315 650 OFFCURVE",
"332 662 OFFCURVE",
"370 662 CURVE SMOOTH",
"401 662 LINE",
"401 700 LINE",
"75 700 LINE",
"75 662 LINE",
"105 662 LINE SMOOTH",
"144 662 OFFCURVE",
"162 650 OFFCURVE",
"162 624 CURVE SMOOTH",
"162 118 LINE SMOOTH",
"162 16 OFFCURVE",
"138 -63 OFFCURVE",
"41 -88 CURVE",
"47 -114 LINE"
);
}
);
width = 422;
}
);
leftKerningGroup = J;
note = J;
rightKerningGroup = J;
unicode = 004A;
},
{
glyphname = Jcircumflex;
lastChange = "2015-10-12 08:28:13 +0000";
layers = (
{
layerId = "66DA30A5-A5D3-4FBB-AA06-F397B31B18DC";
name = Bold;
paths = (
{
closed = 1;
nodes = (
"203 -114 OFFCURVE",
"315 -42 OFFCURVE",
"315 116 CURVE SMOOTH",
"315 624 LINE SMOOTH",
"315 650 OFFCURVE",
"332 662 OFFCURVE",
"370 662 CURVE SMOOTH",
"401 662 LINE",
"401 700 LINE",
"75 700 LINE",
"75 662 LINE",
"105 662 LINE SMOOTH",
"144 662 OFFCURVE",
"162 650 OFFCURVE",
"162 624 CURVE SMOOTH",
"162 118 LINE SMOOTH",
"162 16 OFFCURVE",
"138 -63 OFFCURVE",
"41 -88 CURVE",
"47 -114 LINE"
);
},
{
closed = 1;
nodes = (
"201 881 LINE SMOOTH",
"213 890 OFFCURVE",
"226 897 OFFCURVE",
"235 897 CURVE SMOOTH",
"244 897 OFFCURVE",
"256 890 OFFCURVE",
"268 881 CURVE SMOOTH",
"393 786 LINE",
"417 812 LINE",
"272 969 LINE",
"197 969 LINE",
"52 812 LINE",
"76 786 LINE"
);
}
);
width = 422;
}
);
leftKerningGroup = J;
note = Jcircumflex;
rightKerningGroup = J;
unicode = 0134;
},
{
glyphname = K;
lastChange = "2015-10-12 08:28:13 +0000";
layers = (
{
layerId = "66DA30A5-A5D3-4FBB-AA06-F397B31B18DC";
name = Bold;
paths = (
{
closed = 1;
nodes = (
"342 0 LINE",
"342 37 LINE",
"311 37 LINE SMOOTH",
"273 37 OFFCURVE",
"256 49 OFFCURVE",
"256 75 CURVE SMOOTH",
"256 624 LINE SMOOTH",
"256 650 OFFCURVE",
"273 662 OFFCURVE",
"311 662 CURVE SMOOTH",
"342 662 LINE",
"342 700 LINE",
"16 700 LINE",
"16 662 LINE",
"46 662 LINE SMOOTH",
"85 662 OFFCURVE",
"103 650 OFFCURVE",
"103 624 CURVE SMOOTH",
"103 75 LINE SMOOTH",
"103 49 OFFCURVE",
"85 37 OFFCURVE",
"46 37 CURVE SMOOTH",
"16 37 LINE",
"16 0 LINE"
);
},
{
closed = 1;
nodes = (
"758 0 LINE",
"758 37 LINE",
"728 37 LINE SMOOTH",
"692 37 OFFCURVE",
"661 63 OFFCURVE",
"636 89 CURVE SMOOTH",
"347 395 LINE",
"248 309 LINE",
"542 0 LINE"
);
},
{
closed = 1;
nodes = (
"631 641 LINE SMOOTH",
"644 653 OFFCURVE",
"662 662 OFFCURVE",
"686 662 CURVE SMOOTH",
"711 662 LINE",
"711 700 LINE",
"482 700 LINE",
"482 662 LINE",
"497 662 LINE SMOOTH",
"522 662 OFFCURVE",
"547 649 OFFCURVE",
"525 627 CURVE",
"249 383 LINE",
"249 299 LINE"
);
}
);
width = 770;
}
);
note = K;
rightKerningGroup = K;
unicode = 004B;
},
{
glyphname = Kcommaaccent;
lastChange = "2015-10-12 08:28:12 +0000";
layers = (
{
layerId = "66DA30A5-A5D3-4FBB-AA06-F397B31B18DC";
name = Bold;
paths = (
{
closed = 1;
nodes = (
"342 0 LINE",
"342 37 LINE",
"311 37 LINE SMOOTH",
"273 37 OFFCURVE",
"256 49 OFFCURVE",
"256 75 CURVE SMOOTH",
"256 624 LINE SMOOTH",
"256 650 OFFCURVE",
"273 662 OFFCURVE",
"311 662 CURVE SMOOTH",
"342 662 LINE",
"342 700 LINE",
"16 700 LINE",
"16 662 LINE",
"46 662 LINE SMOOTH",
"85 662 OFFCURVE",
"103 650 OFFCURVE",
"103 624 CURVE SMOOTH",
"103 75 LINE SMOOTH",
"103 49 OFFCURVE",
"85 37 OFFCURVE",
"46 37 CURVE SMOOTH",
"16 37 LINE",
"16 0 LINE"
);
},
{
closed = 1;
nodes = (
"410 -311 OFFCURVE",
"474 -237 OFFCURVE",
"474 -161 CURVE SMOOTH",
"474 -103 OFFCURVE",
"442 -72 OFFCURVE",
"402 -72 CURVE SMOOTH",
"363 -72 OFFCURVE",
"339 -98 OFFCURVE",
"339 -129 CURVE SMOOTH",
"339 -168 OFFCURVE",
"380 -182 OFFCURVE",
"380 -222 CURVE SMOOTH",
"380 -263 OFFCURVE",
"354 -300 OFFCURVE",
"323 -332 CURVE",
"347 -354 LINE"
);
},
{
closed = 1;
nodes = (
"758 0 LINE",
"758 37 LINE",
"728 37 LINE SMOOTH",
"692 37 OFFCURVE",
"661 63 OFFCURVE",
"636 89 CURVE SMOOTH",
"347 395 LINE",
"248 309 LINE",
"542 0 LINE"
);
},
{
closed = 1;
nodes = (
"631 641 LINE SMOOTH",
"644 653 OFFCURVE",
"662 662 OFFCURVE",
"686 662 CURVE SMOOTH",
"711 662 LINE",
"711 700 LINE",
"482 700 LINE",
"482 662 LINE",
"497 662 LINE SMOOTH",
"522 662 OFFCURVE",
"547 649 OFFCURVE",
"525 627 CURVE",
"249 383 LINE",
"249 299 LINE"
);
}
);
width = 770;
}
);
note = Kcommaaccent;
rightKerningGroup = K;
unicode = 0136;
},
{
glyphname = L;
lastChange = "2015-10-12 08:28:11 +0000";
layers = (
{
layerId = "66DA30A5-A5D3-4FBB-AA06-F397B31B18DC";
name = Bold;
paths = (
{
closed = 1;
nodes = (
"617 0 LINE",
"637 203 LINE",
"596 203 LINE",
"590 161 OFFCURVE",
"564 54 OFFCURVE",
"498 54 CURVE SMOOTH",
"319 54 LINE SMOOTH",
"282 54 OFFCURVE",
"260 68 OFFCURVE",
"260 101 CURVE SMOOTH",
"260 624 LINE SMOOTH",
"260 650 OFFCURVE",
"278 662 OFFCURVE",
"316 662 CURVE SMOOTH",
"346 662 LINE",
"346 700 LINE",
"20 700 LINE",
"20 662 LINE",
"50 662 LINE SMOOTH",
"89 662 OFFCURVE",
"107 650 OFFCURVE",
"107 624 CURVE SMOOTH",
"107 75 LINE SMOOTH",
"107 49 OFFCURVE",
"89 37 OFFCURVE",
"50 37 CURVE SMOOTH",
"20 37 LINE",
"20 0 LINE"
);
}
);
width = 657;
}
);
note = L;
rightKerningGroup = L;
unicode = 004C;
},
{
glyphname = Lacute;
lastChange = "2015-10-12 08:28:13 +0000";
layers = (
{
layerId = "66DA30A5-A5D3-4FBB-AA06-F397B31B18DC";
name = Bold;
paths = (
{
closed = 1;
nodes = (
"617 0 LINE",
"637 203 LINE",
"596 203 LINE",
"590 161 OFFCURVE",
"564 54 OFFCURVE",
"498 54 CURVE SMOOTH",
"319 54 LINE SMOOTH",
"282 54 OFFCURVE",
"260 68 OFFCURVE",
"260 101 CURVE SMOOTH",
"260 624 LINE SMOOTH",
"260 650 OFFCURVE",
"278 662 OFFCURVE",
"316 662 CURVE SMOOTH",
"346 662 LINE",
"346 700 LINE",
"20 700 LINE",
"20 662 LINE",
"50 662 LINE SMOOTH",
"89 662 OFFCURVE",
"107 650 OFFCURVE",
"107 624 CURVE SMOOTH",
"107 75 LINE SMOOTH",
"107 49 OFFCURVE",
"89 37 OFFCURVE",
"50 37 CURVE SMOOTH",
"20 37 LINE",
"20 0 LINE"
);
},
{
closed = 1;
nodes = (
"286 869 LINE SMOOTH",
"316 887 OFFCURVE",
"334 905 OFFCURVE",
"334 928 CURVE SMOOTH",
"334 948 OFFCURVE",
"319 971 OFFCURVE",
"285 971 CURVE SMOOTH",
"254 971 OFFCURVE",
"231 946 OFFCURVE",
"224 938 CURVE",
"102 815 LINE",
"129 777 LINE"
);
}
);
width = 657;
}
);
note = Lacute;
rightKerningGroup = L;
unicode = 0139;
},
{
glyphname = Lcaron;
lastChange = "2015-10-12 08:28:13 +0000";
layers = (
{
layerId = "66DA30A5-A5D3-4FBB-AA06-F397B31B18DC";
name = Bold;
paths = (
{
closed = 1;
nodes = (
"617 0 LINE",
"637 203 LINE",
"596 203 LINE",
"590 161 OFFCURVE",
"564 54 OFFCURVE",
"498 54 CURVE SMOOTH",
"319 54 LINE SMOOTH",
"282 54 OFFCURVE",
"260 68 OFFCURVE",
"260 101 CURVE SMOOTH",
"260 624 LINE SMOOTH",
"260 650 OFFCURVE",
"278 662 OFFCURVE",
"316 662 CURVE SMOOTH",
"346 662 LINE",
"346 700 LINE",
"20 700 LINE",
"20 662 LINE",
"50 662 LINE SMOOTH",
"89 662 OFFCURVE",
"107 650 OFFCURVE",
"107 624 CURVE SMOOTH",
"107 75 LINE SMOOTH",
"107 49 OFFCURVE",
"89 37 OFFCURVE",
"50 37 CURVE SMOOTH",
"20 37 LINE",
"20 0 LINE"
);
},
{
closed = 1;
nodes = (
"506 469 OFFCURVE",
"571 544 OFFCURVE",
"571 620 CURVE SMOOTH",
"571 678 OFFCURVE",
"539 708 OFFCURVE",
"499 708 CURVE SMOOTH",
"460 708 OFFCURVE",
"436 682 OFFCURVE",
"436 651 CURVE SMOOTH",
"436 613 OFFCURVE",
"476 599 OFFCURVE",
"476 558 CURVE SMOOTH",
"476 517 OFFCURVE",
"451 480 OFFCURVE",
"420 449 CURVE",
"443 426 LINE"
);
}
);
width = 657;
}
);
note = Lcaron;
rightKerningGroup = L;
unicode = 013D;
},
{
glyphname = Lcommaaccent;
lastChange = "2015-10-12 08:28:13 +0000";
layers = (
{
layerId = "66DA30A5-A5D3-4FBB-AA06-F397B31B18DC";
name = Bold;
paths = (
{
closed = 1;
nodes = (
"617 0 LINE",
"637 203 LINE",
"596 203 LINE",
"590 161 OFFCURVE",
"564 54 OFFCURVE",
"498 54 CURVE SMOOTH",
"319 54 LINE SMOOTH",
"282 54 OFFCURVE",
"260 68 OFFCURVE",
"260 101 CURVE SMOOTH",
"260 624 LINE SMOOTH",
"260 650 OFFCURVE",
"278 662 OFFCURVE",
"316 662 CURVE SMOOTH",
"346 662 LINE",
"346 700 LINE",
"20 700 LINE",
"20 662 LINE",
"50 662 LINE SMOOTH",
"89 662 OFFCURVE",
"107 650 OFFCURVE",
"107 624 CURVE SMOOTH",
"107 75 LINE SMOOTH",
"107 49 OFFCURVE",
"89 37 OFFCURVE",
"50 37 CURVE SMOOTH",
"20 37 LINE",
"20 0 LINE"
);
},
{
closed = 1;
nodes = (
"332 -311 OFFCURVE",
"396 -237 OFFCURVE",
"396 -161 CURVE SMOOTH",
"396 -103 OFFCURVE",
"364 -72 OFFCURVE",
"324 -72 CURVE SMOOTH",
"285 -72 OFFCURVE",
"261 -98 OFFCURVE",
"261 -129 CURVE SMOOTH",
"261 -168 OFFCURVE",
"302 -182 OFFCURVE",
"302 -222 CURVE SMOOTH",
"302 -263 OFFCURVE",
"276 -300 OFFCURVE",
"245 -332 CURVE",
"269 -354 LINE"
);
}
);
width = 657;
}
);
note = Lcommaaccent;
rightKerningGroup = L;
unicode = 013B;
},
{
glyphname = Ldot;
lastChange = "2015-10-12 08:28:12 +0000";
layers = (
{
layerId = "66DA30A5-A5D3-4FBB-AA06-F397B31B18DC";
name = Bold;
paths = (
{
closed = 1;
nodes = (
"617 0 LINE",
"637 203 LINE",
"596 203 LINE",
"590 161 OFFCURVE",
"564 54 OFFCURVE",
"498 54 CURVE SMOOTH",
"319 54 LINE SMOOTH",
"282 54 OFFCURVE",
"260 68 OFFCURVE",
"260 101 CURVE SMOOTH",
"260 624 LINE SMOOTH",
"260 650 OFFCURVE",
"278 662 OFFCURVE",
"316 662 CURVE SMOOTH",
"346 662 LINE",
"346 700 LINE",
"20 700 LINE",
"20 662 LINE",
"50 662 LINE SMOOTH",
"89 662 OFFCURVE",
"107 650 OFFCURVE",
"107 624 CURVE SMOOTH",
"107 75 LINE SMOOTH",
"107 49 OFFCURVE",
"89 37 OFFCURVE",
"50 37 CURVE SMOOTH",
"20 37 LINE",
"20 0 LINE"
);
},
{
closed = 1;
nodes = (
"483 316 OFFCURVE",
"507 342 OFFCURVE",
"507 377 CURVE SMOOTH",
"507 412 OFFCURVE",
"483 439 OFFCURVE",
"445 439 CURVE SMOOTH",
"408 439 OFFCURVE",
"385 412 OFFCURVE",
"385 377 CURVE SMOOTH",
"385 342 OFFCURVE",
"408 316 OFFCURVE",
"445 316 CURVE SMOOTH"
);
}
);
width = 657;
}
);
note = Ldot;
rightKerningGroup = L;
unicode = 013F;
},
{
glyphname = Ldotbelow;
lastChange = "2015-10-12 08:28:12 +0000";
layers = (
{
layerId = "66DA30A5-A5D3-4FBB-AA06-F397B31B18DC";
name = Bold;
paths = (
{
closed = 1;
nodes = (
"617 0 LINE",
"637 203 LINE",
"596 203 LINE",
"590 161 OFFCURVE",
"564 54 OFFCURVE",
"498 54 CURVE SMOOTH",
"319 54 LINE SMOOTH",
"282 54 OFFCURVE",
"260 68 OFFCURVE",
"260 101 CURVE SMOOTH",
"260 624 LINE SMOOTH",
"260 650 OFFCURVE",
"278 662 OFFCURVE",
"316 662 CURVE SMOOTH",
"346 662 LINE",
"346 700 LINE",
"20 700 LINE",
"20 662 LINE",
"50 662 LINE SMOOTH",
"89 662 OFFCURVE",
"107 650 OFFCURVE",
"107 624 CURVE SMOOTH",
"107 75 LINE SMOOTH",
"107 49 OFFCURVE",
"89 37 OFFCURVE",
"50 37 CURVE SMOOTH",
"20 37 LINE",
"20 0 LINE"
);
},
{
closed = 1;
nodes = (
"377 -184 OFFCURVE",
"401 -158 OFFCURVE",
"401 -123 CURVE SMOOTH",
"401 -89 OFFCURVE",
"377 -61 OFFCURVE",
"340 -61 CURVE SMOOTH",
"303 -61 OFFCURVE",
"279 -89 OFFCURVE",
"279 -123 CURVE SMOOTH",
"279 -158 OFFCURVE",
"303 -184 OFFCURVE",
"340 -184 CURVE SMOOTH"
);
}
);
width = 657;
}
);
note = Ldotbelow;
rightKerningGroup = L;
unicode = 1E36;
},
{
glyphname = Ldotbelowmacron;
lastChange = "2015-10-12 08:28:12 +0000";
layers = (
{
layerId = "66DA30A5-A5D3-4FBB-AA06-F397B31B18DC";
name = Bold;
paths = (
{
closed = 1;
nodes = (
"617 0 LINE",
"637 203 LINE",
"596 203 LINE",
"590 161 OFFCURVE",
"564 54 OFFCURVE",
"498 54 CURVE SMOOTH",
"319 54 LINE SMOOTH",
"282 54 OFFCURVE",
"260 68 OFFCURVE",
"260 101 CURVE SMOOTH",
"260 624 LINE SMOOTH",
"260 650 OFFCURVE",
"278 662 OFFCURVE",
"316 662 CURVE SMOOTH",
"346 662 LINE",
"346 700 LINE",
"20 700 LINE",
"20 662 LINE",
"50 662 LINE SMOOTH",
"89 662 OFFCURVE",
"107 650 OFFCURVE",
"107 624 CURVE SMOOTH",
"107 75 LINE SMOOTH",
"107 49 OFFCURVE",
"89 37 OFFCURVE",
"50 37 CURVE SMOOTH",
"20 37 LINE",
"20 0 LINE"
);
},
{
closed = 1;
nodes = (
"377 -184 OFFCURVE",
"401 -158 OFFCURVE",
"401 -123 CURVE SMOOTH",
"401 -89 OFFCURVE",
"377 -61 OFFCURVE",
"340 -61 CURVE SMOOTH",
"303 -61 OFFCURVE",
"279 -89 OFFCURVE",
"279 -123 CURVE SMOOTH",
"279 -158 OFFCURVE",
"303 -184 OFFCURVE",
"340 -184 CURVE SMOOTH"
);
},
{
closed = 1;
nodes = (
"396 777 LINE",
"396 836 LINE",
"14 836 LINE",
"14 777 LINE"
);
}
);
width = 657;
}
);
note = Ldotbelowmacron;
rightKerningGroup = L;
unicode = 1E38;
},
{
glyphname = Llinebelow;
lastChange = "2015-10-12 08:28:13 +0000";
layers = (
{
layerId = "66DA30A5-A5D3-4FBB-AA06-F397B31B18DC";
name = Bold;
paths = (
{
closed = 1;
nodes = (
"617 0 LINE",
"637 203 LINE",
"596 203 LINE",
"590 161 OFFCURVE",
"564 54 OFFCURVE",
"498 54 CURVE SMOOTH",
"319 54 LINE SMOOTH",
"282 54 OFFCURVE",
"260 68 OFFCURVE",
"260 101 CURVE SMOOTH",
"260 624 LINE SMOOTH",
"260 650 OFFCURVE",
"278 662 OFFCURVE",
"316 662 CURVE SMOOTH",
"346 662 LINE",
"346 700 LINE",
"20 700 LINE",
"20 662 LINE",
"50 662 LINE SMOOTH",
"89 662 OFFCURVE",
"107 650 OFFCURVE",
"107 624 CURVE SMOOTH",
"107 75 LINE SMOOTH",
"107 49 OFFCURVE",
"89 37 OFFCURVE",
"50 37 CURVE SMOOTH",
"20 37 LINE",
"20 0 LINE"
);
},
{
closed = 1;
nodes = (
"508 -120 LINE",
"508 -68 LINE",
"127 -68 LINE",
"127 -120 LINE"
);
}
);
width = 657;
}
);
note = Llinebelow;
rightKerningGroup = L;
unicode = 1E3A;
},
{
glyphname = Lslash;
lastChange = "2015-10-12 08:28:13 +0000";
layers = (
{
layerId = "66DA30A5-A5D3-4FBB-AA06-F397B31B18DC";
name = Bold;
paths = (
{
closed = 1;
nodes = (
"617 0 LINE",
"637 203 LINE",
"596 203 LINE",
"590 161 OFFCURVE",
"564 54 OFFCURVE",
"498 54 CURVE SMOOTH",
"319 54 LINE SMOOTH",
"282 54 OFFCURVE",
"260 68 OFFCURVE",
"260 101 CURVE SMOOTH",
"260 624 LINE SMOOTH",
"260 650 OFFCURVE",
"278 662 OFFCURVE",
"316 662 CURVE SMOOTH",
"346 662 LINE",
"346 700 LINE",
"20 700 LINE",
"20 662 LINE",
"50 662 LINE SMOOTH",
"89 662 OFFCURVE",
"107 650 OFFCURVE",
"107 624 CURVE SMOOTH",
"107 75 LINE SMOOTH",
"107 49 OFFCURVE",
"89 37 OFFCURVE",
"50 37 CURVE SMOOTH",
"20 37 LINE",
"20 0 LINE"
);
},
{
closed = 1;
nodes = (
"460 375 LINE",
"460 446 LINE",
"34 294 LINE",
"34 222 LINE"
);
}
);
width = 657;
}
);
note = Lslash;
rightKerningGroup = L;
unicode = 0141;
},
{
glyphname = M;
lastChange = "2015-10-12 08:28:11 +0000";
layers = (
{
layerId = "66DA30A5-A5D3-4FBB-AA06-F397B31B18DC";
name = Bold;
paths = (
{
closed = 1;
nodes = (
"254 0 LINE",
"254 37 LINE",
"223 37 LINE SMOOTH",
"185 37 OFFCURVE",
"168 49 OFFCURVE",
"168 75 CURVE SMOOTH",
"168 574 LINE",
"384 75 LINE",
"474 75 LINE",
"696 578 LINE",
"696 75 LINE SMOOTH",
"696 49 OFFCURVE",
"678 37 OFFCURVE",
"639 37 CURVE SMOOTH",
"609 37 LINE",
"609 0 LINE",
"935 0 LINE",
"935 37 LINE",
"905 37 LINE SMOOTH",
"867 37 OFFCURVE",
"849 49 OFFCURVE",
"849 75 CURVE SMOOTH",
"849 624 LINE SMOOTH",
"849 650 OFFCURVE",
"867 662 OFFCURVE",
"905 662 CURVE SMOOTH",
"935 662 LINE",
"935 700 LINE",
"682 700 LINE",
"610 532 OFFCURVE",
"538 367 OFFCURVE",
"465 200 CURVE",
"253 700 LINE",
"16 700 LINE",
"16 662 LINE",
"46 662 LINE SMOOTH",
"85 662 OFFCURVE",
"103 650 OFFCURVE",
"103 624 CURVE SMOOTH",
"103 75 LINE SMOOTH",
"103 49 OFFCURVE",
"85 37 OFFCURVE",
"46 37 CURVE SMOOTH",
"16 37 LINE",
"16 0 LINE"
);
}
);
width = 952;
}
);
note = M;
unicode = 004D;
},
{
glyphname = Mdotbelow;
lastChange = "2015-10-12 08:28:13 +0000";
layers = (
{
layerId = "66DA30A5-A5D3-4FBB-AA06-F397B31B18DC";
name = Bold;
paths = (
{
closed = 1;
nodes = (
"254 0 LINE",
"254 37 LINE",
"223 37 LINE SMOOTH",
"185 37 OFFCURVE",
"168 49 OFFCURVE",
"168 75 CURVE SMOOTH",
"168 574 LINE",
"384 75 LINE",
"474 75 LINE",
"696 578 LINE",
"696 75 LINE SMOOTH",
"696 49 OFFCURVE",
"678 37 OFFCURVE",
"639 37 CURVE SMOOTH",
"609 37 LINE",
"609 0 LINE",
"935 0 LINE",
"935 37 LINE",
"905 37 LINE SMOOTH",
"867 37 OFFCURVE",
"849 49 OFFCURVE",
"849 75 CURVE SMOOTH",
"849 624 LINE SMOOTH",
"849 650 OFFCURVE",
"867 662 OFFCURVE",
"905 662 CURVE SMOOTH",
"935 662 LINE",
"935 700 LINE",
"682 700 LINE",
"610 532 OFFCURVE",
"538 367 OFFCURVE",
"465 200 CURVE",
"253 700 LINE",
"16 700 LINE",
"16 662 LINE",
"46 662 LINE SMOOTH",
"85 662 OFFCURVE",
"103 650 OFFCURVE",
"103 624 CURVE SMOOTH",
"103 75 LINE SMOOTH",
"103 49 OFFCURVE",
"85 37 OFFCURVE",
"46 37 CURVE SMOOTH",
"16 37 LINE",
"16 0 LINE"
);
},
{
closed = 1;
nodes = (
"512 -188 OFFCURVE",
"536 -161 OFFCURVE",
"536 -127 CURVE SMOOTH",
"536 -92 OFFCURVE",
"512 -64 OFFCURVE",
"475 -64 CURVE SMOOTH",
"437 -64 OFFCURVE",
"413 -92 OFFCURVE",
"413 -127 CURVE SMOOTH",
"413 -161 OFFCURVE",
"437 -188 OFFCURVE",
"475 -188 CURVE SMOOTH"
);
}
);
width = 952;
}
);
note = Mdotbelow;
unicode = 1E42;
},
{
glyphname = N;
lastChange = "2015-10-12 08:28:11 +0000";
layers = (
{
layerId = "66DA30A5-A5D3-4FBB-AA06-F397B31B18DC";
name = Bold;
paths = (
{
closed = 1;
nodes = (
"254 0 LINE",
"254 37 LINE",
"223 37 LINE SMOOTH",
"185 37 OFFCURVE",
"168 49 OFFCURVE",
"168 75 CURVE SMOOTH",
"168 611 LINE",
"595 0 LINE",
"676 0 LINE",
"676 624 LINE SMOOTH",
"676 650 OFFCURVE",
"694 662 OFFCURVE",
"732 662 CURVE SMOOTH",
"763 662 LINE",
"763 700 LINE",
"524 700 LINE",
"524 662 LINE",
"555 662 LINE SMOOTH",
"593 662 OFFCURVE",
"611 650 OFFCURVE",
"611 624 CURVE SMOOTH",
"611 188 LINE",
"256 700 LINE",
"16 700 LINE",
"16 662 LINE",
"46 662 LINE SMOOTH",
"85 662 OFFCURVE",
"103 650 OFFCURVE",
"103 624 CURVE SMOOTH",
"103 75 LINE SMOOTH",
"103 49 OFFCURVE",
"85 37 OFFCURVE",
"46 37 CURVE SMOOTH",
"16 37 LINE",
"16 0 LINE"
);
}
);
width = 779;
}
);
note = N;
unicode = 004E;
},
{
glyphname = Nacute;
lastChange = "2015-10-12 08:28:13 +0000";
layers = (
{
layerId = "66DA30A5-A5D3-4FBB-AA06-F397B31B18DC";
name = Bold;
paths = (
{
closed = 1;
nodes = (
"254 0 LINE",
"254 37 LINE",
"223 37 LINE SMOOTH",
"185 37 OFFCURVE",
"168 49 OFFCURVE",
"168 75 CURVE SMOOTH",
"168 611 LINE",
"595 0 LINE",
"676 0 LINE",
"676 624 LINE SMOOTH",
"676 650 OFFCURVE",
"694 662 OFFCURVE",
"732 662 CURVE SMOOTH",
"763 662 LINE",
"763 700 LINE",
"524 700 LINE",
"524 662 LINE",
"555 662 LINE SMOOTH",
"593 662 OFFCURVE",
"611 650 OFFCURVE",
"611 624 CURVE SMOOTH",
"611 188 LINE",
"256 700 LINE",
"16 700 LINE",
"16 662 LINE",
"46 662 LINE SMOOTH",
"85 662 OFFCURVE",
"103 650 OFFCURVE",
"103 624 CURVE SMOOTH",
"103 75 LINE SMOOTH",
"103 49 OFFCURVE",
"85 37 OFFCURVE",
"46 37 CURVE SMOOTH",
"16 37 LINE",
"16 0 LINE"
);
},
{
closed = 1;
nodes = (
"484 869 LINE SMOOTH",
"514 887 OFFCURVE",
"532 905 OFFCURVE",
"532 928 CURVE SMOOTH",
"532 948 OFFCURVE",
"517 971 OFFCURVE",
"483 971 CURVE SMOOTH",
"452 971 OFFCURVE",
"429 946 OFFCURVE",
"422 938 CURVE",
"300 815 LINE",
"327 777 LINE"
);
}
);
width = 779;
}
);
note = Nacute;
unicode = 0143;
},
{
glyphname = Ncaron;
lastChange = "2015-10-12 08:28:13 +0000";
layers = (
{
layerId = "66DA30A5-A5D3-4FBB-AA06-F397B31B18DC";
name = Bold;
paths = (
{
closed = 1;
nodes = (
"254 0 LINE",
"254 37 LINE",
"223 37 LINE SMOOTH",
"185 37 OFFCURVE",
"168 49 OFFCURVE",
"168 75 CURVE SMOOTH",
"168 611 LINE",
"595 0 LINE",
"676 0 LINE",
"676 624 LINE SMOOTH",
"676 650 OFFCURVE",
"694 662 OFFCURVE",
"732 662 CURVE SMOOTH",
"763 662 LINE",
"763 700 LINE",
"524 700 LINE",
"524 662 LINE",
"555 662 LINE SMOOTH",
"593 662 OFFCURVE",
"611 650 OFFCURVE",
"611 624 CURVE SMOOTH",
"611 188 LINE",
"256 700 LINE",
"16 700 LINE",
"16 662 LINE",
"46 662 LINE SMOOTH",
"85 662 OFFCURVE",
"103 650 OFFCURVE",
"103 624 CURVE SMOOTH",
"103 75 LINE SMOOTH",
"103 49 OFFCURVE",
"85 37 OFFCURVE",
"46 37 CURVE SMOOTH",
"16 37 LINE",
"16 0 LINE"
);
},
{
closed = 1;
nodes = (
"420 778 LINE",
"565 935 LINE",
"541 961 LINE",
"416 866 LINE SMOOTH",
"404 857 OFFCURVE",
"392 850 OFFCURVE",
"383 850 CURVE SMOOTH",
"374 850 OFFCURVE",
"362 857 OFFCURVE",
"349 866 CURVE",
"224 961 LINE",
"200 935 LINE",
"345 778 LINE"
);
}
);
width = 779;
}
);
note = Ncaron;
unicode = 0147;
},
{
glyphname = Ncommaaccent;
lastChange = "2015-10-12 08:28:13 +0000";
layers = (
{
layerId = "66DA30A5-A5D3-4FBB-AA06-F397B31B18DC";
name = Bold;
paths = (
{
closed = 1;
nodes = (
"254 0 LINE",
"254 37 LINE",
"223 37 LINE SMOOTH",
"185 37 OFFCURVE",
"168 49 OFFCURVE",
"168 75 CURVE SMOOTH",
"168 611 LINE",
"595 0 LINE",
"676 0 LINE",
"676 624 LINE SMOOTH",
"676 650 OFFCURVE",
"694 662 OFFCURVE",
"732 662 CURVE SMOOTH",
"763 662 LINE",
"763 700 LINE",
"524 700 LINE",
"524 662 LINE",
"555 662 LINE SMOOTH",
"593 662 OFFCURVE",
"611 650 OFFCURVE",
"611 624 CURVE SMOOTH",
"611 188 LINE",
"256 700 LINE",
"16 700 LINE",
"16 662 LINE",
"46 662 LINE SMOOTH",
"85 662 OFFCURVE",
"103 650 OFFCURVE",
"103 624 CURVE SMOOTH",
"103 75 LINE SMOOTH",
"103 49 OFFCURVE",
"85 37 OFFCURVE",
"46 37 CURVE SMOOTH",
"16 37 LINE",
"16 0 LINE"
);
},
{
closed = 1;
nodes = (
"386 -311 OFFCURVE",
"450 -237 OFFCURVE",
"450 -161 CURVE SMOOTH",
"450 -103 OFFCURVE",
"418 -72 OFFCURVE",
"378 -72 CURVE SMOOTH",
"339 -72 OFFCURVE",
"315 -98 OFFCURVE",
"315 -129 CURVE SMOOTH",
"315 -168 OFFCURVE",
"356 -182 OFFCURVE",
"356 -222 CURVE SMOOTH",
"356 -263 OFFCURVE",
"330 -300 OFFCURVE",
"299 -332 CURVE",
"323 -354 LINE"
);
}
);
width = 779;
}
);
note = Ncommaaccent;
unicode = 0145;
},
{
glyphname = Ndotaccent;
lastChange = "2015-10-12 08:28:13 +0000";
layers = (
{
layerId = "66DA30A5-A5D3-4FBB-AA06-F397B31B18DC";
name = Bold;
paths = (
{
closed = 1;
nodes = (
"254 0 LINE",
"254 37 LINE",
"223 37 LINE SMOOTH",
"185 37 OFFCURVE",
"168 49 OFFCURVE",
"168 75 CURVE SMOOTH",
"168 611 LINE",
"595 0 LINE",
"676 0 LINE",
"676 624 LINE SMOOTH",
"676 650 OFFCURVE",
"694 662 OFFCURVE",
"732 662 CURVE SMOOTH",
"763 662 LINE",
"763 700 LINE",
"524 700 LINE",
"524 662 LINE",
"555 662 LINE SMOOTH",
"593 662 OFFCURVE",
"611 650 OFFCURVE",
"611 624 CURVE SMOOTH",
"611 188 LINE",
"256 700 LINE",
"16 700 LINE",
"16 662 LINE",
"46 662 LINE SMOOTH",
"85 662 OFFCURVE",
"103 650 OFFCURVE",
"103 624 CURVE SMOOTH",
"103 75 LINE SMOOTH",
"103 49 OFFCURVE",
"85 37 OFFCURVE",
"46 37 CURVE SMOOTH",
"16 37 LINE",
"16 0 LINE"
);
},
{
closed = 1;
nodes = (
"426 770 OFFCURVE",
"450 796 OFFCURVE",
"450 830 CURVE SMOOTH",
"450 865 OFFCURVE",
"426 892 OFFCURVE",
"389 892 CURVE SMOOTH",
"351 892 OFFCURVE",
"328 865 OFFCURVE",
"328 830 CURVE SMOOTH",
"328 796 OFFCURVE",
"351 770 OFFCURVE",
"389 770 CURVE SMOOTH"
);
}
);
width = 779;
}
);
note = Ndotaccent;
unicode = 1E44;
},
{
glyphname = Ndotbelow;
lastChange = "2015-10-12 08:28:13 +0000";
layers = (
{
layerId = "66DA30A5-A5D3-4FBB-AA06-F397B31B18DC";
name = Bold;
paths = (
{
closed = 1;
nodes = (
"254 0 LINE",
"254 37 LINE",
"223 37 LINE SMOOTH",
"185 37 OFFCURVE",
"168 49 OFFCURVE",
"168 75 CURVE SMOOTH",
"168 611 LINE",
"595 0 LINE",
"676 0 LINE",
"676 624 LINE SMOOTH",
"676 650 OFFCURVE",
"694 662 OFFCURVE",
"732 662 CURVE SMOOTH",
"763 662 LINE",
"763 700 LINE",
"524 700 LINE",
"524 662 LINE",
"555 662 LINE SMOOTH",
"593 662 OFFCURVE",
"611 650 OFFCURVE",
"611 624 CURVE SMOOTH",
"611 188 LINE",
"256 700 LINE",
"16 700 LINE",
"16 662 LINE",
"46 662 LINE SMOOTH",
"85 662 OFFCURVE",
"103 650 OFFCURVE",
"103 624 CURVE SMOOTH",
"103 75 LINE SMOOTH",
"103 49 OFFCURVE",
"85 37 OFFCURVE",
"46 37 CURVE SMOOTH",
"16 37 LINE",
"16 0 LINE"
);
},
{
closed = 1;
nodes = (
"431 -188 OFFCURVE",
"455 -161 OFFCURVE",
"455 -127 CURVE SMOOTH",
"455 -92 OFFCURVE",
"431 -64 OFFCURVE",
"394 -64 CURVE SMOOTH",
"356 -64 OFFCURVE",
"332 -92 OFFCURVE",
"332 -127 CURVE SMOOTH",
"332 -161 OFFCURVE",
"356 -188 OFFCURVE",
"394 -188 CURVE SMOOTH"
);
}
);
width = 803;
}
);
note = uni1E46;
unicode = 1E46;
},
{
glyphname = Eng;
lastChange = "2015-10-12 08:28:12 +0000";
layers = (
{
layerId = "66DA30A5-A5D3-4FBB-AA06-F397B31B18DC";
name = Bold;
paths = (
{
closed = 1;
nodes = (
"581 -290 OFFCURVE",
"676 -215 OFFCURVE",
"676 -51 CURVE SMOOTH",
"676 624 LINE SMOOTH",
"676 650 OFFCURVE",
"694 662 OFFCURVE",
"732 662 CURVE SMOOTH",
"763 662 LINE",
"763 700 LINE",
"524 700 LINE",
"524 662 LINE",
"555 662 LINE SMOOTH",
"593 662 OFFCURVE",
"611 650 OFFCURVE",
"611 624 CURVE SMOOTH",
"611 188 LINE",
"256 700 LINE",
"16 700 LINE",
"16 662 LINE",
"46 662 LINE SMOOTH",
"85 662 OFFCURVE",
"103 650 OFFCURVE",
"103 624 CURVE SMOOTH",
"103 78 LINE SMOOTH",
"103 52 OFFCURVE",
"90 37 OFFCURVE",
"46 37 CURVE SMOOTH",
"16 37 LINE",
"16 0 LINE",
"254 0 LINE",
"254 37 LINE",
"223 37 LINE SMOOTH",
"185 37 OFFCURVE",
"168 49 OFFCURVE",
"168 75 CURVE SMOOTH",
"168 614 LINE",
"595 0 LINE",
"595 -86 LINE SMOOTH",
"595 -188 OFFCURVE",
"502 -261 OFFCURVE",
"403 -264 CURVE",
"408 -296 LINE"
);
}
);
width = 779;
}
);
note = Eng;
unicode = 014A;
},
{
glyphname = Nlinebelow;
lastChange = "2015-10-12 08:28:13 +0000";
layers = (
{
layerId = "66DA30A5-A5D3-4FBB-AA06-F397B31B18DC";
name = Bold;
paths = (
{
closed = 1;
nodes = (
"254 0 LINE",
"254 37 LINE",
"223 37 LINE SMOOTH",
"185 37 OFFCURVE",
"168 49 OFFCURVE",
"168 75 CURVE SMOOTH",
"168 611 LINE",
"595 0 LINE",
"676 0 LINE",
"676 624 LINE SMOOTH",
"676 650 OFFCURVE",
"694 662 OFFCURVE",
"732 662 CURVE SMOOTH",
"763 662 LINE",
"763 700 LINE",
"524 700 LINE",
"524 662 LINE",
"555 662 LINE SMOOTH",
"593 662 OFFCURVE",
"611 650 OFFCURVE",
"611 624 CURVE SMOOTH",
"611 188 LINE",
"256 700 LINE",
"16 700 LINE",
"16 662 LINE",
"46 662 LINE SMOOTH",
"85 662 OFFCURVE",
"103 650 OFFCURVE",
"103 624 CURVE SMOOTH",
"103 75 LINE SMOOTH",
"103 49 OFFCURVE",
"85 37 OFFCURVE",
"46 37 CURVE SMOOTH",
"16 37 LINE",
"16 0 LINE"
);
},
{
closed = 1;
nodes = (
"578 -120 LINE",
"578 -68 LINE",
"197 -68 LINE",
"197 -120 LINE"
);
}
);
width = 779;
}
);
note = Nlinebelow;
unicode = 1E48;
},
{
glyphname = Ntilde;
lastChange = "2015-10-12 08:28:13 +0000";
layers = (
{
layerId = "66DA30A5-A5D3-4FBB-AA06-F397B31B18DC";
name = Bold;
paths = (
{
closed = 1;
nodes = (
"254 0 LINE",
"254 37 LINE",
"223 37 LINE SMOOTH",
"185 37 OFFCURVE",
"168 49 OFFCURVE",
"168 75 CURVE SMOOTH",
"168 611 LINE",
"595 0 LINE",
"676 0 LINE",
"676 624 LINE SMOOTH",
"676 650 OFFCURVE",
"694 662 OFFCURVE",
"732 662 CURVE SMOOTH",
"763 662 LINE",
"763 700 LINE",
"524 700 LINE",
"524 662 LINE",
"555 662 LINE SMOOTH",
"593 662 OFFCURVE",
"611 650 OFFCURVE",
"611 624 CURVE SMOOTH",
"611 188 LINE",
"256 700 LINE",
"16 700 LINE",
"16 662 LINE",
"46 662 LINE SMOOTH",
"85 662 OFFCURVE",
"103 650 OFFCURVE",
"103 624 CURVE SMOOTH",
"103 75 LINE SMOOTH",
"103 49 OFFCURVE",
"85 37 OFFCURVE",
"46 37 CURVE SMOOTH",
"16 37 LINE",
"16 0 LINE"
);
},
{
closed = 1;
nodes = (
"253 814 OFFCURVE",
"270 833 OFFCURVE",
"306 833 CURVE SMOOTH",
"365 833 OFFCURVE",
"419 784 OFFCURVE",
"477 784 CURVE SMOOTH",
"548 784 OFFCURVE",
"581 849 OFFCURVE",
"597 897 CURVE",
"569 912 LINE",
"550 872 OFFCURVE",
"534 853 OFFCURVE",
"497 853 CURVE SMOOTH",
"439 853 OFFCURVE",
"384 901 OFFCURVE",
"326 901 CURVE SMOOTH",
"257 901 OFFCURVE",
"222 838 OFFCURVE",
"206 790 CURVE",
"234 775 LINE"
);
}
);
width = 779;
}
);
note = Ntilde;
unicode = 00D1;
},
{
glyphname = O;
lastChange = "2015-10-12 08:28:13 +0000";
layers = (
{
layerId = "66DA30A5-A5D3-4FBB-AA06-F397B31B18DC";
name = Bold;
paths = (
{
closed = 1;
nodes = (
"648 -10 OFFCURVE",
"764 131 OFFCURVE",
"764 350 CURVE SMOOTH",
"764 568 OFFCURVE",
"648 710 OFFCURVE",
"398 710 CURVE SMOOTH",
"149 710 OFFCURVE",
"33 568 OFFCURVE",
"33 350 CURVE SMOOTH",
"33 131 OFFCURVE",
"149 -10 OFFCURVE",
"398 -10 CURVE SMOOTH"
);
},
{
closed = 1;
nodes = (
"260 47 OFFCURVE",
"188 162 OFFCURVE",
"188 350 CURVE SMOOTH",
"188 537 OFFCURVE",
"260 654 OFFCURVE",
"397 654 CURVE SMOOTH",
"536 654 OFFCURVE",
"609 537 OFFCURVE",
"609 350 CURVE SMOOTH",
"609 162 OFFCURVE",
"536 47 OFFCURVE",
"397 47 CURVE SMOOTH"
);
}
);
width = 797;
}
);
leftKerningGroup = O;
note = O;
rightKerningGroup = O;
unicode = 004F;
},
{
glyphname = Oacute;
lastChange = "2015-10-12 08:28:13 +0000";
layers = (
{
layerId = "66DA30A5-A5D3-4FBB-AA06-F397B31B18DC";
name = Bold;
paths = (
{
closed = 1;
nodes = (
"648 -10 OFFCURVE",
"764 131 OFFCURVE",
"764 350 CURVE SMOOTH",
"764 568 OFFCURVE",
"648 710 OFFCURVE",
"398 710 CURVE SMOOTH",
"149 710 OFFCURVE",
"33 568 OFFCURVE",
"33 350 CURVE SMOOTH",
"33 131 OFFCURVE",
"149 -10 OFFCURVE",
"398 -10 CURVE SMOOTH"
);
},
{
closed = 1;
nodes = (
"260 47 OFFCURVE",
"188 162 OFFCURVE",
"188 350 CURVE SMOOTH",
"188 537 OFFCURVE",
"260 654 OFFCURVE",
"397 654 CURVE SMOOTH",
"536 654 OFFCURVE",
"609 537 OFFCURVE",
"609 350 CURVE SMOOTH",
"609 162 OFFCURVE",
"536 47 OFFCURVE",
"397 47 CURVE SMOOTH"
);
},
{
closed = 1;
nodes = (
"466 869 LINE SMOOTH",
"496 887 OFFCURVE",
"514 905 OFFCURVE",
"514 928 CURVE SMOOTH",
"514 948 OFFCURVE",
"499 971 OFFCURVE",
"465 971 CURVE SMOOTH",
"434 971 OFFCURVE",
"411 946 OFFCURVE",
"404 938 CURVE",
"282 815 LINE",
"309 777 LINE"
);
}
);
width = 797;
}
);
leftKerningGroup = O;
note = Oacute;
rightKerningGroup = O;
unicode = 00D3;
},
{
glyphname = Obreve;
lastChange = "2015-10-12 08:28:12 +0000";
layers = (
{
layerId = "66DA30A5-A5D3-4FBB-AA06-F397B31B18DC";
name = Bold;
paths = (
{
closed = 1;
nodes = (
"648 -10 OFFCURVE",
"764 131 OFFCURVE",
"764 350 CURVE SMOOTH",
"764 568 OFFCURVE",
"648 710 OFFCURVE",
"398 710 CURVE SMOOTH",
"149 710 OFFCURVE",
"33 568 OFFCURVE",
"33 350 CURVE SMOOTH",
"33 131 OFFCURVE",
"149 -10 OFFCURVE",
"398 -10 CURVE SMOOTH"
);
},
{
closed = 1;
nodes = (
"260 47 OFFCURVE",
"188 162 OFFCURVE",
"188 350 CURVE SMOOTH",
"188 537 OFFCURVE",
"260 654 OFFCURVE",
"397 654 CURVE SMOOTH",
"536 654 OFFCURVE",
"609 537 OFFCURVE",
"609 350 CURVE SMOOTH",
"609 162 OFFCURVE",
"536 47 OFFCURVE",
"397 47 CURVE SMOOTH"
);
},
{
closed = 1;
nodes = (
"521 775 OFFCURVE",
"555 848 OFFCURVE",
"557 921 CURVE",
"517 921 LINE",
"513 879 OFFCURVE",
"483 840 OFFCURVE",
"398 840 CURVE SMOOTH",
"313 840 OFFCURVE",
"281 879 OFFCURVE",
"276 921 CURVE",
"237 921 LINE",
"239 844 OFFCURVE",
"273 775 OFFCURVE",
"398 775 CURVE SMOOTH"
);
}
);
width = 797;
}
);
leftKerningGroup = O;
note = Obreve;
rightKerningGroup = O;
unicode = 014E;
},
{
glyphname = Ocaron;
lastChange = "2015-10-12 08:28:13 +0000";
layers = (
{
layerId = "66DA30A5-A5D3-4FBB-AA06-F397B31B18DC";
name = Bold;
paths = (
{
closed = 1;
nodes = (
"648 -10 OFFCURVE",
"764 131 OFFCURVE",
"764 350 CURVE SMOOTH",
"764 568 OFFCURVE",
"648 710 OFFCURVE",
"398 710 CURVE SMOOTH",
"149 710 OFFCURVE",
"33 568 OFFCURVE",
"33 350 CURVE SMOOTH",
"33 131 OFFCURVE",
"149 -10 OFFCURVE",
"398 -10 CURVE SMOOTH"
);
},
{
closed = 1;
nodes = (
"260 47 OFFCURVE",
"188 162 OFFCURVE",
"188 350 CURVE SMOOTH",
"188 537 OFFCURVE",
"260 654 OFFCURVE",
"397 654 CURVE SMOOTH",
"536 654 OFFCURVE",
"609 537 OFFCURVE",
"609 350 CURVE SMOOTH",
"609 162 OFFCURVE",
"536 47 OFFCURVE",
"397 47 CURVE SMOOTH"
);
},
{
closed = 1;
nodes = (
"435 778 LINE",
"580 935 LINE",
"556 961 LINE",
"431 866 LINE SMOOTH",
"419 857 OFFCURVE",
"407 850 OFFCURVE",
"398 850 CURVE SMOOTH",
"389 850 OFFCURVE",
"377 857 OFFCURVE",
"364 866 CURVE",
"239 961 LINE",
"215 935 LINE",
"360 778 LINE"
);
}
);
width = 797;
}
);
leftKerningGroup = O;
note = Ocaron;
rightKerningGroup = O;
unicode = 01D1;
},
{
glyphname = Ocircumflex;
lastChange = "2015-10-12 08:28:13 +0000";
layers = (
{
layerId = "66DA30A5-A5D3-4FBB-AA06-F397B31B18DC";
name = Bold;
paths = (
{
closed = 1;
nodes = (
"648 -10 OFFCURVE",
"764 131 OFFCURVE",
"764 350 CURVE SMOOTH",
"764 568 OFFCURVE",
"648 710 OFFCURVE",
"398 710 CURVE SMOOTH",
"149 710 OFFCURVE",
"33 568 OFFCURVE",
"33 350 CURVE SMOOTH",
"33 131 OFFCURVE",
"149 -10 OFFCURVE",
"398 -10 CURVE SMOOTH"
);
},
{
closed = 1;
nodes = (
"260 47 OFFCURVE",
"188 162 OFFCURVE",
"188 350 CURVE SMOOTH",
"188 537 OFFCURVE",
"260 654 OFFCURVE",
"397 654 CURVE SMOOTH",
"536 654 OFFCURVE",
"609 537 OFFCURVE",
"609 350 CURVE SMOOTH",
"609 162 OFFCURVE",
"536 47 OFFCURVE",
"397 47 CURVE SMOOTH"
);
},
{
closed = 1;
nodes = (
"364 873 LINE SMOOTH",
"376 882 OFFCURVE",
"389 889 OFFCURVE",
"398 889 CURVE SMOOTH",
"407 889 OFFCURVE",
"419 882 OFFCURVE",
"431 873 CURVE SMOOTH",
"556 778 LINE",
"580 804 LINE",
"435 961 LINE",
"360 961 LINE",
"215 804 LINE",
"239 778 LINE"
);
}
);
width = 797;
}
);
leftKerningGroup = O;
note = Ocircumflex;
rightKerningGroup = O;
unicode = 00D4;
},
{
glyphname = Ocircumflexacute;
lastChange = "2015-10-12 08:28:13 +0000";
layers = (
{
layerId = "66DA30A5-A5D3-4FBB-AA06-F397B31B18DC";
name = Bold;
paths = (
{
closed = 1;
nodes = (
"648 -10 OFFCURVE",
"764 131 OFFCURVE",
"764 350 CURVE SMOOTH",
"764 568 OFFCURVE",
"648 710 OFFCURVE",
"398 710 CURVE SMOOTH",
"149 710 OFFCURVE",
"33 568 OFFCURVE",
"33 350 CURVE SMOOTH",
"33 131 OFFCURVE",
"149 -10 OFFCURVE",
"398 -10 CURVE SMOOTH"
);
},
{
closed = 1;
nodes = (
"260 47 OFFCURVE",
"188 162 OFFCURVE",
"188 350 CURVE SMOOTH",
"188 537 OFFCURVE",
"260 654 OFFCURVE",
"397 654 CURVE SMOOTH",
"536 654 OFFCURVE",
"609 537 OFFCURVE",
"609 350 CURVE SMOOTH",
"609 162 OFFCURVE",
"536 47 OFFCURVE",
"397 47 CURVE SMOOTH"
);
},
{
closed = 1;
nodes = (
"360 866 LINE SMOOTH",
"374 877 OFFCURVE",
"387 887 OFFCURVE",
"397 887 CURVE SMOOTH",
"406 887 OFFCURVE",
"418 879 OFFCURVE",
"430 870 CURVE SMOOTH",
"551 776 LINE",
"574 802 LINE",
"434 959 LINE",
"360 959 LINE",
"221 802 LINE",
"243 776 LINE"
);
},
{
closed = 1;
nodes = (
"649 965 LINE SMOOTH",
"681 981 OFFCURVE",
"704 1003 OFFCURVE",
"704 1026 CURVE SMOOTH",
"704 1046 OFFCURVE",
"688 1071 OFFCURVE",
"655 1071 CURVE SMOOTH",
"626 1071 OFFCURVE",
"603 1047 OFFCURVE",
"590 1032 CURVE SMOOTH",
"506 938 LINE",
"531 905 LINE"
);
}
);
width = 797;
}
);
leftKerningGroup = O;
note = Ocircumflexacute;
rightKerningGroup = O;
unicode = 1ED0;
},
{
glyphname = Ocircumflexdotbelow;
lastChange = "2015-10-12 08:28:13 +0000";
layers = (
{
layerId = "66DA30A5-A5D3-4FBB-AA06-F397B31B18DC";
name = Bold;
paths = (
{
closed = 1;
nodes = (
"648 -10 OFFCURVE",
"764 131 OFFCURVE",
"764 350 CURVE SMOOTH",
"764 568 OFFCURVE",
"648 710 OFFCURVE",
"398 710 CURVE SMOOTH",
"149 710 OFFCURVE",
"33 568 OFFCURVE",
"33 350 CURVE SMOOTH",
"33 131 OFFCURVE",
"149 -10 OFFCURVE",
"398 -10 CURVE SMOOTH"
);
},
{
closed = 1;
nodes = (
"420 -188 OFFCURVE",
"444 -161 OFFCURVE",
"444 -127 CURVE SMOOTH",
"444 -92 OFFCURVE",
"420 -64 OFFCURVE",
"383 -64 CURVE SMOOTH",
"345 -64 OFFCURVE",
"321 -92 OFFCURVE",
"321 -127 CURVE SMOOTH",
"321 -161 OFFCURVE",
"345 -188 OFFCURVE",
"383 -188 CURVE SMOOTH"
);
},
{
closed = 1;
nodes = (
"260 47 OFFCURVE",
"188 162 OFFCURVE",
"188 350 CURVE SMOOTH",
"188 537 OFFCURVE",
"260 654 OFFCURVE",
"397 654 CURVE SMOOTH",
"536 654 OFFCURVE",
"609 537 OFFCURVE",
"609 350 CURVE SMOOTH",
"609 162 OFFCURVE",
"536 47 OFFCURVE",
"397 47 CURVE SMOOTH"
);
},
{
closed = 1;
nodes = (
"364 873 LINE SMOOTH",
"376 882 OFFCURVE",
"389 889 OFFCURVE",
"398 889 CURVE SMOOTH",
"407 889 OFFCURVE",
"419 882 OFFCURVE",
"431 873 CURVE SMOOTH",
"556 778 LINE",
"580 804 LINE",
"435 961 LINE",
"360 961 LINE",
"215 804 LINE",
"239 778 LINE"
);
}
);
width = 797;
}
);
leftKerningGroup = O;
note = Ocircumflexdotbelow;
rightKerningGroup = O;
unicode = 1ED8;
},
{
glyphname = Ocircumflexgrave;
lastChange = "2015-10-12 08:28:13 +0000";
layers = (
{
layerId = "66DA30A5-A5D3-4FBB-AA06-F397B31B18DC";
name = Bold;
paths = (
{
closed = 1;
nodes = (
"648 -10 OFFCURVE",
"764 131 OFFCURVE",
"764 350 CURVE SMOOTH",
"764 568 OFFCURVE",
"648 710 OFFCURVE",
"398 710 CURVE SMOOTH",
"149 710 OFFCURVE",
"33 568 OFFCURVE",
"33 350 CURVE SMOOTH",
"33 131 OFFCURVE",
"149 -10 OFFCURVE",
"398 -10 CURVE SMOOTH"
);
},
{
closed = 1;
nodes = (
"260 47 OFFCURVE",
"188 162 OFFCURVE",
"188 350 CURVE SMOOTH",
"188 537 OFFCURVE",
"260 654 OFFCURVE",
"397 654 CURVE SMOOTH",
"536 654 OFFCURVE",
"609 537 OFFCURVE",
"609 350 CURVE SMOOTH",
"609 162 OFFCURVE",
"536 47 OFFCURVE",
"397 47 CURVE SMOOTH"
);
},
{
closed = 1;
nodes = (
"291 938 LINE",
"204 1034 LINE SMOOTH",
"192 1048 OFFCURVE",
"170 1072 OFFCURVE",
"142 1072 CURVE SMOOTH",
"107 1072 OFFCURVE",
"93 1045 OFFCURVE",
"93 1027 CURVE SMOOTH",
"93 1004 OFFCURVE",
"113 983 OFFCURVE",
"146 967 CURVE SMOOTH",
"266 905 LINE"
);
},
{
closed = 1;
nodes = (
"360 866 LINE SMOOTH",
"374 877 OFFCURVE",
"387 887 OFFCURVE",
"397 887 CURVE SMOOTH",
"406 887 OFFCURVE",
"418 879 OFFCURVE",
"430 870 CURVE SMOOTH",
"551 776 LINE",
"574 802 LINE",
"434 959 LINE",
"360 959 LINE",
"221 802 LINE",
"243 776 LINE"
);
}
);
width = 797;
}
);
leftKerningGroup = O;
note = Ocircumflexgrave;
rightKerningGroup = O;
unicode = 1ED2;
},
{
glyphname = Ocircumflexhookabove;
lastChange = "2015-10-12 08:28:13 +0000";
layers = (
{
layerId = "66DA30A5-A5D3-4FBB-AA06-F397B31B18DC";
name = Bold;
paths = (
{
closed = 1;
nodes = (
"648 -10 OFFCURVE",
"764 131 OFFCURVE",
"764 350 CURVE SMOOTH",
"764 568 OFFCURVE",
"648 710 OFFCURVE",
"398 710 CURVE SMOOTH",
"149 710 OFFCURVE",
"33 568 OFFCURVE",
"33 350 CURVE SMOOTH",
"33 131 OFFCURVE",
"149 -10 OFFCURVE",
"398 -10 CURVE SMOOTH"
);
},
{
closed = 1;
nodes = (
"260 47 OFFCURVE",
"188 162 OFFCURVE",
"188 350 CURVE SMOOTH",
"188 537 OFFCURVE",
"260 654 OFFCURVE",
"397 654 CURVE SMOOTH",
"536 654 OFFCURVE",
"609 537 OFFCURVE",
"609 350 CURVE SMOOTH",
"609 162 OFFCURVE",
"536 47 OFFCURVE",
"397 47 CURVE SMOOTH"
);
},
{
closed = 1;
nodes = (
"360 867 LINE SMOOTH",
"374 878 OFFCURVE",
"387 888 OFFCURVE",
"397 888 CURVE SMOOTH",
"406 888 OFFCURVE",
"418 880 OFFCURVE",
"430 871 CURVE SMOOTH",
"551 777 LINE",
"574 803 LINE",
"434 960 LINE",
"360 960 LINE",
"221 803 LINE",
"243 777 LINE"
);
},
{
closed = 1;
nodes = (
"593 921 LINE",
"577 926 OFFCURVE",
"565 929 OFFCURVE",
"565 947 CURVE SMOOTH",
"565 982 OFFCURVE",
"657 991 OFFCURVE",
"657 1044 CURVE SMOOTH",
"657 1085 OFFCURVE",
"609 1104 OFFCURVE",
"560 1104 CURVE SMOOTH",
"509 1104 OFFCURVE",
"471 1083 OFFCURVE",
"471 1056 CURVE SMOOTH",
"471 1039 OFFCURVE",
"485 1029 OFFCURVE",
"498 1029 CURVE SMOOTH",
"533 1029 OFFCURVE",
"518 1078 OFFCURVE",
"563 1078 CURVE SMOOTH",
"583 1078 OFFCURVE",
"592 1063 OFFCURVE",
"592 1049 CURVE SMOOTH",
"592 1001 OFFCURVE",
"513 991 OFFCURVE",
"513 947 CURVE SMOOTH",
"513 920 OFFCURVE",
"537 900 OFFCURVE",
"584 900 CURVE"
);
}
);
width = 797;
}
);
leftKerningGroup = O;
note = Ocircumflexhookabove;
rightKerningGroup = O;
unicode = 1ED4;
},
{
glyphname = Ocircumflextilde;
lastChange = "2015-10-12 08:28:13 +0000";
layers = (
{
layerId = "66DA30A5-A5D3-4FBB-AA06-F397B31B18DC";
name = Bold;
paths = (
{
closed = 1;
nodes = (
"648 -10 OFFCURVE",
"764 131 OFFCURVE",
"764 350 CURVE SMOOTH",
"764 568 OFFCURVE",
"648 710 OFFCURVE",
"398 710 CURVE SMOOTH",
"149 710 OFFCURVE",
"33 568 OFFCURVE",
"33 350 CURVE SMOOTH",
"33 131 OFFCURVE",
"149 -10 OFFCURVE",
"398 -10 CURVE SMOOTH"
);
},
{
closed = 1;
nodes = (
"260 47 OFFCURVE",
"188 162 OFFCURVE",
"188 350 CURVE SMOOTH",
"188 537 OFFCURVE",
"260 654 OFFCURVE",
"397 654 CURVE SMOOTH",
"536 654 OFFCURVE",
"609 537 OFFCURVE",
"609 350 CURVE SMOOTH",
"609 162 OFFCURVE",
"536 47 OFFCURVE",
"397 47 CURVE SMOOTH"
);
},
{
closed = 1;
nodes = (
"360 867 LINE SMOOTH",
"374 878 OFFCURVE",
"387 888 OFFCURVE",
"397 888 CURVE SMOOTH",
"406 888 OFFCURVE",
"418 880 OFFCURVE",
"430 871 CURVE SMOOTH",
"551 777 LINE",
"574 803 LINE",
"434 960 LINE",
"360 960 LINE",
"221 803 LINE",
"243 777 LINE"
);
},
{
closed = 1;
nodes = (
"260 1019 OFFCURVE",
"276 1038 OFFCURVE",
"309 1038 CURVE SMOOTH",
"364 1038 OFFCURVE",
"414 989 OFFCURVE",
"467 989 CURVE SMOOTH",
"532 989 OFFCURVE",
"563 1055 OFFCURVE",
"578 1102 CURVE",
"552 1118 LINE",
"535 1077 OFFCURVE",
"520 1058 OFFCURVE",
"486 1058 CURVE SMOOTH",
"433 1058 OFFCURVE",
"381 1106 OFFCURVE",
"328 1106 CURVE SMOOTH",
"264 1106 OFFCURVE",
"232 1043 OFFCURVE",
"218 995 CURVE",
"243 980 LINE"
);
}
);
width = 797;
}
);
leftKerningGroup = O;
note = Ocircumflextilde;
rightKerningGroup = O;
unicode = 1ED6;
},
{
glyphname = Odieresis;
lastChange = "2015-10-12 08:28:13 +0000";
layers = (
{
layerId = "66DA30A5-A5D3-4FBB-AA06-F397B31B18DC";
name = Bold;
paths = (
{
closed = 1;
nodes = (
"648 -10 OFFCURVE",
"764 131 OFFCURVE",
"764 350 CURVE SMOOTH",
"764 568 OFFCURVE",
"648 710 OFFCURVE",
"398 710 CURVE SMOOTH",
"149 710 OFFCURVE",
"33 568 OFFCURVE",
"33 350 CURVE SMOOTH",
"33 131 OFFCURVE",
"149 -10 OFFCURVE",
"398 -10 CURVE SMOOTH"
);
},
{
closed = 1;
nodes = (
"260 47 OFFCURVE",
"188 162 OFFCURVE",
"188 350 CURVE SMOOTH",
"188 537 OFFCURVE",
"260 654 OFFCURVE",
"397 654 CURVE SMOOTH",
"536 654 OFFCURVE",
"609 537 OFFCURVE",
"609 350 CURVE SMOOTH",
"609 162 OFFCURVE",
"536 47 OFFCURVE",
"397 47 CURVE SMOOTH"
);
},
{
closed = 1;
nodes = (
"319 778 OFFCURVE",
"343 804 OFFCURVE",
"343 838 CURVE SMOOTH",
"343 874 OFFCURVE",
"319 900 OFFCURVE",
"281 900 CURVE SMOOTH",
"243 900 OFFCURVE",
"220 874 OFFCURVE",
"220 838 CURVE SMOOTH",
"220 804 OFFCURVE",
"243 778 OFFCURVE",
"281 778 CURVE SMOOTH"
);
},
{
closed = 1;
nodes = (
"551 778 OFFCURVE",
"575 804 OFFCURVE",
"575 838 CURVE SMOOTH",
"575 874 OFFCURVE",
"551 900 OFFCURVE",
"514 900 CURVE SMOOTH",
"475 900 OFFCURVE",
"452 874 OFFCURVE",
"452 838 CURVE SMOOTH",
"452 804 OFFCURVE",
"475 778 OFFCURVE",
"514 778 CURVE SMOOTH"
);
}
);
width = 797;
}
);
leftKerningGroup = O;
note = Odieresis;
rightKerningGroup = O;
unicode = 00D6;
},
{
glyphname = Odotbelow;
lastChange = "2015-10-12 08:28:13 +0000";
layers = (
{
layerId = "66DA30A5-A5D3-4FBB-AA06-F397B31B18DC";
name = Bold;
paths = (
{
closed = 1;
nodes = (
"648 -10 OFFCURVE",
"764 131 OFFCURVE",
"764 350 CURVE SMOOTH",
"764 568 OFFCURVE",
"648 710 OFFCURVE",
"398 710 CURVE SMOOTH",
"149 710 OFFCURVE",
"33 568 OFFCURVE",
"33 350 CURVE SMOOTH",
"33 131 OFFCURVE",
"149 -10 OFFCURVE",
"398 -10 CURVE SMOOTH"
);
},
{
closed = 1;
nodes = (
"435 -188 OFFCURVE",
"459 -161 OFFCURVE",
"459 -127 CURVE SMOOTH",
"459 -92 OFFCURVE",
"435 -64 OFFCURVE",
"398 -64 CURVE SMOOTH",
"360 -64 OFFCURVE",
"336 -92 OFFCURVE",
"336 -127 CURVE SMOOTH",
"336 -161 OFFCURVE",
"360 -188 OFFCURVE",
"398 -188 CURVE SMOOTH"
);
},
{
closed = 1;
nodes = (
"260 47 OFFCURVE",
"188 162 OFFCURVE",
"188 350 CURVE SMOOTH",
"188 537 OFFCURVE",
"260 654 OFFCURVE",
"397 654 CURVE SMOOTH",
"536 654 OFFCURVE",
"609 537 OFFCURVE",
"609 350 CURVE SMOOTH",
"609 162 OFFCURVE",
"536 47 OFFCURVE",
"397 47 CURVE SMOOTH"
);
}
);
width = 797;
}
);
leftKerningGroup = O;
note = Odotbelow;
rightKerningGroup = O;
unicode = 1ECC;
},
{
glyphname = Ograve;
lastChange = "2015-10-12 08:28:13 +0000";
layers = (
{
layerId = "66DA30A5-A5D3-4FBB-AA06-F397B31B18DC";
name = Bold;
paths = (
{
closed = 1;
nodes = (
"648 -10 OFFCURVE",
"764 131 OFFCURVE",
"764 350 CURVE SMOOTH",
"764 568 OFFCURVE",
"648 710 OFFCURVE",
"398 710 CURVE SMOOTH",
"149 710 OFFCURVE",
"33 568 OFFCURVE",
"33 350 CURVE SMOOTH",
"33 131 OFFCURVE",
"149 -10 OFFCURVE",
"398 -10 CURVE SMOOTH"
);
},
{
closed = 1;
nodes = (
"260 47 OFFCURVE",
"188 162 OFFCURVE",
"188 350 CURVE SMOOTH",
"188 537 OFFCURVE",
"260 654 OFFCURVE",
"397 654 CURVE SMOOTH",
"536 654 OFFCURVE",
"609 537 OFFCURVE",
"609 350 CURVE SMOOTH",
"609 162 OFFCURVE",
"536 47 OFFCURVE",
"397 47 CURVE SMOOTH"
);
},
{
closed = 1;
nodes = (
"506 815 LINE",
"385 937 LINE",
"377 946 OFFCURVE",
"354 971 OFFCURVE",
"323 971 CURVE SMOOTH",
"289 971 OFFCURVE",
"275 949 OFFCURVE",
"275 929 CURVE SMOOTH",
"275 905 OFFCURVE",
"291 887 OFFCURVE",
"321 869 CURVE SMOOTH",
"479 777 LINE"
);
}
);
width = 797;
}
);
leftKerningGroup = O;
note = Ograve;
rightKerningGroup = O;
unicode = 00D2;
},
{
glyphname = Ohookabove;
lastChange = "2015-10-12 08:28:13 +0000";
layers = (
{
layerId = "66DA30A5-A5D3-4FBB-AA06-F397B31B18DC";
name = Bold;
paths = (
{
closed = 1;
nodes = (
"648 -10 OFFCURVE",
"764 131 OFFCURVE",
"764 350 CURVE SMOOTH",
"764 568 OFFCURVE",
"648 710 OFFCURVE",
"398 710 CURVE SMOOTH",
"149 710 OFFCURVE",
"33 568 OFFCURVE",
"33 350 CURVE SMOOTH",
"33 131 OFFCURVE",
"149 -10 OFFCURVE",
"398 -10 CURVE SMOOTH"
);
},
{
closed = 1;
nodes = (
"260 47 OFFCURVE",
"188 162 OFFCURVE",
"188 350 CURVE SMOOTH",
"188 537 OFFCURVE",
"260 654 OFFCURVE",
"397 654 CURVE SMOOTH",
"536 654 OFFCURVE",
"609 537 OFFCURVE",
"609 350 CURVE SMOOTH",
"609 162 OFFCURVE",
"536 47 OFFCURVE",
"397 47 CURVE SMOOTH"
);
},
{
closed = 1;
nodes = (
"432 801 LINE",
"415 805 OFFCURVE",
"401 811 OFFCURVE",
"401 829 CURVE SMOOTH",
"401 869 OFFCURVE",
"505 880 OFFCURVE",
"505 941 CURVE SMOOTH",
"505 988 OFFCURVE",
"458 1013 OFFCURVE",
"398 1013 CURVE SMOOTH",
"330 1013 OFFCURVE",
"293 986 OFFCURVE",
"293 954 CURVE SMOOTH",
"293 932 OFFCURVE",
"307 922 OFFCURVE",
"324 922 CURVE SMOOTH",
"348 922 OFFCURVE",
"356 942 OFFCURVE",
"358 952 CURVE",
"361 973 OFFCURVE",
"381 979 OFFCURVE",
"398 979 CURVE SMOOTH",
"418 979 OFFCURVE",
"431 963 OFFCURVE",
"431 946 CURVE SMOOTH",
"431 892 OFFCURVE",
"341 881 OFFCURVE",
"341 831 CURVE SMOOTH",
"341 800 OFFCURVE",
"369 777 OFFCURVE",
"422 777 CURVE"
);
}
);
width = 797;
}
);
leftKerningGroup = O;
note = Ohookabove;
rightKerningGroup = O;
unicode = 1ECE;
},
{
glyphname = Ohorn;
lastChange = "2015-10-12 08:28:13 +0000";
layers = (
{
layerId = "66DA30A5-A5D3-4FBB-AA06-F397B31B18DC";
name = Bold;
paths = (
{
closed = 1;
nodes = (
"651 -10 OFFCURVE",
"767 131 OFFCURVE",
"767 350 CURVE SMOOTH",
"767 568 OFFCURVE",
"651 710 OFFCURVE",
"401 710 CURVE SMOOTH",
"152 710 OFFCURVE",
"36 568 OFFCURVE",
"36 350 CURVE SMOOTH",
"36 131 OFFCURVE",
"152 -10 OFFCURVE",
"401 -10 CURVE SMOOTH"
);
},
{
closed = 1;
nodes = (
"263 47 OFFCURVE",
"191 162 OFFCURVE",
"191 350 CURVE SMOOTH",
"191 537 OFFCURVE",
"263 654 OFFCURVE",
"400 654 CURVE SMOOTH",
"539 654 OFFCURVE",
"612 537 OFFCURVE",
"612 350 CURVE SMOOTH",
"612 162 OFFCURVE",
"539 47 OFFCURVE",
"400 47 CURVE SMOOTH"
);
},
{
closed = 1;
nodes = (
"761 545 OFFCURVE",
"857 622 OFFCURVE",
"857 716 CURVE SMOOTH",
"857 774 OFFCURVE",
"823 804 OFFCURVE",
"783 804 CURVE SMOOTH",
"744 804 OFFCURVE",
"721 778 OFFCURVE",
"721 749 CURVE SMOOTH",
"721 709 OFFCURVE",
"761 695 OFFCURVE",
"761 655 CURVE SMOOTH",
"761 614 OFFCURVE",
"730 583 OFFCURVE",
"682 558 CURVE",
"682 526 LINE"
);
}
);
width = 812;
}
);
leftKerningGroup = O;
note = Ohorn;
rightKerningGroup = O;
unicode = 01A0;
},
{
glyphname = Ohornacute;
lastChange = "2015-10-12 08:28:12 +0000";
layers = (
{
layerId = "66DA30A5-A5D3-4FBB-AA06-F397B31B18DC";
name = Bold;
paths = (
{
closed = 1;
nodes = (
"651 -10 OFFCURVE",
"767 131 OFFCURVE",
"767 350 CURVE SMOOTH",
"767 568 OFFCURVE",
"651 710 OFFCURVE",
"401 710 CURVE SMOOTH",
"152 710 OFFCURVE",
"36 568 OFFCURVE",
"36 350 CURVE SMOOTH",
"36 131 OFFCURVE",
"152 -10 OFFCURVE",
"401 -10 CURVE SMOOTH"
);
},
{
closed = 1;
nodes = (
"263 47 OFFCURVE",
"191 162 OFFCURVE",
"191 350 CURVE SMOOTH",
"191 537 OFFCURVE",
"263 654 OFFCURVE",
"400 654 CURVE SMOOTH",
"539 654 OFFCURVE",
"612 537 OFFCURVE",
"612 350 CURVE SMOOTH",
"612 162 OFFCURVE",
"539 47 OFFCURVE",
"400 47 CURVE SMOOTH"
);
},
{
closed = 1;
nodes = (
"455 868 LINE SMOOTH",
"485 886 OFFCURVE",
"503 904 OFFCURVE",
"503 927 CURVE SMOOTH",
"503 947 OFFCURVE",
"488 970 OFFCURVE",
"454 970 CURVE SMOOTH",
"423 970 OFFCURVE",
"400 945 OFFCURVE",
"393 937 CURVE",
"271 814 LINE",
"298 776 LINE"
);
},
{
closed = 1;
nodes = (
"746 535 OFFCURVE",
"842 612 OFFCURVE",
"842 706 CURVE SMOOTH",
"842 764 OFFCURVE",
"808 794 OFFCURVE",
"768 794 CURVE SMOOTH",
"729 794 OFFCURVE",
"706 768 OFFCURVE",
"706 739 CURVE SMOOTH",
"706 699 OFFCURVE",
"746 685 OFFCURVE",
"746 645 CURVE SMOOTH",
"746 604 OFFCURVE",
"715 573 OFFCURVE",
"667 548 CURVE",
"667 516 LINE"
);
}
);
width = 812;
}
);
leftKerningGroup = O;
note = Ohornacute;
rightKerningGroup = O;
unicode = 1EDA;
},
{
glyphname = Ohorndotbelow;
lastChange = "2015-10-12 08:28:12 +0000";
layers = (
{
layerId = "66DA30A5-A5D3-4FBB-AA06-F397B31B18DC";
name = Bold;
paths = (
{
closed = 1;
nodes = (
"651 -10 OFFCURVE",
"767 131 OFFCURVE",
"767 350 CURVE SMOOTH",
"767 568 OFFCURVE",
"651 710 OFFCURVE",
"401 710 CURVE SMOOTH",
"152 710 OFFCURVE",
"36 568 OFFCURVE",
"36 350 CURVE SMOOTH",
"36 131 OFFCURVE",
"152 -10 OFFCURVE",
"401 -10 CURVE SMOOTH"
);
},
{
closed = 1;
nodes = (
"436 -188 OFFCURVE",
"460 -161 OFFCURVE",
"460 -127 CURVE SMOOTH",
"460 -92 OFFCURVE",
"436 -64 OFFCURVE",
"399 -64 CURVE SMOOTH",
"361 -64 OFFCURVE",
"337 -92 OFFCURVE",
"337 -127 CURVE SMOOTH",
"337 -161 OFFCURVE",
"361 -188 OFFCURVE",
"399 -188 CURVE SMOOTH"
);
},
{
closed = 1;
nodes = (
"263 47 OFFCURVE",
"191 162 OFFCURVE",
"191 350 CURVE SMOOTH",
"191 537 OFFCURVE",
"263 654 OFFCURVE",
"400 654 CURVE SMOOTH",
"539 654 OFFCURVE",
"612 537 OFFCURVE",
"612 350 CURVE SMOOTH",
"612 162 OFFCURVE",
"539 47 OFFCURVE",
"400 47 CURVE SMOOTH"
);
},
{
closed = 1;
nodes = (
"746 535 OFFCURVE",
"842 612 OFFCURVE",
"842 706 CURVE SMOOTH",
"842 764 OFFCURVE",
"808 794 OFFCURVE",
"768 794 CURVE SMOOTH",
"729 794 OFFCURVE",
"706 768 OFFCURVE",
"706 739 CURVE SMOOTH",
"706 699 OFFCURVE",
"746 685 OFFCURVE",
"746 645 CURVE SMOOTH",
"746 604 OFFCURVE",
"715 573 OFFCURVE",
"667 548 CURVE",
"667 516 LINE"
);
}
);
width = 812;
}
);
leftKerningGroup = O;
note = Ohorndotbelow;
rightKerningGroup = O;
unicode = 1EE2;
},
{
glyphname = Ohorngrave;
lastChange = "2015-10-12 08:28:13 +0000";
layers = (
{
layerId = "66DA30A5-A5D3-4FBB-AA06-F397B31B18DC";
name = Bold;
paths = (
{
closed = 1;
nodes = (
"651 -10 OFFCURVE",
"767 131 OFFCURVE",
"767 350 CURVE SMOOTH",
"767 568 OFFCURVE",
"651 710 OFFCURVE",
"401 710 CURVE SMOOTH",
"152 710 OFFCURVE",
"36 568 OFFCURVE",
"36 350 CURVE SMOOTH",
"36 131 OFFCURVE",
"152 -10 OFFCURVE",
"401 -10 CURVE SMOOTH"
);
},
{
closed = 1;
nodes = (
"263 47 OFFCURVE",
"191 162 OFFCURVE",
"191 350 CURVE SMOOTH",
"191 537 OFFCURVE",
"263 654 OFFCURVE",
"400 654 CURVE SMOOTH",
"539 654 OFFCURVE",
"612 537 OFFCURVE",
"612 350 CURVE SMOOTH",
"612 162 OFFCURVE",
"539 47 OFFCURVE",
"400 47 CURVE SMOOTH"
);
},
{
closed = 1;
nodes = (
"514 833 LINE",
"393 955 LINE",
"385 964 OFFCURVE",
"362 989 OFFCURVE",
"331 989 CURVE SMOOTH",
"297 989 OFFCURVE",
"283 967 OFFCURVE",
"283 947 CURVE SMOOTH",
"283 923 OFFCURVE",
"299 905 OFFCURVE",
"329 887 CURVE SMOOTH",
"487 795 LINE"
);
},
{
closed = 1;
nodes = (
"746 535 OFFCURVE",
"842 612 OFFCURVE",
"842 706 CURVE SMOOTH",
"842 764 OFFCURVE",
"808 794 OFFCURVE",
"768 794 CURVE SMOOTH",
"729 794 OFFCURVE",
"706 768 OFFCURVE",
"706 739 CURVE SMOOTH",
"706 699 OFFCURVE",
"746 685 OFFCURVE",
"746 645 CURVE SMOOTH",
"746 604 OFFCURVE",
"715 573 OFFCURVE",
"667 548 CURVE",
"667 516 LINE"
);
}
);
width = 812;
}
);
leftKerningGroup = O;
note = Ohorngrave;
rightKerningGroup = O;
unicode = 1EDC;
},
{
glyphname = Ohornhookabove;
lastChange = "2015-10-12 08:28:13 +0000";
layers = (
{
layerId = "66DA30A5-A5D3-4FBB-AA06-F397B31B18DC";
name = Bold;
paths = (
{
closed = 1;
nodes = (
"651 -10 OFFCURVE",
"767 131 OFFCURVE",
"767 350 CURVE SMOOTH",
"767 568 OFFCURVE",
"651 710 OFFCURVE",
"401 710 CURVE SMOOTH",
"152 710 OFFCURVE",
"36 568 OFFCURVE",
"36 350 CURVE SMOOTH",
"36 131 OFFCURVE",
"152 -10 OFFCURVE",
"401 -10 CURVE SMOOTH"
);
},
{
closed = 1;
nodes = (
"263 47 OFFCURVE",
"191 162 OFFCURVE",
"191 350 CURVE SMOOTH",
"191 537 OFFCURVE",
"263 654 OFFCURVE",
"400 654 CURVE SMOOTH",
"539 654 OFFCURVE",
"612 537 OFFCURVE",
"612 350 CURVE SMOOTH",
"612 162 OFFCURVE",
"539 47 OFFCURVE",
"400 47 CURVE SMOOTH"
);
},
{
closed = 1;
nodes = (
"437 820 LINE",
"420 824 OFFCURVE",
"406 830 OFFCURVE",
"406 848 CURVE SMOOTH",
"406 888 OFFCURVE",
"510 899 OFFCURVE",
"510 960 CURVE SMOOTH",
"510 1007 OFFCURVE",
"463 1032 OFFCURVE",
"403 1032 CURVE SMOOTH",
"335 1032 OFFCURVE",
"298 1005 OFFCURVE",
"298 973 CURVE SMOOTH",
"298 951 OFFCURVE",
"312 941 OFFCURVE",
"329 941 CURVE SMOOTH",
"353 941 OFFCURVE",
"361 961 OFFCURVE",
"363 971 CURVE",
"366 992 OFFCURVE",
"386 998 OFFCURVE",
"403 998 CURVE SMOOTH",
"423 998 OFFCURVE",
"436 982 OFFCURVE",
"436 965 CURVE SMOOTH",
"436 911 OFFCURVE",
"346 900 OFFCURVE",
"346 850 CURVE SMOOTH",
"346 819 OFFCURVE",
"374 796 OFFCURVE",
"427 796 CURVE"
);
},
{
closed = 1;
nodes = (
"746 535 OFFCURVE",
"842 612 OFFCURVE",
"842 706 CURVE SMOOTH",
"842 764 OFFCURVE",
"808 794 OFFCURVE",
"768 794 CURVE SMOOTH",
"729 794 OFFCURVE",
"706 768 OFFCURVE",
"706 739 CURVE SMOOTH",
"706 699 OFFCURVE",
"746 685 OFFCURVE",
"746 645 CURVE SMOOTH",
"746 604 OFFCURVE",
"715 573 OFFCURVE",
"667 548 CURVE",
"667 516 LINE"
);
}
);
width = 812;
}
);
leftKerningGroup = O;
note = Ohornhookabove;
rightKerningGroup = O;
unicode = 1EDE;
},
{
glyphname = Ohorntilde;
lastChange = "2015-10-12 08:28:13 +0000";
layers = (
{
layerId = "66DA30A5-A5D3-4FBB-AA06-F397B31B18DC";
name = Bold;
paths = (
{
closed = 1;
nodes = (
"651 -10 OFFCURVE",
"767 131 OFFCURVE",
"767 350 CURVE SMOOTH",
"767 568 OFFCURVE",
"651 710 OFFCURVE",
"401 710 CURVE SMOOTH",
"152 710 OFFCURVE",
"36 568 OFFCURVE",
"36 350 CURVE SMOOTH",
"36 131 OFFCURVE",
"152 -10 OFFCURVE",
"401 -10 CURVE SMOOTH"
);
},
{
closed = 1;
nodes = (
"263 47 OFFCURVE",
"191 162 OFFCURVE",
"191 350 CURVE SMOOTH",
"191 537 OFFCURVE",
"263 654 OFFCURVE",
"400 654 CURVE SMOOTH",
"539 654 OFFCURVE",
"612 537 OFFCURVE",
"612 350 CURVE SMOOTH",
"612 162 OFFCURVE",
"539 47 OFFCURVE",
"400 47 CURVE SMOOTH"
);
},
{
closed = 1;
nodes = (
"250 833 OFFCURVE",
"267 852 OFFCURVE",
"303 852 CURVE SMOOTH",
"362 852 OFFCURVE",
"416 803 OFFCURVE",
"474 803 CURVE SMOOTH",
"545 803 OFFCURVE",
"578 868 OFFCURVE",
"594 916 CURVE",
"566 931 LINE",
"547 891 OFFCURVE",
"531 872 OFFCURVE",
"494 872 CURVE SMOOTH",
"436 872 OFFCURVE",
"381 920 OFFCURVE",
"323 920 CURVE SMOOTH",
"254 920 OFFCURVE",
"219 857 OFFCURVE",
"203 809 CURVE",
"231 794 LINE"
);
},
{
closed = 1;
nodes = (
"746 535 OFFCURVE",
"842 612 OFFCURVE",
"842 706 CURVE SMOOTH",
"842 764 OFFCURVE",
"808 794 OFFCURVE",
"768 794 CURVE SMOOTH",
"729 794 OFFCURVE",
"706 768 OFFCURVE",
"706 739 CURVE SMOOTH",
"706 699 OFFCURVE",
"746 685 OFFCURVE",
"746 645 CURVE SMOOTH",
"746 604 OFFCURVE",
"715 573 OFFCURVE",
"667 548 CURVE",
"667 516 LINE"
);
}
);
width = 812;
}
);
leftKerningGroup = O;
note = Ohorntilde;
rightKerningGroup = O;
unicode = 1EE0;
},
{
glyphname = Ohungarumlaut;
lastChange = "2015-10-12 08:28:13 +0000";
layers = (
{
layerId = "66DA30A5-A5D3-4FBB-AA06-F397B31B18DC";
name = Bold;
paths = (
{
closed = 1;
nodes = (
"648 -10 OFFCURVE",
"764 131 OFFCURVE",
"764 350 CURVE SMOOTH",
"764 568 OFFCURVE",
"648 710 OFFCURVE",
"398 710 CURVE SMOOTH",
"149 710 OFFCURVE",
"33 568 OFFCURVE",
"33 350 CURVE SMOOTH",
"33 131 OFFCURVE",
"149 -10 OFFCURVE",
"398 -10 CURVE SMOOTH"
);
},
{
closed = 1;
nodes = (
"260 47 OFFCURVE",
"188 162 OFFCURVE",
"188 350 CURVE SMOOTH",
"188 537 OFFCURVE",
"260 654 OFFCURVE",
"397 654 CURVE SMOOTH",
"536 654 OFFCURVE",
"609 537 OFFCURVE",
"609 350 CURVE SMOOTH",
"609 162 OFFCURVE",
"536 47 OFFCURVE",
"397 47 CURVE SMOOTH"
);
},
{
closed = 1;
nodes = (
"408 868 LINE SMOOTH",
"438 886 OFFCURVE",
"455 905 OFFCURVE",
"455 928 CURVE SMOOTH",
"455 947 OFFCURVE",
"441 970 OFFCURVE",
"407 970 CURVE SMOOTH",
"377 970 OFFCURVE",
"351 943 OFFCURVE",
"344 937 CURVE",
"224 814 LINE",
"251 776 LINE"
);
},
{
closed = 1;
nodes = (
"603 868 LINE SMOOTH",
"633 886 OFFCURVE",
"650 905 OFFCURVE",
"650 928 CURVE SMOOTH",
"650 947 OFFCURVE",
"637 970 OFFCURVE",
"603 970 CURVE SMOOTH",
"571 970 OFFCURVE",
"545 943 OFFCURVE",
"539 937 CURVE SMOOTH",
"419 814 LINE",
"445 776 LINE"
);
}
);
width = 797;
}
);
leftKerningGroup = O;
note = Ohungarumlaut;
rightKerningGroup = O;
unicode = 0150;
},
{
glyphname = Omacron;
lastChange = "2015-10-12 08:28:13 +0000";
layers = (
{
layerId = "66DA30A5-A5D3-4FBB-AA06-F397B31B18DC";
name = Bold;
paths = (
{
closed = 1;
nodes = (
"648 -10 OFFCURVE",
"764 131 OFFCURVE",
"764 350 CURVE SMOOTH",
"764 568 OFFCURVE",
"648 710 OFFCURVE",
"398 710 CURVE SMOOTH",
"149 710 OFFCURVE",
"33 568 OFFCURVE",
"33 350 CURVE SMOOTH",
"33 131 OFFCURVE",
"149 -10 OFFCURVE",
"398 -10 CURVE SMOOTH"
);
},
{
closed = 1;
nodes = (
"260 47 OFFCURVE",
"188 162 OFFCURVE",
"188 350 CURVE SMOOTH",
"188 537 OFFCURVE",
"260 654 OFFCURVE",
"397 654 CURVE SMOOTH",
"536 654 OFFCURVE",
"609 537 OFFCURVE",
"609 350 CURVE SMOOTH",
"609 162 OFFCURVE",
"536 47 OFFCURVE",
"397 47 CURVE SMOOTH"
);
},
{
closed = 1;
nodes = (
"588 783 LINE",
"588 842 LINE",
"207 842 LINE",
"207 783 LINE"
);
}
);
width = 797;
}
);
leftKerningGroup = O;
note = Omacron;
rightKerningGroup = O;
unicode = 014C;
},
{
glyphname = Oslash;
lastChange = "2015-10-12 08:28:13 +0000";
layers = (
{
layerId = "66DA30A5-A5D3-4FBB-AA06-F397B31B18DC";
name = Bold;
paths = (
{
closed = 1;
nodes = (
"648 -10 OFFCURVE",
"764 131 OFFCURVE",
"764 350 CURVE SMOOTH",
"764 568 OFFCURVE",
"648 710 OFFCURVE",
"398 710 CURVE SMOOTH",
"149 710 OFFCURVE",
"33 568 OFFCURVE",
"33 350 CURVE SMOOTH",
"33 131 OFFCURVE",
"149 -10 OFFCURVE",
"398 -10 CURVE SMOOTH"
);
},
{
closed = 1;
nodes = (
"703 691 LINE",
"655 727 LINE",
"49 4 LINE",
"95 -31 LINE"
);
},
{
closed = 1;
nodes = (
"260 47 OFFCURVE",
"188 162 OFFCURVE",
"188 350 CURVE SMOOTH",
"188 537 OFFCURVE",
"260 654 OFFCURVE",
"397 654 CURVE SMOOTH",
"536 654 OFFCURVE",
"609 537 OFFCURVE",
"609 350 CURVE SMOOTH",
"609 162 OFFCURVE",
"536 47 OFFCURVE",
"397 47 CURVE SMOOTH"
);
}
);
width = 797;
}
);
leftKerningGroup = O;
note = Oslash;
rightKerningGroup = O;
unicode = 00D8;
},
{
glyphname = Oslashacute;
lastChange = "2015-10-12 08:28:13 +0000";
layers = (
{
layerId = "66DA30A5-A5D3-4FBB-AA06-F397B31B18DC";
name = Bold;
paths = (
{
closed = 1;
nodes = (
"648 -10 OFFCURVE",
"764 131 OFFCURVE",
"764 350 CURVE SMOOTH",
"764 568 OFFCURVE",
"648 710 OFFCURVE",
"398 710 CURVE SMOOTH",
"149 710 OFFCURVE",
"33 568 OFFCURVE",
"33 350 CURVE SMOOTH",
"33 131 OFFCURVE",
"149 -10 OFFCURVE",
"398 -10 CURVE SMOOTH"
);
},
{
closed = 1;
nodes = (
"703 691 LINE",
"655 727 LINE",
"49 4 LINE",
"95 -31 LINE"
);
},
{
closed = 1;
nodes = (
"260 47 OFFCURVE",
"188 162 OFFCURVE",
"188 350 CURVE SMOOTH",
"188 537 OFFCURVE",
"260 654 OFFCURVE",
"397 654 CURVE SMOOTH",
"536 654 OFFCURVE",
"609 537 OFFCURVE",
"609 350 CURVE SMOOTH",
"609 162 OFFCURVE",
"536 47 OFFCURVE",
"397 47 CURVE SMOOTH"
);
},
{
closed = 1;
nodes = (
"469 869 LINE SMOOTH",
"499 887 OFFCURVE",
"517 905 OFFCURVE",
"517 928 CURVE SMOOTH",
"517 948 OFFCURVE",
"502 971 OFFCURVE",
"468 971 CURVE SMOOTH",
"437 971 OFFCURVE",
"414 946 OFFCURVE",
"407 938 CURVE",
"285 815 LINE",
"312 777 LINE"
);
}
);
width = 797;
}
);
leftKerningGroup = O;
note = Oslashacute;
rightKerningGroup = O;
unicode = 01FE;
},
{
glyphname = Otilde;
lastChange = "2015-10-12 08:28:12 +0000";
layers = (
{
layerId = "66DA30A5-A5D3-4FBB-AA06-F397B31B18DC";
name = Bold;
paths = (
{
closed = 1;
nodes = (
"648 -10 OFFCURVE",
"764 131 OFFCURVE",
"764 350 CURVE SMOOTH",
"764 568 OFFCURVE",
"648 710 OFFCURVE",
"398 710 CURVE SMOOTH",
"149 710 OFFCURVE",
"33 568 OFFCURVE",
"33 350 CURVE SMOOTH",
"33 131 OFFCURVE",
"149 -10 OFFCURVE",
"398 -10 CURVE SMOOTH"
);
},
{
closed = 1;
nodes = (
"260 47 OFFCURVE",
"188 162 OFFCURVE",
"188 350 CURVE SMOOTH",
"188 537 OFFCURVE",
"260 654 OFFCURVE",
"397 654 CURVE SMOOTH",
"536 654 OFFCURVE",
"609 537 OFFCURVE",
"609 350 CURVE SMOOTH",
"609 162 OFFCURVE",
"536 47 OFFCURVE",
"397 47 CURVE SMOOTH"
);
},
{
closed = 1;
nodes = (
"243 814 OFFCURVE",
"260 833 OFFCURVE",
"296 833 CURVE SMOOTH",
"355 833 OFFCURVE",
"409 784 OFFCURVE",
"467 784 CURVE SMOOTH",
"538 784 OFFCURVE",
"571 849 OFFCURVE",
"587 897 CURVE",
"559 912 LINE",
"540 872 OFFCURVE",
"524 853 OFFCURVE",
"487 853 CURVE SMOOTH",
"429 853 OFFCURVE",
"374 901 OFFCURVE",
"316 901 CURVE SMOOTH",
"247 901 OFFCURVE",
"212 838 OFFCURVE",
"196 790 CURVE",
"224 775 LINE"
);
}
);
width = 797;
}
);
leftKerningGroup = O;
note = Otilde;
rightKerningGroup = O;
unicode = 00D5;
},
{
glyphname = OE;
lastChange = "2015-10-12 08:28:13 +0000";
layers = (
{
layerId = "66DA30A5-A5D3-4FBB-AA06-F397B31B18DC";
name = Bold;
paths = (
{
closed = 1;
nodes = (
"506 -10 OFFCURVE",
"588 44 OFFCURVE",
"636 123 CURVE",
"580 174 LINE",
"547 91 OFFCURVE",
"486 45 OFFCURVE",
"402 45 CURVE SMOOTH",
"264 45 OFFCURVE",
"190 162 OFFCURVE",
"190 350 CURVE SMOOTH",
"190 537 OFFCURVE",
"264 654 OFFCURVE",
"402 654 CURVE SMOOTH",
"486 654 OFFCURVE",
"547 608 OFFCURVE",
"580 526 CURVE",
"634 578 LINE",
"587 656 OFFCURVE",
"505 710 OFFCURVE",
"385 710 CURVE SMOOTH",
"154 710 OFFCURVE",
"35 568 OFFCURVE",
"35 350 CURVE SMOOTH",
"35 131 OFFCURVE",
"154 -10 OFFCURVE",
"385 -10 CURVE SMOOTH"
);
},
{
closed = 1;
nodes = (
"1051 0 LINE",
"1070 191 LINE",
"1032 191 LINE",
"1023 126 OFFCURVE",
"1003 54 OFFCURVE",
"934 54 CURVE SMOOTH",
"716 54 LINE",
"716 645 LINE",
"912 645 LINE SMOOTH",
"999 645 OFFCURVE",
"1010 549 OFFCURVE",
"1013 511 CURVE",
"1051 511 LINE",
"1051 700 LINE",
"563 700 LINE",
"563 0 LINE"
);
},
{
closed = 1;
nodes = (
"965 245 LINE",
"965 484 LINE",
"934 484 LINE",
"930 438 OFFCURVE",
"925 392 OFFCURVE",
"880 392 CURVE SMOOTH",
"680 392 LINE",
"680 337 LINE",
"880 337 LINE SMOOTH",
"925 337 OFFCURVE",
"930 291 OFFCURVE",
"934 245 CURVE"
);
}
);
width = 1103;
}
);
note = OE;
unicode = 0152;
},
{
glyphname = P;
lastChange = "2015-10-12 08:28:13 +0000";
layers = (
{
layerId = "66DA30A5-A5D3-4FBB-AA06-F397B31B18DC";
name = Bold;
paths = (
{
closed = 1;
nodes = (
"342 0 LINE",
"342 37 LINE",
"311 37 LINE SMOOTH",
"273 37 OFFCURVE",
"256 49 OFFCURVE",
"256 75 CURVE SMOOTH",
"256 268 LINE",
"393 268 LINE SMOOTH",
"569 268 OFFCURVE",
"624 358 OFFCURVE",
"624 484 CURVE SMOOTH",
"624 611 OFFCURVE",
"569 700 OFFCURVE",
"393 700 CURVE SMOOTH",
"16 700 LINE",
"16 662 LINE",
"46 662 LINE SMOOTH",
"85 662 OFFCURVE",
"103 650 OFFCURVE",
"103 624 CURVE SMOOTH",
"103 75 LINE SMOOTH",
"103 49 OFFCURVE",
"85 37 OFFCURVE",
"46 37 CURVE SMOOTH",
"16 37 LINE",
"16 0 LINE"
);
},
{
closed = 1;
nodes = (
"256 645 LINE",
"358 645 LINE SMOOTH",
"439 645 OFFCURVE",
"473 586 OFFCURVE",
"473 484 CURVE SMOOTH",
"473 383 OFFCURVE",
"439 323 OFFCURVE",
"358 323 CURVE SMOOTH",
"256 323 LINE"
);
}
);
width = 643;
}
);
note = P;
unicode = 0050;
},
{
glyphname = Thorn;
lastChange = "2015-10-12 08:28:13 +0000";
layers = (
{
layerId = "66DA30A5-A5D3-4FBB-AA06-F397B31B18DC";
name = Bold;
paths = (
{
closed = 1;
nodes = (
"342 0 LINE",
"342 37 LINE",
"311 37 LINE SMOOTH",
"273 37 OFFCURVE",
"256 49 OFFCURVE",
"256 75 CURVE SMOOTH",
"256 161 LINE",
"393 161 LINE SMOOTH",
"569 161 OFFCURVE",
"624 250 OFFCURVE",
"624 376 CURVE SMOOTH",
"624 503 OFFCURVE",
"569 592 OFFCURVE",
"393 592 CURVE SMOOTH",
"256 592 LINE",
"256 700 LINE",
"16 700 LINE",
"16 662 LINE",
"46 662 LINE SMOOTH",
"85 662 OFFCURVE",
"103 650 OFFCURVE",
"103 624 CURVE SMOOTH",
"103 75 LINE SMOOTH",
"103 49 OFFCURVE",
"85 37 OFFCURVE",
"46 37 CURVE SMOOTH",
"16 37 LINE",
"16 0 LINE"
);
},
{
closed = 1;
nodes = (
"256 538 LINE",
"358 538 LINE SMOOTH",
"439 538 OFFCURVE",
"473 479 OFFCURVE",
"473 376 CURVE SMOOTH",
"473 275 OFFCURVE",
"439 215 OFFCURVE",
"358 215 CURVE SMOOTH",
"256 215 LINE"
);
}
);
width = 643;
}
);
note = Thorn;
unicode = 00DE;
},
{
glyphname = Q;
lastChange = "2015-10-12 08:28:13 +0000";
layers = (
{
layerId = "66DA30A5-A5D3-4FBB-AA06-F397B31B18DC";
name = Bold;
paths = (
{
closed = 1;
nodes = (
"648 -10 OFFCURVE",
"764 131 OFFCURVE",
"764 350 CURVE SMOOTH",
"764 568 OFFCURVE",
"648 710 OFFCURVE",
"398 710 CURVE SMOOTH",
"149 710 OFFCURVE",
"33 568 OFFCURVE",
"33 350 CURVE SMOOTH",
"33 131 OFFCURVE",
"149 -10 OFFCURVE",
"398 -10 CURVE SMOOTH"
);
},
{
closed = 1;
nodes = (
"627 -183 OFFCURVE",
"691 -125 OFFCURVE",
"691 -58 CURVE SMOOTH",
"691 -50 OFFCURVE",
"690 -40 OFFCURVE",
"688 -31 CURVE",
"661 -31 LINE",
"647 -82 OFFCURVE",
"628 -101 OFFCURVE",
"582 -101 CURVE SMOOTH",
"496 -101 OFFCURVE",
"423 -38 OFFCURVE",
"330 -38 CURVE SMOOTH",
"318 -38 LINE",
"341 -19 OFFCURVE",
"359 -9 OFFCURVE",
"379 -1 CURVE",
"379 3 LINE",
"325 3 LINE",
"266 -20 OFFCURVE",
"226 -50 OFFCURVE",
"190 -81 CURVE",
"198 -105 LINE",
"238 -81 OFFCURVE",
"265 -81 OFFCURVE",
"293 -81 CURVE SMOOTH",
"369 -81 OFFCURVE",
"441 -183 OFFCURVE",
"551 -183 CURVE SMOOTH"
);
},
{
closed = 1;
nodes = (
"260 47 OFFCURVE",
"188 162 OFFCURVE",
"188 350 CURVE SMOOTH",
"188 537 OFFCURVE",
"260 654 OFFCURVE",
"397 654 CURVE SMOOTH",
"536 654 OFFCURVE",
"609 537 OFFCURVE",
"609 350 CURVE SMOOTH",
"609 162 OFFCURVE",
"536 47 OFFCURVE",
"397 47 CURVE SMOOTH"
);
}
);
width = 797;
}
);
leftKerningGroup = O;
note = Q;
rightKerningGroup = O;
unicode = 0051;
},
{
glyphname = R;
lastChange = "2015-10-12 08:28:13 +0000";
layers = (
{
layerId = "66DA30A5-A5D3-4FBB-AA06-F397B31B18DC";
name = Bold;
paths = (
{
closed = 1;
nodes = (
"342 0 LINE",
"342 37 LINE",
"311 37 LINE SMOOTH",
"273 37 OFFCURVE",
"256 49 OFFCURVE",
"256 75 CURVE SMOOTH",
"256 286 LINE",
"391 286 LINE SMOOTH",
"566 286 OFFCURVE",
"622 367 OFFCURVE",
"622 494 CURVE SMOOTH",
"622 620 OFFCURVE",
"566 700 OFFCURVE",
"391 700 CURVE SMOOTH",
"16 700 LINE",
"16 662 LINE",
"46 662 LINE SMOOTH",
"85 662 OFFCURVE",
"103 650 OFFCURVE",
"103 624 CURVE SMOOTH",
"103 75 LINE SMOOTH",
"103 49 OFFCURVE",
"85 37 OFFCURVE",
"46 37 CURVE SMOOTH",
"16 37 LINE",
"16 0 LINE"
);
},
{
closed = 1;
nodes = (
"683 0 LINE",
"683 37 LINE",
"614 40 OFFCURVE",
"593 110 OFFCURVE",
"573 177 CURVE SMOOTH",
"559 226 OFFCURVE",
"543 281 OFFCURVE",
"479 304 CURVE",
"342 304 LINE",
"342 300 LINE",
"415 273 OFFCURVE",
"410 178 OFFCURVE",
"434 101 CURVE SMOOTH",
"455 32 OFFCURVE",
"488 0 OFFCURVE",
"570 0 CURVE SMOOTH"
);
},
{
closed = 1;
nodes = (
"256 645 LINE",
"355 645 LINE SMOOTH",
"437 645 OFFCURVE",
"472 595 OFFCURVE",
"472 494 CURVE SMOOTH",
"472 392 OFFCURVE",
"437 341 OFFCURVE",
"355 341 CURVE SMOOTH",
"256 341 LINE"
);
}
);
width = 712;
}
);
note = R;
rightKerningGroup = R;
unicode = 0052;
},
{
glyphname = Racute;
lastChange = "2015-10-12 08:28:12 +0000";
layers = (
{
layerId = "66DA30A5-A5D3-4FBB-AA06-F397B31B18DC";
name = Bold;
paths = (
{
closed = 1;
nodes = (
"342 0 LINE",
"342 37 LINE",
"311 37 LINE SMOOTH",
"273 37 OFFCURVE",
"256 49 OFFCURVE",
"256 75 CURVE SMOOTH",
"256 286 LINE",
"391 286 LINE SMOOTH",
"566 286 OFFCURVE",
"622 367 OFFCURVE",
"622 494 CURVE SMOOTH",
"622 620 OFFCURVE",
"566 700 OFFCURVE",
"391 700 CURVE SMOOTH",
"16 700 LINE",
"16 662 LINE",
"46 662 LINE SMOOTH",
"85 662 OFFCURVE",
"103 650 OFFCURVE",
"103 624 CURVE SMOOTH",
"103 75 LINE SMOOTH",
"103 49 OFFCURVE",
"85 37 OFFCURVE",
"46 37 CURVE SMOOTH",
"16 37 LINE",
"16 0 LINE"
);
},
{
closed = 1;
nodes = (
"683 0 LINE",
"683 37 LINE",
"614 40 OFFCURVE",
"593 110 OFFCURVE",
"573 177 CURVE SMOOTH",
"559 226 OFFCURVE",
"543 281 OFFCURVE",
"479 304 CURVE",
"342 304 LINE",
"342 300 LINE",
"415 273 OFFCURVE",
"410 178 OFFCURVE",
"434 101 CURVE SMOOTH",
"455 32 OFFCURVE",
"488 0 OFFCURVE",
"570 0 CURVE SMOOTH"
);
},
{
closed = 1;
nodes = (
"256 645 LINE",
"355 645 LINE SMOOTH",
"437 645 OFFCURVE",
"472 595 OFFCURVE",
"472 494 CURVE SMOOTH",
"472 392 OFFCURVE",
"437 341 OFFCURVE",
"355 341 CURVE SMOOTH",
"256 341 LINE"
);
},
{
closed = 1;
nodes = (
"429 869 LINE SMOOTH",
"459 887 OFFCURVE",
"477 905 OFFCURVE",
"477 928 CURVE SMOOTH",
"477 948 OFFCURVE",
"462 971 OFFCURVE",
"428 971 CURVE SMOOTH",
"397 971 OFFCURVE",
"374 946 OFFCURVE",
"367 938 CURVE",
"245 815 LINE",
"272 777 LINE"
);
}
);
width = 712;
}
);
note = Racute;
rightKerningGroup = R;
unicode = 0154;
},
{
glyphname = Rcaron;
lastChange = "2015-10-12 08:28:13 +0000";
layers = (
{
layerId = "66DA30A5-A5D3-4FBB-AA06-F397B31B18DC";
name = Bold;
paths = (
{
closed = 1;
nodes = (
"342 0 LINE",
"342 37 LINE",
"311 37 LINE SMOOTH",
"273 37 OFFCURVE",
"256 49 OFFCURVE",
"256 75 CURVE SMOOTH",
"256 286 LINE",
"391 286 LINE SMOOTH",
"566 286 OFFCURVE",
"622 367 OFFCURVE",
"622 494 CURVE SMOOTH",
"622 620 OFFCURVE",
"566 700 OFFCURVE",
"391 700 CURVE SMOOTH",
"16 700 LINE",
"16 662 LINE",
"46 662 LINE SMOOTH",
"85 662 OFFCURVE",
"103 650 OFFCURVE",
"103 624 CURVE SMOOTH",
"103 75 LINE SMOOTH",
"103 49 OFFCURVE",
"85 37 OFFCURVE",
"46 37 CURVE SMOOTH",
"16 37 LINE",
"16 0 LINE"
);
},
{
closed = 1;
nodes = (
"683 0 LINE",
"683 37 LINE",
"614 40 OFFCURVE",
"593 110 OFFCURVE",
"573 177 CURVE SMOOTH",
"559 226 OFFCURVE",
"543 281 OFFCURVE",
"479 304 CURVE",
"342 304 LINE",
"342 300 LINE",
"415 273 OFFCURVE",
"410 178 OFFCURVE",
"434 101 CURVE SMOOTH",
"455 32 OFFCURVE",
"488 0 OFFCURVE",
"570 0 CURVE SMOOTH"
);
},
{
closed = 1;
nodes = (
"256 645 LINE",
"355 645 LINE SMOOTH",
"437 645 OFFCURVE",
"472 595 OFFCURVE",
"472 494 CURVE SMOOTH",
"472 392 OFFCURVE",
"437 341 OFFCURVE",
"355 341 CURVE SMOOTH",
"256 341 LINE"
);
},
{
closed = 1;
nodes = (
"398 778 LINE",
"543 935 LINE",
"519 961 LINE",
"394 866 LINE SMOOTH",
"382 857 OFFCURVE",
"370 850 OFFCURVE",
"361 850 CURVE SMOOTH",
"352 850 OFFCURVE",
"340 857 OFFCURVE",
"327 866 CURVE",
"202 961 LINE",
"178 935 LINE",
"323 778 LINE"
);
}
);
width = 712;
}
);
note = Rcaron;
rightKerningGroup = R;
unicode = 0158;
},
{
glyphname = Rcommaaccent;
lastChange = "2015-10-12 08:28:12 +0000";
layers = (
{
layerId = "66DA30A5-A5D3-4FBB-AA06-F397B31B18DC";
name = Bold;
paths = (
{
closed = 1;
nodes = (
"342 0 LINE",
"342 37 LINE",
"311 37 LINE SMOOTH",
"273 37 OFFCURVE",
"256 49 OFFCURVE",
"256 75 CURVE SMOOTH",
"256 286 LINE",
"391 286 LINE SMOOTH",
"566 286 OFFCURVE",
"622 367 OFFCURVE",
"622 494 CURVE SMOOTH",
"622 620 OFFCURVE",
"566 700 OFFCURVE",
"391 700 CURVE SMOOTH",
"16 700 LINE",
"16 662 LINE",
"46 662 LINE SMOOTH",
"85 662 OFFCURVE",
"103 650 OFFCURVE",
"103 624 CURVE SMOOTH",
"103 75 LINE SMOOTH",
"103 49 OFFCURVE",
"85 37 OFFCURVE",
"46 37 CURVE SMOOTH",
"16 37 LINE",
"16 0 LINE"
);
},
{
closed = 1;
nodes = (
"377 -311 OFFCURVE",
"441 -237 OFFCURVE",
"441 -161 CURVE SMOOTH",
"441 -103 OFFCURVE",
"409 -72 OFFCURVE",
"369 -72 CURVE SMOOTH",
"330 -72 OFFCURVE",
"306 -98 OFFCURVE",
"306 -129 CURVE SMOOTH",
"306 -168 OFFCURVE",
"347 -182 OFFCURVE",
"347 -222 CURVE SMOOTH",
"347 -263 OFFCURVE",
"321 -300 OFFCURVE",
"290 -332 CURVE",
"314 -354 LINE"
);
},
{
closed = 1;
nodes = (
"683 0 LINE",
"683 37 LINE",
"614 40 OFFCURVE",
"593 110 OFFCURVE",
"573 177 CURVE SMOOTH",
"559 226 OFFCURVE",
"543 281 OFFCURVE",
"479 304 CURVE",
"342 304 LINE",
"342 300 LINE",
"415 273 OFFCURVE",
"410 178 OFFCURVE",
"434 101 CURVE SMOOTH",
"455 32 OFFCURVE",
"488 0 OFFCURVE",
"570 0 CURVE SMOOTH"
);
},
{
closed = 1;
nodes = (
"256 645 LINE",
"355 645 LINE SMOOTH",
"437 645 OFFCURVE",
"472 595 OFFCURVE",
"472 494 CURVE SMOOTH",
"472 392 OFFCURVE",
"437 341 OFFCURVE",
"355 341 CURVE SMOOTH",
"256 341 LINE"
);
}
);
width = 712;
}
);
note = Rcommaaccent;
rightKerningGroup = R;
unicode = 0156;
},
{
glyphname = Rdotbelow;
lastChange = "2015-10-12 08:28:13 +0000";
layers = (
{
layerId = "66DA30A5-A5D3-4FBB-AA06-F397B31B18DC";
name = Bold;
paths = (
{
closed = 1;
nodes = (
"342 0 LINE",
"342 37 LINE",
"311 37 LINE SMOOTH",
"273 37 OFFCURVE",
"256 49 OFFCURVE",
"256 75 CURVE SMOOTH",
"256 286 LINE",
"391 286 LINE SMOOTH",
"566 286 OFFCURVE",
"622 367 OFFCURVE",
"622 494 CURVE SMOOTH",
"622 620 OFFCURVE",
"566 700 OFFCURVE",
"391 700 CURVE SMOOTH",
"16 700 LINE",
"16 662 LINE",
"46 662 LINE SMOOTH",
"85 662 OFFCURVE",
"103 650 OFFCURVE",
"103 624 CURVE SMOOTH",
"103 75 LINE SMOOTH",
"103 49 OFFCURVE",
"85 37 OFFCURVE",
"46 37 CURVE SMOOTH",
"16 37 LINE",
"16 0 LINE"
);
},
{
closed = 1;
nodes = (
"402 -188 OFFCURVE",
"426 -161 OFFCURVE",
"426 -127 CURVE SMOOTH",
"426 -92 OFFCURVE",
"402 -64 OFFCURVE",
"365 -64 CURVE SMOOTH",
"327 -64 OFFCURVE",
"303 -92 OFFCURVE",
"303 -127 CURVE SMOOTH",
"303 -161 OFFCURVE",
"327 -188 OFFCURVE",
"365 -188 CURVE SMOOTH"
);
},
{
closed = 1;
nodes = (
"683 0 LINE",
"683 37 LINE",
"614 40 OFFCURVE",
"593 110 OFFCURVE",
"573 177 CURVE SMOOTH",
"559 226 OFFCURVE",
"543 281 OFFCURVE",
"479 304 CURVE",
"342 304 LINE",
"342 300 LINE",
"415 273 OFFCURVE",
"410 178 OFFCURVE",
"434 101 CURVE SMOOTH",
"455 32 OFFCURVE",
"488 0 OFFCURVE",
"570 0 CURVE SMOOTH"
);
},
{
closed = 1;
nodes = (
"256 645 LINE",
"355 645 LINE SMOOTH",
"437 645 OFFCURVE",
"472 595 OFFCURVE",
"472 494 CURVE SMOOTH",
"472 392 OFFCURVE",
"437 341 OFFCURVE",
"355 341 CURVE SMOOTH",
"256 341 LINE"
);
}
);
width = 712;
}
);
note = Rdotbelow;
rightKerningGroup = R;
unicode = 1E5A;
},
{
glyphname = Rdotbelowmacron;
lastChange = "2015-10-12 08:28:13 +0000";
layers = (
{
layerId = "66DA30A5-A5D3-4FBB-AA06-F397B31B18DC";
name = Bold;
paths = (
{
closed = 1;
nodes = (
"342 0 LINE",
"342 37 LINE",
"311 37 LINE SMOOTH",
"273 37 OFFCURVE",
"256 49 OFFCURVE",
"256 75 CURVE SMOOTH",
"256 286 LINE",
"391 286 LINE SMOOTH",
"566 286 OFFCURVE",
"622 367 OFFCURVE",
"622 494 CURVE SMOOTH",
"622 620 OFFCURVE",
"566 700 OFFCURVE",
"391 700 CURVE SMOOTH",
"16 700 LINE",
"16 662 LINE",
"46 662 LINE SMOOTH",
"85 662 OFFCURVE",
"103 650 OFFCURVE",
"103 624 CURVE SMOOTH",
"103 75 LINE SMOOTH",
"103 49 OFFCURVE",
"85 37 OFFCURVE",
"46 37 CURVE SMOOTH",
"16 37 LINE",
"16 0 LINE"
);
},
{
closed = 1;
nodes = (
"402 -188 OFFCURVE",
"426 -161 OFFCURVE",
"426 -127 CURVE SMOOTH",
"426 -92 OFFCURVE",
"402 -64 OFFCURVE",
"365 -64 CURVE SMOOTH",
"327 -64 OFFCURVE",
"303 -92 OFFCURVE",
"303 -127 CURVE SMOOTH",
"303 -161 OFFCURVE",
"327 -188 OFFCURVE",
"365 -188 CURVE SMOOTH"
);
},
{
closed = 1;
nodes = (
"683 0 LINE",
"683 37 LINE",
"614 40 OFFCURVE",
"593 110 OFFCURVE",
"573 177 CURVE SMOOTH",
"559 226 OFFCURVE",
"543 281 OFFCURVE",
"479 304 CURVE",
"342 304 LINE",
"342 300 LINE",
"415 273 OFFCURVE",
"410 178 OFFCURVE",
"434 101 CURVE SMOOTH",
"455 32 OFFCURVE",
"488 0 OFFCURVE",
"570 0 CURVE SMOOTH"
);
},
{
closed = 1;
nodes = (
"256 645 LINE",
"355 645 LINE SMOOTH",
"437 645 OFFCURVE",
"472 595 OFFCURVE",
"472 494 CURVE SMOOTH",
"472 392 OFFCURVE",
"437 341 OFFCURVE",
"355 341 CURVE SMOOTH",
"256 341 LINE"
);
},
{
closed = 1;
nodes = (
"510 776 LINE",
"510 835 LINE",
"129 835 LINE",
"129 776 LINE"
);
}
);
width = 712;
}
);
note = Rdotbelowmacron;
rightKerningGroup = R;
unicode = 1E5C;
},
{
glyphname = Rlinebelow;
lastChange = "2015-10-12 08:28:13 +0000";
layers = (
{
layerId = "66DA30A5-A5D3-4FBB-AA06-F397B31B18DC";
name = Bold;
paths = (
{
closed = 1;
nodes = (
"342 0 LINE",
"342 37 LINE",
"311 37 LINE SMOOTH",
"273 37 OFFCURVE",
"256 49 OFFCURVE",
"256 75 CURVE SMOOTH",
"256 286 LINE",
"391 286 LINE SMOOTH",
"566 286 OFFCURVE",
"622 367 OFFCURVE",
"622 494 CURVE SMOOTH",
"622 620 OFFCURVE",
"566 700 OFFCURVE",
"391 700 CURVE SMOOTH",
"16 700 LINE",
"16 662 LINE",
"46 662 LINE SMOOTH",
"85 662 OFFCURVE",
"103 650 OFFCURVE",
"103 624 CURVE SMOOTH",
"103 75 LINE SMOOTH",
"103 49 OFFCURVE",
"85 37 OFFCURVE",
"46 37 CURVE SMOOTH",
"16 37 LINE",
"16 0 LINE"
);
},
{
closed = 1;
nodes = (
"521 -120 LINE",
"521 -68 LINE",
"140 -68 LINE",
"140 -120 LINE"
);
},
{
closed = 1;
nodes = (
"683 0 LINE",
"683 37 LINE",
"614 40 OFFCURVE",
"593 110 OFFCURVE",
"573 177 CURVE SMOOTH",
"559 226 OFFCURVE",
"543 281 OFFCURVE",
"479 304 CURVE",
"342 304 LINE",
"342 300 LINE",
"415 273 OFFCURVE",
"410 178 OFFCURVE",
"434 101 CURVE SMOOTH",
"455 32 OFFCURVE",
"488 0 OFFCURVE",
"570 0 CURVE SMOOTH"
);
},
{
closed = 1;
nodes = (
"256 645 LINE",
"355 645 LINE SMOOTH",
"437 645 OFFCURVE",
"472 595 OFFCURVE",
"472 494 CURVE SMOOTH",
"472 392 OFFCURVE",
"437 341 OFFCURVE",
"355 341 CURVE SMOOTH",
"256 341 LINE"
);
}
);
width = 712;
}
);
note = Rlinebelow;
rightKerningGroup = R;
unicode = 1E5E;
},
{
glyphname = S;
lastChange = "2015-10-12 08:28:11 +0000";
layers = (
{
layerId = "66DA30A5-A5D3-4FBB-AA06-F397B31B18DC";
name = Bold;
paths = (
{
closed = 1;
nodes = (
"471 -10 OFFCURVE",
"591 51 OFFCURVE",
"591 193 CURVE SMOOTH",
"591 459 OFFCURVE",
"204 390 OFFCURVE",
"204 554 CURVE SMOOTH",
"204 620 OFFCURVE",
"266 653 OFFCURVE",
"338 653 CURVE SMOOTH",
"424 653 OFFCURVE",
"505 608 OFFCURVE",
"518 500 CURVE",
"562 500 LINE",
"562 705 LINE",
"510 705 LINE",
"510 662 LINE SMOOTH",
"510 658 OFFCURVE",
"510 652 OFFCURVE",
"504 652 CURVE SMOOTH",
"500 652 OFFCURVE",
"494 657 OFFCURVE",
"489 660 CURVE",
"451 686 OFFCURVE",
"399 710 OFFCURVE",
"302 710 CURVE SMOOTH",
"150 710 OFFCURVE",
"48 651 OFFCURVE",
"48 531 CURVE SMOOTH",
"48 288 OFFCURVE",
"435 344 OFFCURVE",
"435 167 CURVE SMOOTH",
"435 81 OFFCURVE",
"366 46 OFFCURVE",
"281 46 CURVE SMOOTH",
"194 46 OFFCURVE",
"95 94 OFFCURVE",
"82 202 CURVE",
"38 202 LINE",
"38 -3 LINE",
"89 -3 LINE",
"89 41 LINE SMOOTH",
"89 48 OFFCURVE",
"92 54 OFFCURVE",
"96 54 CURVE SMOOTH",
"99 54 OFFCURVE",
"103 53 OFFCURVE",
"110 48 CURVE SMOOTH",
"150 20 OFFCURVE",
"205 -10 OFFCURVE",
"319 -10 CURVE SMOOTH"
);
}
);
width = 629;
}
);
leftKerningGroup = S;
note = S;
rightKerningGroup = S;
unicode = 0053;
},
{
glyphname = Sacute;
lastChange = "2015-10-12 08:28:12 +0000";
layers = (
{
layerId = "66DA30A5-A5D3-4FBB-AA06-F397B31B18DC";
name = Bold;
paths = (
{
closed = 1;
nodes = (
"471 -10 OFFCURVE",
"591 51 OFFCURVE",
"591 193 CURVE SMOOTH",
"591 459 OFFCURVE",
"204 390 OFFCURVE",
"204 554 CURVE SMOOTH",
"204 620 OFFCURVE",
"266 653 OFFCURVE",
"338 653 CURVE SMOOTH",
"424 653 OFFCURVE",
"505 608 OFFCURVE",
"518 500 CURVE",
"562 500 LINE",
"562 705 LINE",
"510 705 LINE",
"510 662 LINE SMOOTH",
"510 658 OFFCURVE",
"510 652 OFFCURVE",
"504 652 CURVE SMOOTH",
"500 652 OFFCURVE",
"494 657 OFFCURVE",
"489 660 CURVE",
"451 686 OFFCURVE",
"399 710 OFFCURVE",
"302 710 CURVE SMOOTH",
"150 710 OFFCURVE",
"48 651 OFFCURVE",
"48 531 CURVE SMOOTH",
"48 288 OFFCURVE",
"435 344 OFFCURVE",
"435 167 CURVE SMOOTH",
"435 81 OFFCURVE",
"366 46 OFFCURVE",
"281 46 CURVE SMOOTH",
"194 46 OFFCURVE",
"95 94 OFFCURVE",
"82 202 CURVE",
"38 202 LINE",
"38 -3 LINE",
"89 -3 LINE",
"89 41 LINE SMOOTH",
"89 48 OFFCURVE",
"92 54 OFFCURVE",
"96 54 CURVE SMOOTH",
"99 54 OFFCURVE",
"103 53 OFFCURVE",
"110 48 CURVE SMOOTH",
"150 20 OFFCURVE",
"205 -10 OFFCURVE",
"319 -10 CURVE SMOOTH"
);
},
{
closed = 1;
nodes = (
"382 869 LINE SMOOTH",
"412 887 OFFCURVE",
"430 905 OFFCURVE",
"430 928 CURVE SMOOTH",
"430 948 OFFCURVE",
"415 971 OFFCURVE",
"381 971 CURVE SMOOTH",
"350 971 OFFCURVE",
"327 946 OFFCURVE",
"320 938 CURVE",
"198 815 LINE",
"225 777 LINE"
);
}
);
width = 629;
}
);
leftKerningGroup = S;
note = Sacute;
rightKerningGroup = S;
unicode = 015A;
},
{
glyphname = Scaron;
lastChange = "2015-10-12 08:28:13 +0000";
layers = (
{
layerId = "66DA30A5-A5D3-4FBB-AA06-F397B31B18DC";
name = Bold;
paths = (
{
closed = 1;
nodes = (
"471 -10 OFFCURVE",
"591 51 OFFCURVE",
"591 193 CURVE SMOOTH",
"591 459 OFFCURVE",
"204 390 OFFCURVE",
"204 554 CURVE SMOOTH",
"204 620 OFFCURVE",
"266 653 OFFCURVE",
"338 653 CURVE SMOOTH",
"424 653 OFFCURVE",
"505 608 OFFCURVE",
"518 500 CURVE",
"562 500 LINE",
"562 705 LINE",
"510 705 LINE",
"510 662 LINE SMOOTH",
"510 658 OFFCURVE",
"510 652 OFFCURVE",
"504 652 CURVE SMOOTH",
"500 652 OFFCURVE",
"494 657 OFFCURVE",
"489 660 CURVE",
"451 686 OFFCURVE",
"399 710 OFFCURVE",
"302 710 CURVE SMOOTH",
"150 710 OFFCURVE",
"48 651 OFFCURVE",
"48 531 CURVE SMOOTH",
"48 288 OFFCURVE",
"435 344 OFFCURVE",
"435 167 CURVE SMOOTH",
"435 81 OFFCURVE",
"366 46 OFFCURVE",
"281 46 CURVE SMOOTH",
"194 46 OFFCURVE",
"95 94 OFFCURVE",
"82 202 CURVE",
"38 202 LINE",
"38 -3 LINE",
"89 -3 LINE",
"89 41 LINE SMOOTH",
"89 48 OFFCURVE",
"92 54 OFFCURVE",
"96 54 CURVE SMOOTH",
"99 54 OFFCURVE",
"103 53 OFFCURVE",
"110 48 CURVE SMOOTH",
"150 20 OFFCURVE",
"205 -10 OFFCURVE",
"319 -10 CURVE SMOOTH"
);
},
{
closed = 1;
nodes = (
"348 778 LINE",
"493 935 LINE",
"469 961 LINE",
"344 866 LINE SMOOTH",
"332 857 OFFCURVE",
"320 850 OFFCURVE",
"311 850 CURVE SMOOTH",
"302 850 OFFCURVE",
"290 857 OFFCURVE",
"277 866 CURVE",
"152 961 LINE",
"128 935 LINE",
"273 778 LINE"
);
}
);
width = 629;
}
);
leftKerningGroup = S;
note = Scaron;
rightKerningGroup = S;
unicode = 0160;
},
{
glyphname = Scedilla;
lastChange = "2015-10-12 08:28:13 +0000";
layers = (
{
layerId = "66DA30A5-A5D3-4FBB-AA06-F397B31B18DC";
name = Bold;
paths = (
{
closed = 1;
nodes = (
"471 -10 OFFCURVE",
"591 51 OFFCURVE",
"591 193 CURVE SMOOTH",
"591 459 OFFCURVE",
"204 390 OFFCURVE",
"204 554 CURVE SMOOTH",
"204 620 OFFCURVE",
"266 653 OFFCURVE",
"338 653 CURVE SMOOTH",
"424 653 OFFCURVE",
"505 608 OFFCURVE",
"518 500 CURVE",
"562 500 LINE",
"562 705 LINE",
"510 705 LINE",
"510 662 LINE SMOOTH",
"510 658 OFFCURVE",
"510 652 OFFCURVE",
"504 652 CURVE SMOOTH",
"500 652 OFFCURVE",
"494 657 OFFCURVE",
"489 660 CURVE",
"451 686 OFFCURVE",
"399 710 OFFCURVE",
"302 710 CURVE SMOOTH",
"150 710 OFFCURVE",
"48 651 OFFCURVE",
"48 531 CURVE SMOOTH",
"48 288 OFFCURVE",
"435 344 OFFCURVE",
"435 167 CURVE SMOOTH",
"435 81 OFFCURVE",
"366 46 OFFCURVE",
"281 46 CURVE SMOOTH",
"194 46 OFFCURVE",
"95 94 OFFCURVE",
"82 202 CURVE",
"38 202 LINE",
"38 -3 LINE",
"89 -3 LINE",
"89 41 LINE SMOOTH",
"89 48 OFFCURVE",
"92 54 OFFCURVE",
"96 54 CURVE SMOOTH",
"99 54 OFFCURVE",
"103 53 OFFCURVE",
"110 48 CURVE SMOOTH",
"150 20 OFFCURVE",
"205 -10 OFFCURVE",
"319 -10 CURVE SMOOTH"
);
},
{
closed = 1;
nodes = (
"308 -237 OFFCURVE",
"413 -226 OFFCURVE",
"413 -131 CURVE SMOOTH",
"413 -65 OFFCURVE",
"340 -45 OFFCURVE",
"302 -43 CURVE",
"343 25 LINE",
"287 25 LINE",
"225 -75 LINE",
"233 -87 LINE",
"255 -87 OFFCURVE",
"320 -97 OFFCURVE",
"320 -137 CURVE SMOOTH",
"320 -184 OFFCURVE",
"273 -199 OFFCURVE",
"216 -199 CURVE SMOOTH",
"209 -199 OFFCURVE",
"203 -198 OFFCURVE",
"196 -197 CURVE",
"194 -232 LINE",
"212 -235 OFFCURVE",
"227 -237 OFFCURVE",
"249 -237 CURVE SMOOTH"
);
}
);
width = 629;
}
);
leftKerningGroup = S;
note = Scedilla;
rightKerningGroup = S;
unicode = 015E;
},
{
glyphname = Scircumflex;
lastChange = "2015-10-12 08:28:12 +0000";
layers = (
{
layerId = "66DA30A5-A5D3-4FBB-AA06-F397B31B18DC";
name = Bold;
paths = (
{
closed = 1;
nodes = (
"471 -10 OFFCURVE",
"591 51 OFFCURVE",
"591 193 CURVE SMOOTH",
"591 459 OFFCURVE",
"204 390 OFFCURVE",
"204 554 CURVE SMOOTH",
"204 620 OFFCURVE",
"266 653 OFFCURVE",
"338 653 CURVE SMOOTH",
"424 653 OFFCURVE",
"505 608 OFFCURVE",
"518 500 CURVE",
"562 500 LINE",
"562 705 LINE",
"510 705 LINE",
"510 662 LINE SMOOTH",
"510 658 OFFCURVE",
"510 652 OFFCURVE",
"504 652 CURVE SMOOTH",
"500 652 OFFCURVE",
"494 657 OFFCURVE",
"489 660 CURVE",
"451 686 OFFCURVE",
"399 710 OFFCURVE",
"302 710 CURVE SMOOTH",
"150 710 OFFCURVE",
"48 651 OFFCURVE",
"48 531 CURVE SMOOTH",
"48 288 OFFCURVE",
"435 344 OFFCURVE",
"435 167 CURVE SMOOTH",
"435 81 OFFCURVE",
"366 46 OFFCURVE",
"281 46 CURVE SMOOTH",
"194 46 OFFCURVE",
"95 94 OFFCURVE",
"82 202 CURVE",
"38 202 LINE",
"38 -3 LINE",
"89 -3 LINE",
"89 41 LINE SMOOTH",
"89 48 OFFCURVE",
"92 54 OFFCURVE",
"96 54 CURVE SMOOTH",
"99 54 OFFCURVE",
"103 53 OFFCURVE",
"110 48 CURVE SMOOTH",
"150 20 OFFCURVE",
"205 -10 OFFCURVE",
"319 -10 CURVE SMOOTH"
);
},
{
closed = 1;
nodes = (
"277 873 LINE SMOOTH",
"289 882 OFFCURVE",
"302 889 OFFCURVE",
"311 889 CURVE SMOOTH",
"320 889 OFFCURVE",
"332 882 OFFCURVE",
"344 873 CURVE SMOOTH",
"469 778 LINE",
"493 804 LINE",
"348 961 LINE",
"273 961 LINE",
"128 804 LINE",
"152 778 LINE"
);
}
);
width = 629;
}
);
leftKerningGroup = S;
note = Scircumflex;
rightKerningGroup = S;
unicode = 015C;
},
{
glyphname = Scommaaccent;
lastChange = "2015-10-12 08:28:13 +0000";
layers = (
{
layerId = "66DA30A5-A5D3-4FBB-AA06-F397B31B18DC";
name = Bold;
paths = (
{
closed = 1;
nodes = (
"471 -10 OFFCURVE",
"591 51 OFFCURVE",
"591 193 CURVE SMOOTH",
"591 459 OFFCURVE",
"204 390 OFFCURVE",
"204 554 CURVE SMOOTH",
"204 620 OFFCURVE",
"266 653 OFFCURVE",
"338 653 CURVE SMOOTH",
"424 653 OFFCURVE",
"505 608 OFFCURVE",
"518 500 CURVE",
"562 500 LINE",
"562 705 LINE",
"510 705 LINE",
"510 662 LINE SMOOTH",
"510 658 OFFCURVE",
"510 652 OFFCURVE",
"504 652 CURVE SMOOTH",
"500 652 OFFCURVE",
"494 657 OFFCURVE",
"489 660 CURVE",
"451 686 OFFCURVE",
"399 710 OFFCURVE",
"302 710 CURVE SMOOTH",
"150 710 OFFCURVE",
"48 651 OFFCURVE",
"48 531 CURVE SMOOTH",
"48 288 OFFCURVE",
"435 344 OFFCURVE",
"435 167 CURVE SMOOTH",
"435 81 OFFCURVE",
"366 46 OFFCURVE",
"281 46 CURVE SMOOTH",
"194 46 OFFCURVE",
"95 94 OFFCURVE",
"82 202 CURVE",
"38 202 LINE",
"38 -3 LINE",
"89 -3 LINE",
"89 41 LINE SMOOTH",
"89 48 OFFCURVE",
"92 54 OFFCURVE",
"96 54 CURVE SMOOTH",
"99 54 OFFCURVE",
"103 53 OFFCURVE",
"110 48 CURVE SMOOTH",
"150 20 OFFCURVE",
"205 -10 OFFCURVE",
"319 -10 CURVE SMOOTH"
);
},
{
closed = 1;
nodes = (
"306 -283 OFFCURVE",
"374 -213 OFFCURVE",
"374 -138 CURVE SMOOTH",
"374 -79 OFFCURVE",
"342 -49 OFFCURVE",
"302 -49 CURVE SMOOTH",
"263 -49 OFFCURVE",
"239 -75 OFFCURVE",
"239 -105 CURVE SMOOTH",
"239 -145 OFFCURVE",
"279 -159 OFFCURVE",
"279 -199 CURVE SMOOTH",
"279 -240 OFFCURVE",
"254 -277 OFFCURVE",
"223 -309 CURVE",
"246 -331 LINE"
);
}
);
width = 629;
}
);
leftKerningGroup = S;
note = Scommaaccent;
rightKerningGroup = S;
unicode = 0218;
},
{
glyphname = Sdotaccent;
lastChange = "2015-10-12 08:28:13 +0000";
layers = (
{
layerId = "66DA30A5-A5D3-4FBB-AA06-F397B31B18DC";
name = Bold;
paths = (
{
closed = 1;
nodes = (
"471 -10 OFFCURVE",
"591 51 OFFCURVE",
"591 193 CURVE SMOOTH",
"591 459 OFFCURVE",
"204 390 OFFCURVE",
"204 554 CURVE SMOOTH",
"204 620 OFFCURVE",
"266 653 OFFCURVE",
"338 653 CURVE SMOOTH",
"424 653 OFFCURVE",
"505 608 OFFCURVE",
"518 500 CURVE",
"562 500 LINE",
"562 705 LINE",
"510 705 LINE",
"510 662 LINE SMOOTH",
"510 658 OFFCURVE",
"510 652 OFFCURVE",
"504 652 CURVE SMOOTH",
"500 652 OFFCURVE",
"494 657 OFFCURVE",
"489 660 CURVE",
"451 686 OFFCURVE",
"399 710 OFFCURVE",
"302 710 CURVE SMOOTH",
"150 710 OFFCURVE",
"48 651 OFFCURVE",
"48 531 CURVE SMOOTH",
"48 288 OFFCURVE",
"435 344 OFFCURVE",
"435 167 CURVE SMOOTH",
"435 81 OFFCURVE",
"366 46 OFFCURVE",
"281 46 CURVE SMOOTH",
"194 46 OFFCURVE",
"95 94 OFFCURVE",
"82 202 CURVE",
"38 202 LINE",
"38 -3 LINE",
"89 -3 LINE",
"89 41 LINE SMOOTH",
"89 48 OFFCURVE",
"92 54 OFFCURVE",
"96 54 CURVE SMOOTH",
"99 54 OFFCURVE",
"103 53 OFFCURVE",
"110 48 CURVE SMOOTH",
"150 20 OFFCURVE",
"205 -10 OFFCURVE",
"319 -10 CURVE SMOOTH"
);
},
{
closed = 1;
nodes = (
"362 778 OFFCURVE",
"386 804 OFFCURVE",
"386 838 CURVE SMOOTH",
"386 873 OFFCURVE",
"362 900 OFFCURVE",
"325 900 CURVE SMOOTH",
"287 900 OFFCURVE",
"264 873 OFFCURVE",
"264 838 CURVE SMOOTH",
"264 804 OFFCURVE",
"287 778 OFFCURVE",
"325 778 CURVE SMOOTH"
);
}
);
width = 629;
}
);
leftKerningGroup = S;
note = Sdotaccent;
rightKerningGroup = S;
unicode = 1E60;
},
{
glyphname = Sdotbelow;
lastChange = "2015-10-12 08:28:13 +0000";
layers = (
{
layerId = "66DA30A5-A5D3-4FBB-AA06-F397B31B18DC";
name = Bold;
paths = (
{
closed = 1;
nodes = (
"471 -10 OFFCURVE",
"591 51 OFFCURVE",
"591 193 CURVE SMOOTH",
"591 459 OFFCURVE",
"204 390 OFFCURVE",
"204 554 CURVE SMOOTH",
"204 620 OFFCURVE",
"266 653 OFFCURVE",
"338 653 CURVE SMOOTH",
"424 653 OFFCURVE",
"505 608 OFFCURVE",
"518 500 CURVE",
"562 500 LINE",
"562 705 LINE",
"510 705 LINE",
"510 662 LINE SMOOTH",
"510 658 OFFCURVE",
"510 652 OFFCURVE",
"504 652 CURVE SMOOTH",
"500 652 OFFCURVE",
"494 657 OFFCURVE",
"489 660 CURVE",
"451 686 OFFCURVE",
"399 710 OFFCURVE",
"302 710 CURVE SMOOTH",
"150 710 OFFCURVE",
"48 651 OFFCURVE",
"48 531 CURVE SMOOTH",
"48 288 OFFCURVE",
"435 344 OFFCURVE",
"435 167 CURVE SMOOTH",
"435 81 OFFCURVE",
"366 46 OFFCURVE",
"281 46 CURVE SMOOTH",
"194 46 OFFCURVE",
"95 94 OFFCURVE",
"82 202 CURVE",
"38 202 LINE",
"38 -3 LINE",
"89 -3 LINE",
"89 41 LINE SMOOTH",
"89 48 OFFCURVE",
"92 54 OFFCURVE",
"96 54 CURVE SMOOTH",
"99 54 OFFCURVE",
"103 53 OFFCURVE",
"110 48 CURVE SMOOTH",
"150 20 OFFCURVE",
"205 -10 OFFCURVE",
"319 -10 CURVE SMOOTH"
);
},
{
closed = 1;
nodes = (
"353 -188 OFFCURVE",
"377 -161 OFFCURVE",
"377 -127 CURVE SMOOTH",
"377 -92 OFFCURVE",
"353 -64 OFFCURVE",
"316 -64 CURVE SMOOTH",
"278 -64 OFFCURVE",
"254 -92 OFFCURVE",
"254 -127 CURVE SMOOTH",
"254 -161 OFFCURVE",
"278 -188 OFFCURVE",
"316 -188 CURVE SMOOTH"
);
}
);
width = 629;
}
);
leftKerningGroup = S;
note = Sdotbelow;
rightKerningGroup = S;
unicode = 1E62;
},
{
glyphname = Germandbls;
lastChange = "2015-10-12 08:28:12 +0000";
layers = (
{
layerId = "66DA30A5-A5D3-4FBB-AA06-F397B31B18DC";
name = Bold;
paths = (
{
closed = 1;
nodes = (
"657 -10 OFFCURVE",
"725 90 OFFCURVE",
"725 207 CURVE SMOOTH",
"725 312 OFFCURVE",
"651 382 OFFCURVE",
"500 402 CURVE",
"643 550 LINE",
"619 626 OFFCURVE",
"531 710 OFFCURVE",
"378 710 CURVE SMOOTH",
"185 710 OFFCURVE",
"94 623 OFFCURVE",
"94 480 CURVE SMOOTH",
"94 75 LINE SMOOTH",
"94 49 OFFCURVE",
"76 37 OFFCURVE",
"37 37 CURVE SMOOTH",
"7 37 LINE",
"7 0 LINE",
"277 0 LINE",
"277 42 LINE",
"255 49 OFFCURVE",
"244 73 OFFCURVE",
"244 97 CURVE SMOOTH",
"244 518 LINE SMOOTH",
"244 604 OFFCURVE",
"290 654 OFFCURVE",
"370 654 CURVE SMOOTH",
"446 654 OFFCURVE",
"483 607 OFFCURVE",
"498 551 CURVE",
"343 384 LINE",
"343 353 LINE",
"432 353 LINE SMOOTH",
"527 353 OFFCURVE",
"575 293 OFFCURVE",
"575 207 CURVE SMOOTH",
"575 110 OFFCURVE",
"528 43 OFFCURVE",
"445 43 CURVE SMOOTH",
"408 43 OFFCURVE",
"366 49 OFFCURVE",
"326 63 CURVE",
"326 7 LINE",
"362 -5 OFFCURVE",
"404 -10 OFFCURVE",
"449 -10 CURVE SMOOTH"
);
}
);
width = 757;
}
);
note = uni1E9E;
unicode = 1E9E;
},
{
glyphname = Schwa;
lastChange = "2015-10-12 08:28:12 +0000";
layers = (
{
layerId = "66DA30A5-A5D3-4FBB-AA06-F397B31B18DC";
name = Bold;
paths = (
{
closed = 1;
nodes = (
"587 -10 OFFCURVE",
"697 129 OFFCURVE",
"697 348 CURVE SMOOTH",
"697 578 OFFCURVE",
"567 710 OFFCURVE",
"345 710 CURVE SMOOTH",
"157 710 OFFCURVE",
"50 603 OFFCURVE",
"35 471 CURVE",
"91 471 LINE",
"118 593 OFFCURVE",
"202 640 OFFCURVE",
"310 640 CURVE SMOOTH",
"468 640 OFFCURVE",
"541 507 OFFCURVE",
"541 346 CURVE SMOOTH",
"541 197 OFFCURVE",
"483 62 OFFCURVE",
"351 62 CURVE SMOOTH",
"225 62 OFFCURVE",
"187 189 OFFCURVE",
"187 264 CURVE",
"564 264 LINE",
"564 335 LINE",
"30 335 LINE",
"30 297 LINE SMOOTH",
"30 128 OFFCURVE",
"120 -10 OFFCURVE",
"352 -10 CURVE SMOOTH"
);
}
);
width = 728;
}
);
note = uni018F;
unicode = 018F;
},
{
glyphname = T;
lastChange = "2015-10-12 08:28:11 +0000";
layers = (
{
layerId = "66DA30A5-A5D3-4FBB-AA06-F397B31B18DC";
name = Bold;
paths = (
{
closed = 1;
nodes = (
"516 0 LINE",
"516 37 LINE",
"485 37 LINE SMOOTH",
"447 37 OFFCURVE",
"429 49 OFFCURVE",
"429 75 CURVE SMOOTH",
"429 645 LINE",
"561 645 LINE SMOOTH",
"624 645 OFFCURVE",
"636 512 OFFCURVE",
"637 477 CURVE",
"676 477 LINE",
"676 700 LINE",
"29 700 LINE",
"29 477 LINE",
"67 477 LINE",
"68 512 OFFCURVE",
"80 645 OFFCURVE",
"143 645 CURVE SMOOTH",
"276 645 LINE",
"276 75 LINE SMOOTH",
"276 49 OFFCURVE",
"258 37 OFFCURVE",
"219 37 CURVE SMOOTH",
"189 37 LINE",
"189 0 LINE"
);
}
);
width = 705;
}
);
leftKerningGroup = T;
note = T;
rightKerningGroup = T;
unicode = 0054;
},
{
glyphname = Tbar;
lastChange = "2015-10-12 08:28:12 +0000";
layers = (
{
layerId = "66DA30A5-A5D3-4FBB-AA06-F397B31B18DC";
name = Bold;
paths = (
{
closed = 1;
nodes = (
"516 0 LINE",
"516 37 LINE",
"485 37 LINE SMOOTH",
"447 37 OFFCURVE",
"429 49 OFFCURVE",
"429 75 CURVE SMOOTH",
"429 645 LINE",
"561 645 LINE SMOOTH",
"624 645 OFFCURVE",
"636 512 OFFCURVE",
"637 477 CURVE",
"676 477 LINE",
"676 700 LINE",
"29 700 LINE",
"29 477 LINE",
"67 477 LINE",
"68 512 OFFCURVE",
"80 645 OFFCURVE",
"143 645 CURVE SMOOTH",
"276 645 LINE",
"276 75 LINE SMOOTH",
"276 49 OFFCURVE",
"258 37 OFFCURVE",
"219 37 CURVE SMOOTH",
"189 37 LINE",
"189 0 LINE"
);
},
{
closed = 1;
nodes = (
"570 292 LINE",
"570 358 LINE",
"139 358 LINE",
"139 292 LINE"
);
}
);
width = 705;
}
);
leftKerningGroup = T;
note = Tbar;
rightKerningGroup = T;
unicode = 0166;
},
{
glyphname = Tcaron;
lastChange = "2015-10-12 08:28:13 +0000";
layers = (
{
layerId = "66DA30A5-A5D3-4FBB-AA06-F397B31B18DC";
name = Bold;
paths = (
{
closed = 1;
nodes = (
"516 0 LINE",
"516 37 LINE",
"485 37 LINE SMOOTH",
"447 37 OFFCURVE",
"429 49 OFFCURVE",
"429 75 CURVE SMOOTH",
"429 645 LINE",
"561 645 LINE SMOOTH",
"624 645 OFFCURVE",
"636 512 OFFCURVE",
"637 477 CURVE",
"676 477 LINE",
"676 700 LINE",
"29 700 LINE",
"29 477 LINE",
"67 477 LINE",
"68 512 OFFCURVE",
"80 645 OFFCURVE",
"143 645 CURVE SMOOTH",
"276 645 LINE",
"276 75 LINE SMOOTH",
"276 49 OFFCURVE",
"258 37 OFFCURVE",
"219 37 CURVE SMOOTH",
"189 37 LINE",
"189 0 LINE"
);
},
{
closed = 1;
nodes = (
"389 778 LINE",
"534 935 LINE",
"510 961 LINE",
"385 866 LINE SMOOTH",
"373 857 OFFCURVE",
"361 850 OFFCURVE",
"352 850 CURVE SMOOTH",
"343 850 OFFCURVE",
"331 857 OFFCURVE",
"318 866 CURVE",
"193 961 LINE",
"169 935 LINE",
"314 778 LINE"
);
}
);
width = 705;
}
);
leftKerningGroup = T;
note = Tcaron;
rightKerningGroup = T;
unicode = 0164;
},
{
glyphname = Tcedilla;
lastChange = "2015-10-12 08:28:13 +0000";
layers = (
{
layerId = "66DA30A5-A5D3-4FBB-AA06-F397B31B18DC";
name = Bold;
paths = (
{
closed = 1;
nodes = (
"516 0 LINE",
"516 37 LINE",
"485 37 LINE SMOOTH",
"447 37 OFFCURVE",
"429 49 OFFCURVE",
"429 75 CURVE SMOOTH",
"429 645 LINE",
"561 645 LINE SMOOTH",
"624 645 OFFCURVE",
"636 512 OFFCURVE",
"637 477 CURVE",
"676 477 LINE",
"676 700 LINE",
"29 700 LINE",
"29 477 LINE",
"67 477 LINE",
"68 512 OFFCURVE",
"80 645 OFFCURVE",
"143 645 CURVE SMOOTH",
"276 645 LINE",
"276 75 LINE SMOOTH",
"276 49 OFFCURVE",
"258 37 OFFCURVE",
"219 37 CURVE SMOOTH",
"189 37 LINE",
"189 0 LINE"
);
},
{
closed = 1;
nodes = (
"354 -237 OFFCURVE",
"459 -226 OFFCURVE",
"459 -131 CURVE SMOOTH",
"459 -65 OFFCURVE",
"386 -45 OFFCURVE",
"348 -43 CURVE",
"389 25 LINE",
"333 25 LINE",
"271 -75 LINE",
"279 -87 LINE",
"301 -87 OFFCURVE",
"366 -97 OFFCURVE",
"366 -137 CURVE SMOOTH",
"366 -184 OFFCURVE",
"319 -199 OFFCURVE",
"262 -199 CURVE SMOOTH",
"255 -199 OFFCURVE",
"249 -198 OFFCURVE",
"242 -197 CURVE",
"240 -232 LINE",
"258 -235 OFFCURVE",
"273 -237 OFFCURVE",
"295 -237 CURVE SMOOTH"
);
}
);
width = 705;
}
);
leftKerningGroup = T;
note = Tcedilla;
rightKerningGroup = T;
unicode = 0162;
},
{
glyphname = Tcommaaccent;
lastChange = "2015-10-12 08:28:13 +0000";
layers = (
{
layerId = "66DA30A5-A5D3-4FBB-AA06-F397B31B18DC";
name = Bold;
paths = (
{
closed = 1;
nodes = (
"516 0 LINE",
"516 37 LINE",
"485 37 LINE SMOOTH",
"447 37 OFFCURVE",
"429 49 OFFCURVE",
"429 75 CURVE SMOOTH",
"429 645 LINE",
"561 645 LINE SMOOTH",
"624 645 OFFCURVE",
"636 512 OFFCURVE",
"637 477 CURVE",
"676 477 LINE",
"676 700 LINE",
"29 700 LINE",
"29 477 LINE",
"67 477 LINE",
"68 512 OFFCURVE",
"80 645 OFFCURVE",
"143 645 CURVE SMOOTH",
"276 645 LINE",
"276 75 LINE SMOOTH",
"276 49 OFFCURVE",
"258 37 OFFCURVE",
"219 37 CURVE SMOOTH",
"189 37 LINE",
"189 0 LINE"
);
},
{
closed = 1;
nodes = (
"356 -311 OFFCURVE",
"420 -237 OFFCURVE",
"420 -161 CURVE SMOOTH",
"420 -103 OFFCURVE",
"388 -72 OFFCURVE",
"348 -72 CURVE SMOOTH",
"309 -72 OFFCURVE",
"285 -98 OFFCURVE",
"285 -129 CURVE SMOOTH",
"285 -168 OFFCURVE",
"326 -182 OFFCURVE",
"326 -222 CURVE SMOOTH",
"326 -263 OFFCURVE",
"300 -300 OFFCURVE",
"269 -332 CURVE",
"293 -354 LINE"
);
}
);
width = 705;
}
);
leftKerningGroup = T;
note = Tcommaaccent;
rightKerningGroup = T;
unicode = 021A;
},
